<?xml version="1.0" encoding="UTF-8" standalone="no"?>
<!DOCTYPE svg PUBLIC "-//W3C//DTD SVG 1.1//EN"
 "http://www.w3.org/Graphics/SVG/1.1/DTD/svg11.dtd">
<!-- Generated by graphviz version 12.2.1 (20241206.2353)
 -->
<!-- Title: snakemake_dag Pages: 1 -->
<svg width="1118pt" height="764pt"
 viewBox="0.00 0.00 1117.62 764.00" xmlns="http://www.w3.org/2000/svg" xmlns:xlink="http://www.w3.org/1999/xlink">
<g id="graph0" class="graph" transform="scale(1 1) rotate(0) translate(4 760)">
<title>snakemake_dag</title>
<polygon fill="white" stroke="none" points="-4,4 -4,-760 1113.62,-760 1113.62,4 -4,4"/>
<!-- 0 -->
<g id="node1" class="node">
<title>0</title>
<path fill="none" stroke="#d87556" stroke-width="2" d="M362.38,-36C362.38,-36 332.38,-36 332.38,-36 326.38,-36 320.38,-30 320.38,-24 320.38,-24 320.38,-12 320.38,-12 320.38,-6 326.38,0 332.38,0 332.38,0 362.38,0 362.38,0 368.38,0 374.38,-6 374.38,-12 374.38,-12 374.38,-24 374.38,-24 374.38,-30 368.38,-36 362.38,-36"/>
<text text-anchor="middle" x="347.38" y="-14.12" font-family="sans" font-size="10.00">all</text>
</g>
<!-- 1 -->
<g id="node2" class="node">
<title>1</title>
<path fill="none" stroke="#56d8b9" stroke-width="2" d="M258.75,-180C258.75,-180 188,-180 188,-180 182,-180 176,-174 176,-168 176,-168 176,-156 176,-156 176,-150 182,-144 188,-144 188,-144 258.75,-144 258.75,-144 264.75,-144 270.75,-150 270.75,-156 270.75,-156 270.75,-168 270.75,-168 270.75,-174 264.75,-180 258.75,-180"/>
<text text-anchor="middle" x="223.38" y="-158.12" font-family="sans" font-size="10.00">_copy_cnvkit_pon</text>
</g>
<!-- 1&#45;&gt;0 -->
<g id="edge2" class="edge">
<title>1&#45;&gt;0</title>
<path fill="none" stroke="grey" stroke-width="2" d="M238.36,-143.14C253.59,-125.07 277.91,-96.41 299.38,-72 306.84,-63.52 315.06,-54.37 322.56,-46.1"/>
<polygon fill="grey" stroke="grey" stroke-width="2" points="325.07,-48.54 329.21,-38.79 319.89,-43.83 325.07,-48.54"/>
</g>
<!-- 2 -->
<g id="node3" class="node">
<title>2</title>
<path fill="none" stroke="#56a2d8" stroke-width="2" d="M208.88,-540C208.88,-540 33.88,-540 33.88,-540 27.88,-540 21.88,-534 21.88,-528 21.88,-528 21.88,-516 21.88,-516 21.88,-510 27.88,-504 33.88,-504 33.88,-504 208.88,-504 208.88,-504 214.88,-504 220.88,-510 220.88,-516 220.88,-516 220.88,-528 220.88,-528 220.88,-534 214.88,-540 208.88,-540"/>
<text text-anchor="middle" x="121.38" y="-518.12" font-family="sans" font-size="10.00">references_cnvkit_build_normal_reference</text>
</g>
<!-- 2&#45;&gt;1 -->
<g id="edge5" class="edge">
<title>2&#45;&gt;1</title>
<path fill="none" stroke="grey" stroke-width="2" d="M139.98,-503.17C164.18,-477.98 203.38,-429.39 203.38,-379 203.38,-379 203.38,-379 203.38,-305 203.38,-266.27 210.76,-222.18 216.55,-193.55"/>
<polygon fill="grey" stroke="grey" stroke-width="2" points="219.97,-194.29 218.61,-183.78 213.12,-192.85 219.97,-194.29"/>
</g>
<!-- 3 -->
<g id="node4" class="node">
<title>3</title>
<path fill="none" stroke="#5663d8" stroke-width="2" d="M754.25,-612C754.25,-612 650.5,-612 650.5,-612 644.5,-612 638.5,-606 638.5,-600 638.5,-600 638.5,-588 638.5,-588 638.5,-582 644.5,-576 650.5,-576 650.5,-576 754.25,-576 754.25,-576 760.25,-576 766.25,-582 766.25,-588 766.25,-588 766.25,-600 766.25,-600 766.25,-606 760.25,-612 754.25,-612"/>
<text text-anchor="middle" x="702.38" y="-590.12" font-family="sans" font-size="10.00">alignment_pbmm2_merge</text>
</g>
<!-- 3&#45;&gt;2 -->
<g id="edge6" class="edge">
<title>3&#45;&gt;2</title>
<path fill="none" stroke="grey" stroke-width="2" d="M637.61,-586.67C548.89,-577.78 384.26,-560.58 234.28,-540.63"/>
<polygon fill="grey" stroke="grey" stroke-width="2" points="235.05,-537.2 224.67,-539.34 234.12,-544.14 235.05,-537.2"/>
</g>
<!-- 11 -->
<g id="node12" class="node">
<title>11</title>
<path fill="none" stroke="#d8a456" stroke-width="2" d="M376,-468C376,-468 258.75,-468 258.75,-468 252.75,-468 246.75,-462 246.75,-456 246.75,-456 246.75,-444 246.75,-444 246.75,-438 252.75,-432 258.75,-432 258.75,-432 376,-432 376,-432 382,-432 388,-438 388,-444 388,-444 388,-456 388,-456 388,-462 382,-468 376,-468"/>
<text text-anchor="middle" x="317.38" y="-446.12" font-family="sans" font-size="10.00">snv_indels_whatshap_phase</text>
</g>
<!-- 3&#45;&gt;11 -->
<g id="edge16" class="edge">
<title>3&#45;&gt;11</title>
<path fill="none" stroke="grey" stroke-width="2" d="M637.51,-577.64C609.83,-569.23 578.06,-556.99 552.38,-540 534.27,-528.03 537.96,-515.21 519.38,-504 483.67,-482.47 439.28,-469.58 401.22,-461.93"/>
<polygon fill="grey" stroke="grey" stroke-width="2" points="402.02,-458.52 391.54,-460.09 400.72,-465.39 402.02,-458.52"/>
</g>
<!-- 16 -->
<g id="node17" class="node">
<title>16</title>
<path fill="none" stroke="#80d856" stroke-width="2" d="M761.88,-540C761.88,-540 616.88,-540 616.88,-540 610.88,-540 604.88,-534 604.88,-528 604.88,-528 604.88,-516 604.88,-516 604.88,-510 610.88,-504 616.88,-504 616.88,-504 761.88,-504 761.88,-504 767.88,-504 773.88,-510 773.88,-516 773.88,-516 773.88,-528 773.88,-528 773.88,-534 767.88,-540 761.88,-540"/>
<text text-anchor="middle" x="689.38" y="-518.12" font-family="sans" font-size="10.00">alignment_samtools_index_pbmm2</text>
</g>
<!-- 3&#45;&gt;16 -->
<g id="edge23" class="edge">
<title>3&#45;&gt;16</title>
<path fill="none" stroke="grey" stroke-width="2" d="M699.09,-575.34C697.87,-568.75 696.45,-561.08 695.07,-553.67"/>
<polygon fill="grey" stroke="grey" stroke-width="2" points="698.52,-553.07 693.25,-543.88 691.64,-554.35 698.52,-553.07"/>
</g>
<!-- 22 -->
<g id="node23" class="node">
<title>22</title>
<path fill="none" stroke="#5673d8" stroke-width="2" d="M548.25,-468C548.25,-468 456.5,-468 456.5,-468 450.5,-468 444.5,-462 444.5,-456 444.5,-456 444.5,-444 444.5,-444 444.5,-438 450.5,-432 456.5,-432 456.5,-432 548.25,-432 548.25,-432 554.25,-432 560.25,-438 560.25,-444 560.25,-444 560.25,-456 560.25,-456 560.25,-462 554.25,-468 548.25,-468"/>
<text text-anchor="middle" x="502.38" y="-446.12" font-family="sans" font-size="10.00">cnv_sv_pbsv_discover</text>
</g>
<!-- 3&#45;&gt;22 -->
<g id="edge31" class="edge">
<title>3&#45;&gt;22</title>
<path fill="none" stroke="grey" stroke-width="2" d="M659.48,-575.07C639.52,-565.85 615.93,-553.69 596.38,-540 570.51,-521.89 544.72,-496.85 526.71,-477.94"/>
<polygon fill="grey" stroke="grey" stroke-width="2" points="529.51,-475.8 520.12,-470.89 524.39,-480.58 529.51,-475.8"/>
</g>
<!-- 27 -->
<g id="node28" class="node">
<title>27</title>
<path fill="none" stroke="#d85656" stroke-width="2" d="M788.5,-468C788.5,-468 590.25,-468 590.25,-468 584.25,-468 578.25,-462 578.25,-456 578.25,-456 578.25,-444 578.25,-444 578.25,-438 584.25,-432 590.25,-432 590.25,-432 788.5,-432 788.5,-432 794.5,-432 800.5,-438 800.5,-444 800.5,-444 800.5,-456 800.5,-456 800.5,-462 794.5,-468 788.5,-468"/>
<text text-anchor="middle" x="689.38" y="-446.12" font-family="sans" font-size="10.00">qc_picard_collect_alignment_summary_metrics</text>
</g>
<!-- 3&#45;&gt;27 -->
<g id="edge41" class="edge">
<title>3&#45;&gt;27</title>
<path fill="none" stroke="grey" stroke-width="2" d="M745.77,-575.15C760.42,-566.78 775.14,-555.23 783.38,-540 790.99,-525.93 791.45,-517.82 783.38,-504 776.36,-491.99 765.5,-482.48 753.62,-475.04"/>
<polygon fill="grey" stroke="grey" stroke-width="2" points="755.57,-472.13 745.14,-470.27 752.14,-478.22 755.57,-472.13"/>
</g>
<!-- 28 -->
<g id="node29" class="node">
<title>28</title>
<path fill="none" stroke="#9fd856" stroke-width="2" d="M880.62,-468C880.62,-468 830.12,-468 830.12,-468 824.12,-468 818.12,-462 818.12,-456 818.12,-456 818.12,-444 818.12,-444 818.12,-438 824.12,-432 830.12,-432 830.12,-432 880.62,-432 880.62,-432 886.62,-432 892.62,-438 892.62,-444 892.62,-444 892.62,-456 892.62,-456 892.62,-462 886.62,-468 880.62,-468"/>
<text text-anchor="middle" x="855.38" y="-446.12" font-family="sans" font-size="10.00">qc_mosdepth</text>
</g>
<!-- 3&#45;&gt;28 -->
<g id="edge43" class="edge">
<title>3&#45;&gt;28</title>
<path fill="none" stroke="grey" stroke-width="2" d="M746.54,-575.2C764.63,-566.44 784.9,-554.6 800.38,-540 818.25,-523.13 832.6,-499.22 842.15,-480.43"/>
<polygon fill="grey" stroke="grey" stroke-width="2" points="845.19,-482.19 846.41,-471.67 838.89,-479.14 845.19,-482.19"/>
</g>
<!-- 29 -->
<g id="node30" class="node">
<title>29</title>
<path fill="none" stroke="#bed856" stroke-width="2" d="M1043.88,-468C1043.88,-468 922.88,-468 922.88,-468 916.88,-468 910.88,-462 910.88,-456 910.88,-456 910.88,-444 910.88,-444 910.88,-438 916.88,-432 922.88,-432 922.88,-432 1043.88,-432 1043.88,-432 1049.88,-432 1055.88,-438 1055.88,-444 1055.88,-444 1055.88,-456 1055.88,-456 1055.88,-462 1049.88,-468 1043.88,-468"/>
<text text-anchor="middle" x="983.38" y="-446.12" font-family="sans" font-size="10.00">qc_picard_collect_hs_metrics</text>
</g>
<!-- 3&#45;&gt;29 -->
<g id="edge45" class="edge">
<title>3&#45;&gt;29</title>
<path fill="none" stroke="grey" stroke-width="2" d="M748.77,-575.08C772.84,-565.38 802.53,-552.79 828.38,-540 868.62,-520.07 912.9,-494.23 943.79,-475.53"/>
<polygon fill="grey" stroke="grey" stroke-width="2" points="945.23,-478.76 951.95,-470.57 941.59,-472.78 945.23,-478.76"/>
</g>
<!-- 4 -->
<g id="node5" class="node">
<title>4</title>
<path fill="none" stroke="#d8b456" stroke-width="2" d="M774.88,-684C774.88,-684 677.88,-684 677.88,-684 671.88,-684 665.88,-678 665.88,-672 665.88,-672 665.88,-660 665.88,-660 665.88,-654 671.88,-648 677.88,-648 677.88,-648 774.88,-648 774.88,-648 780.88,-648 786.88,-654 786.88,-660 786.88,-660 786.88,-672 786.88,-672 786.88,-678 780.88,-684 774.88,-684"/>
<text text-anchor="middle" x="726.38" y="-662.12" font-family="sans" font-size="10.00">alignment_pbmm2_align</text>
</g>
<!-- 4&#45;&gt;3 -->
<g id="edge9" class="edge">
<title>4&#45;&gt;3</title>
<path fill="none" stroke="grey" stroke-width="2" d="M720.32,-647.34C718.01,-640.59 715.3,-632.69 712.7,-625.11"/>
<polygon fill="grey" stroke="grey" stroke-width="2" points="716.05,-624.09 709.49,-615.77 709.43,-626.36 716.05,-624.09"/>
</g>
<!-- 32 -->
<g id="node33" class="node">
<title>32</title>
<path fill="none" stroke="#70d856" stroke-width="2" d="M1097.62,-612C1097.62,-612 1059.12,-612 1059.12,-612 1053.12,-612 1047.12,-606 1047.12,-600 1047.12,-600 1047.12,-588 1047.12,-588 1047.12,-582 1053.12,-576 1059.12,-576 1059.12,-576 1097.62,-576 1097.62,-576 1103.62,-576 1109.62,-582 1109.62,-588 1109.62,-588 1109.62,-600 1109.62,-600 1109.62,-606 1103.62,-612 1097.62,-612"/>
<text text-anchor="middle" x="1078.38" y="-590.12" font-family="sans" font-size="10.00">qc_sequali</text>
</g>
<!-- 4&#45;&gt;32 -->
<g id="edge49" class="edge">
<title>4&#45;&gt;32</title>
<path fill="none" stroke="grey" stroke-width="2" d="M787.64,-657.23C849.29,-648.73 946.79,-633.4 1029.38,-612 1030.83,-611.62 1032.31,-611.22 1033.8,-610.8"/>
<polygon fill="grey" stroke="grey" stroke-width="2" points="1034.76,-614.17 1043.29,-607.88 1032.7,-607.48 1034.76,-614.17"/>
</g>
<!-- 5 -->
<g id="node6" class="node">
<title>5</title>
<path fill="none" stroke="#d88556" stroke-width="2" d="M788.75,-756C788.75,-756 688,-756 688,-756 682,-756 676,-750 676,-744 676,-744 676,-732 676,-732 676,-726 682,-720 688,-720 688,-720 788.75,-720 788.75,-720 794.75,-720 800.75,-726 800.75,-732 800.75,-732 800.75,-744 800.75,-744 800.75,-750 794.75,-756 788.75,-756"/>
<text text-anchor="middle" x="738.38" y="-734.12" font-family="sans" font-size="10.00">prealignment_pbmarkdup</text>
</g>
<!-- 5&#45;&gt;4 -->
<g id="edge10" class="edge">
<title>5&#45;&gt;4</title>
<path fill="none" stroke="grey" stroke-width="2" d="M735.35,-719.34C734.22,-712.75 732.9,-705.08 731.63,-697.67"/>
<polygon fill="grey" stroke="grey" stroke-width="2" points="735.09,-697.15 729.96,-687.89 728.2,-698.33 735.09,-697.15"/>
</g>
<!-- 6 -->
<g id="node7" class="node">
<title>6</title>
<path fill="none" stroke="#56d89a" stroke-width="2" d="M646.38,-756C646.38,-756 546.38,-756 546.38,-756 540.38,-756 534.38,-750 534.38,-744 534.38,-744 534.38,-732 534.38,-732 534.38,-726 540.38,-720 546.38,-720 546.38,-720 646.38,-720 646.38,-720 652.38,-720 658.38,-726 658.38,-732 658.38,-732 658.38,-744 658.38,-744 658.38,-750 652.38,-756 646.38,-756"/>
<text text-anchor="middle" x="596.38" y="-734.12" font-family="sans" font-size="10.00">alignment_pbmm2_index</text>
</g>
<!-- 6&#45;&gt;4 -->
<g id="edge11" class="edge">
<title>6&#45;&gt;4</title>
<path fill="none" stroke="grey" stroke-width="2" d="M629.52,-719.15C645.41,-710.6 664.67,-700.22 681.83,-690.99"/>
<polygon fill="grey" stroke="grey" stroke-width="2" points="683.48,-694.07 690.63,-686.25 680.17,-687.91 683.48,-694.07"/>
</g>
<!-- 7 -->
<g id="node8" class="node">
<title>7</title>
<path fill="none" stroke="#56c1d8" stroke-width="2" d="M148.75,-684C148.75,-684 12,-684 12,-684 6,-684 0,-678 0,-672 0,-672 0,-660 0,-660 0,-654 6,-648 12,-648 12,-648 148.75,-648 148.75,-648 154.75,-648 160.75,-654 160.75,-660 160.75,-660 160.75,-672 160.75,-672 160.75,-678 154.75,-684 148.75,-684"/>
<text text-anchor="middle" x="80.38" y="-662.12" font-family="sans" font-size="10.00">references_cnvkit_create_targets</text>
</g>
<!-- 7&#45;&gt;2 -->
<g id="edge7" class="edge">
<title>7&#45;&gt;2</title>
<path fill="none" stroke="grey" stroke-width="2" d="M62.22,-647.27C45.87,-629.06 26.28,-600.06 39.38,-576 45.57,-564.61 55.39,-555.3 66.11,-547.83"/>
<polygon fill="grey" stroke="grey" stroke-width="2" points="67.86,-550.87 74.47,-542.59 64.13,-544.94 67.86,-550.87"/>
</g>
<!-- 8 -->
<g id="node9" class="node">
<title>8</title>
<path fill="none" stroke="#ced856" stroke-width="2" d="M218.25,-612C218.25,-612 60.5,-612 60.5,-612 54.5,-612 48.5,-606 48.5,-600 48.5,-600 48.5,-588 48.5,-588 48.5,-582 54.5,-576 60.5,-576 60.5,-576 218.25,-576 218.25,-576 224.25,-576 230.25,-582 230.25,-588 230.25,-588 230.25,-600 230.25,-600 230.25,-606 224.25,-612 218.25,-612"/>
<text text-anchor="middle" x="139.38" y="-590.12" font-family="sans" font-size="10.00">references_cnvkit_create_anti_targets</text>
</g>
<!-- 7&#45;&gt;8 -->
<g id="edge12" class="edge">
<title>7&#45;&gt;8</title>
<path fill="none" stroke="grey" stroke-width="2" d="M95.26,-647.34C101.57,-639.85 109.08,-630.95 116.09,-622.63"/>
<polygon fill="grey" stroke="grey" stroke-width="2" points="118.57,-625.12 122.34,-615.22 113.21,-620.61 118.57,-625.12"/>
</g>
<!-- 8&#45;&gt;2 -->
<g id="edge8" class="edge">
<title>8&#45;&gt;2</title>
<path fill="none" stroke="grey" stroke-width="2" d="M134.83,-575.34C133.12,-568.67 131.12,-560.89 129.19,-553.39"/>
<polygon fill="grey" stroke="grey" stroke-width="2" points="132.61,-552.65 126.73,-543.83 125.83,-554.39 132.61,-552.65"/>
</g>
<!-- 9 -->
<g id="node10" class="node">
<title>9</title>
<path fill="none" stroke="#56d0d8" stroke-width="2" d="M363.38,-252C363.38,-252 263.38,-252 263.38,-252 257.38,-252 251.38,-246 251.38,-240 251.38,-240 251.38,-228 251.38,-228 251.38,-222 257.38,-216 263.38,-216 263.38,-216 363.38,-216 363.38,-216 369.38,-216 375.38,-222 375.38,-228 375.38,-228 375.38,-240 375.38,-240 375.38,-246 369.38,-252 363.38,-252"/>
<text text-anchor="middle" x="313.38" y="-230.12" font-family="sans" font-size="10.00">_copy_deepsomatic_pon</text>
</g>
<!-- 9&#45;&gt;0 -->
<g id="edge1" class="edge">
<title>9&#45;&gt;0</title>
<path fill="none" stroke="grey" stroke-width="2" d="M316.22,-215.12C322.02,-178.62 335.28,-95.13 342.49,-49.74"/>
<polygon fill="grey" stroke="grey" stroke-width="2" points="345.93,-50.39 344.04,-39.97 339.02,-49.29 345.93,-50.39"/>
</g>
<!-- 10 -->
<g id="node11" class="node">
<title>10</title>
<path fill="none" stroke="#61d856" stroke-width="2" d="M378.75,-324C378.75,-324 248,-324 248,-324 242,-324 236,-318 236,-312 236,-312 236,-300 236,-300 236,-294 242,-288 248,-288 248,-288 378.75,-288 378.75,-288 384.75,-288 390.75,-294 390.75,-300 390.75,-300 390.75,-312 390.75,-312 390.75,-318 384.75,-324 378.75,-324"/>
<text text-anchor="middle" x="313.38" y="-302.12" font-family="sans" font-size="10.00">references_snv_bcftools_merge</text>
</g>
<!-- 10&#45;&gt;9 -->
<g id="edge13" class="edge">
<title>10&#45;&gt;9</title>
<path fill="none" stroke="grey" stroke-width="2" d="M313.38,-287.34C313.38,-280.75 313.38,-273.08 313.38,-265.67"/>
<polygon fill="grey" stroke="grey" stroke-width="2" points="316.88,-265.93 313.38,-255.93 309.88,-265.93 316.88,-265.93"/>
</g>
<!-- 11&#45;&gt;10 -->
<g id="edge15" class="edge">
<title>11&#45;&gt;10</title>
<path fill="none" stroke="grey" stroke-width="2" d="M329.12,-431.19C334.96,-421.28 341.39,-408.45 344.38,-396 348.11,-380.44 348.56,-375.44 344.38,-360 342.08,-351.53 338.05,-343.02 333.65,-335.38"/>
<polygon fill="grey" stroke="grey" stroke-width="2" points="336.74,-333.73 328.46,-327.13 330.82,-337.46 336.74,-333.73"/>
</g>
<!-- 17 -->
<g id="node18" class="node">
<title>17</title>
<path fill="none" stroke="#56d8c9" stroke-width="2" d="M323.25,-396C323.25,-396 273.5,-396 273.5,-396 267.5,-396 261.5,-390 261.5,-384 261.5,-384 261.5,-372 261.5,-372 261.5,-366 267.5,-360 273.5,-360 273.5,-360 323.25,-360 323.25,-360 329.25,-360 335.25,-366 335.25,-372 335.25,-372 335.25,-384 335.25,-384 335.25,-390 329.25,-396 323.25,-396"/>
<text text-anchor="middle" x="298.38" y="-374.12" font-family="sans" font-size="10.00">cnv_sv_tabix</text>
</g>
<!-- 11&#45;&gt;17 -->
<g id="edge24" class="edge">
<title>11&#45;&gt;17</title>
<path fill="none" stroke="grey" stroke-width="2" d="M312.58,-431.34C310.77,-424.67 308.66,-416.89 306.62,-409.39"/>
<polygon fill="grey" stroke="grey" stroke-width="2" points="310.02,-408.56 304.03,-399.82 303.27,-410.39 310.02,-408.56"/>
</g>
<!-- 12 -->
<g id="node13" class="node">
<title>12</title>
<path fill="none" stroke="#5692d8" stroke-width="2" d="M370.12,-540C370.12,-540 250.62,-540 250.62,-540 244.62,-540 238.62,-534 238.62,-528 238.62,-528 238.62,-516 238.62,-516 238.62,-510 244.62,-504 250.62,-504 250.62,-504 370.12,-504 370.12,-504 376.12,-504 382.12,-510 382.12,-516 382.12,-516 382.12,-528 382.12,-528 382.12,-534 376.12,-540 370.12,-540"/>
<text text-anchor="middle" x="310.38" y="-518.12" font-family="sans" font-size="10.00">references_deepsomatic_pon</text>
</g>
<!-- 12&#45;&gt;11 -->
<g id="edge17" class="edge">
<title>12&#45;&gt;11</title>
<path fill="none" stroke="grey" stroke-width="2" d="M312.14,-503.34C312.8,-496.75 313.57,-489.08 314.31,-481.67"/>
<polygon fill="grey" stroke="grey" stroke-width="2" points="317.77,-482.21 315.28,-471.91 310.81,-481.52 317.77,-482.21"/>
</g>
<!-- 13 -->
<g id="node14" class="node">
<title>13</title>
<path fill="none" stroke="#d89556" stroke-width="2" d="M460.38,-684C460.38,-684 354.38,-684 354.38,-684 348.38,-684 342.38,-678 342.38,-672 342.38,-672 342.38,-660 342.38,-660 342.38,-654 348.38,-648 354.38,-648 354.38,-648 460.38,-648 460.38,-648 466.38,-648 472.38,-654 472.38,-660 472.38,-660 472.38,-672 472.38,-672 472.38,-678 466.38,-684 460.38,-684"/>
<text text-anchor="middle" x="407.38" y="-662.12" font-family="sans" font-size="10.00">alignment_vacmap_merge</text>
</g>
<!-- 13&#45;&gt;12 -->
<g id="edge20" class="edge">
<title>13&#45;&gt;12</title>
<path fill="none" stroke="grey" stroke-width="2" d="M353.9,-647.22C337.76,-639.1 321.83,-627.69 312.38,-612 301.95,-594.7 301.65,-571.87 303.85,-553.66"/>
<polygon fill="grey" stroke="grey" stroke-width="2" points="307.31,-554.22 305.42,-543.8 300.39,-553.12 307.31,-554.22"/>
</g>
<!-- 15 -->
<g id="node16" class="node">
<title>15</title>
<path fill="none" stroke="#56d86b" stroke-width="2" d="M481,-612C481,-612 333.75,-612 333.75,-612 327.75,-612 321.75,-606 321.75,-600 321.75,-600 321.75,-588 321.75,-588 321.75,-582 327.75,-576 333.75,-576 333.75,-576 481,-576 481,-576 487,-576 493,-582 493,-588 493,-588 493,-600 493,-600 493,-606 487,-612 481,-612"/>
<text text-anchor="middle" x="407.38" y="-590.12" font-family="sans" font-size="10.00">alignment_samtools_index_vacmap</text>
</g>
<!-- 13&#45;&gt;15 -->
<g id="edge22" class="edge">
<title>13&#45;&gt;15</title>
<path fill="none" stroke="grey" stroke-width="2" d="M407.38,-647.34C407.38,-640.75 407.38,-633.08 407.38,-625.67"/>
<polygon fill="grey" stroke="grey" stroke-width="2" points="410.88,-625.93 407.38,-615.93 403.88,-625.93 410.88,-625.93"/>
</g>
<!-- 23 -->
<g id="node24" class="node">
<title>23</title>
<path fill="none" stroke="#56b1d8" stroke-width="2" d="M498.25,-540C498.25,-540 412.5,-540 412.5,-540 406.5,-540 400.5,-534 400.5,-528 400.5,-528 400.5,-516 400.5,-516 400.5,-510 406.5,-504 412.5,-504 412.5,-504 498.25,-504 498.25,-504 504.25,-504 510.25,-510 510.25,-516 510.25,-516 510.25,-528 510.25,-528 510.25,-534 504.25,-540 498.25,-540"/>
<text text-anchor="middle" x="455.38" y="-518.12" font-family="sans" font-size="10.00">cnv_sv_sniffles2_call</text>
</g>
<!-- 13&#45;&gt;23 -->
<g id="edge34" class="edge">
<title>13&#45;&gt;23</title>
<path fill="none" stroke="grey" stroke-width="2" d="M461.56,-647.09C477.54,-639 493.19,-627.63 502.38,-612 510.48,-598.2 508.05,-590.96 502.38,-576 498.79,-566.57 492.68,-557.74 486.03,-550.09"/>
<polygon fill="grey" stroke="grey" stroke-width="2" points="488.66,-547.78 479.22,-542.96 483.6,-552.61 488.66,-547.78"/>
</g>
<!-- 14 -->
<g id="node15" class="node">
<title>14</title>
<path fill="none" stroke="#8fd856" stroke-width="2" d="M457,-756C457,-756 357.75,-756 357.75,-756 351.75,-756 345.75,-750 345.75,-744 345.75,-744 345.75,-732 345.75,-732 345.75,-726 351.75,-720 357.75,-720 357.75,-720 457,-720 457,-720 463,-720 469,-726 469,-732 469,-732 469,-744 469,-744 469,-750 463,-756 457,-756"/>
<text text-anchor="middle" x="407.38" y="-734.12" font-family="sans" font-size="10.00">alignment_vacmap_align</text>
</g>
<!-- 14&#45;&gt;13 -->
<g id="edge21" class="edge">
<title>14&#45;&gt;13</title>
<path fill="none" stroke="grey" stroke-width="2" d="M407.38,-719.34C407.38,-712.75 407.38,-705.08 407.38,-697.67"/>
<polygon fill="grey" stroke="grey" stroke-width="2" points="410.88,-697.93 407.38,-687.93 403.88,-697.93 410.88,-697.93"/>
</g>
<!-- 15&#45;&gt;12 -->
<g id="edge19" class="edge">
<title>15&#45;&gt;12</title>
<path fill="none" stroke="grey" stroke-width="2" d="M382.65,-575.15C371.36,-567.01 357.79,-557.22 345.47,-548.33"/>
<polygon fill="grey" stroke="grey" stroke-width="2" points="347.67,-545.6 337.51,-542.58 343.57,-551.27 347.67,-545.6"/>
</g>
<!-- 15&#45;&gt;23 -->
<g id="edge33" class="edge">
<title>15&#45;&gt;23</title>
<path fill="none" stroke="grey" stroke-width="2" d="M419.49,-575.34C424.45,-568.1 430.32,-559.53 435.87,-551.45"/>
<polygon fill="grey" stroke="grey" stroke-width="2" points="438.62,-553.62 441.39,-543.4 432.85,-549.67 438.62,-553.62"/>
</g>
<!-- 16&#45;&gt;11 -->
<g id="edge18" class="edge">
<title>16&#45;&gt;11</title>
<path fill="none" stroke="grey" stroke-width="2" d="M604.03,-504.94C543.25,-493.5 461.95,-478.21 401.46,-466.82"/>
<polygon fill="grey" stroke="grey" stroke-width="2" points="402.33,-463.42 391.86,-465.02 401.04,-470.3 402.33,-463.42"/>
</g>
<!-- 16&#45;&gt;22 -->
<g id="edge32" class="edge">
<title>16&#45;&gt;22</title>
<path fill="none" stroke="grey" stroke-width="2" d="M641.7,-503.15C617.51,-494.1 587.87,-483.01 562.17,-473.38"/>
<polygon fill="grey" stroke="grey" stroke-width="2" points="563.71,-470.22 553.12,-470 561.26,-476.78 563.71,-470.22"/>
</g>
<!-- 16&#45;&gt;27 -->
<g id="edge42" class="edge">
<title>16&#45;&gt;27</title>
<path fill="none" stroke="grey" stroke-width="2" d="M689.38,-503.34C689.38,-496.75 689.38,-489.08 689.38,-481.67"/>
<polygon fill="grey" stroke="grey" stroke-width="2" points="692.88,-481.93 689.38,-471.93 685.88,-481.93 692.88,-481.93"/>
</g>
<!-- 16&#45;&gt;28 -->
<g id="edge44" class="edge">
<title>16&#45;&gt;28</title>
<path fill="none" stroke="grey" stroke-width="2" d="M731.69,-503.15C754.19,-493.67 781.98,-481.95 805.52,-472.02"/>
<polygon fill="grey" stroke="grey" stroke-width="2" points="806.74,-475.31 814.6,-468.2 804.02,-468.86 806.74,-475.31"/>
</g>
<!-- 16&#45;&gt;29 -->
<g id="edge47" class="edge">
<title>16&#45;&gt;29</title>
<path fill="none" stroke="grey" stroke-width="2" d="M764.71,-503.06C805.27,-493.41 855.46,-481.45 897.53,-471.44"/>
<polygon fill="grey" stroke="grey" stroke-width="2" points="898.16,-474.89 907.07,-469.17 896.54,-468.08 898.16,-474.89"/>
</g>
<!-- 17&#45;&gt;10 -->
<g id="edge14" class="edge">
<title>17&#45;&gt;10</title>
<path fill="none" stroke="grey" stroke-width="2" d="M302.16,-359.34C303.59,-352.67 305.26,-344.89 306.86,-337.39"/>
<polygon fill="grey" stroke="grey" stroke-width="2" points="310.23,-338.37 308.9,-327.86 303.39,-336.91 310.23,-338.37"/>
</g>
<!-- 18 -->
<g id="node19" class="node">
<title>18</title>
<path fill="none" stroke="#d8c356" stroke-width="2" d="M425.88,-108C425.88,-108 370.88,-108 370.88,-108 364.88,-108 358.88,-102 358.88,-96 358.88,-96 358.88,-84 358.88,-84 358.88,-78 364.88,-72 370.88,-72 370.88,-72 425.88,-72 425.88,-72 431.88,-72 437.88,-78 437.88,-84 437.88,-84 437.88,-96 437.88,-96 437.88,-102 431.88,-108 425.88,-108"/>
<text text-anchor="middle" x="398.38" y="-86.12" font-family="sans" font-size="10.00">_copy_sv_pon</text>
</g>
<!-- 18&#45;&gt;0 -->
<g id="edge3" class="edge">
<title>18&#45;&gt;0</title>
<path fill="none" stroke="grey" stroke-width="2" d="M385.51,-71.34C380.17,-64.01 373.85,-55.34 367.9,-47.18"/>
<polygon fill="grey" stroke="grey" stroke-width="2" points="370.92,-45.37 362.2,-39.35 365.26,-49.49 370.92,-45.37"/>
</g>
<!-- 19 -->
<g id="node20" class="node">
<title>19</title>
<path fill="none" stroke="#56d88a" stroke-width="2" d="M479.12,-180C479.12,-180 353.62,-180 353.62,-180 347.62,-180 341.62,-174 341.62,-168 341.62,-168 341.62,-156 341.62,-156 341.62,-150 347.62,-144 353.62,-144 353.62,-144 479.12,-144 479.12,-144 485.12,-144 491.12,-150 491.12,-156 491.12,-156 491.12,-168 491.12,-168 491.12,-174 485.12,-180 479.12,-180"/>
<text text-anchor="middle" x="416.38" y="-158.12" font-family="sans" font-size="10.00">references_sv_bcftools_merge</text>
</g>
<!-- 19&#45;&gt;18 -->
<g id="edge25" class="edge">
<title>19&#45;&gt;18</title>
<path fill="none" stroke="grey" stroke-width="2" d="M411.83,-143.34C410.12,-136.67 408.12,-128.89 406.19,-121.39"/>
<polygon fill="grey" stroke="grey" stroke-width="2" points="409.61,-120.65 403.73,-111.83 402.83,-122.39 409.61,-120.65"/>
</g>
<!-- 20 -->
<g id="node21" class="node">
<title>20</title>
<path fill="none" stroke="#5682d8" stroke-width="2" d="M489.25,-324C489.25,-324 439.5,-324 439.5,-324 433.5,-324 427.5,-318 427.5,-312 427.5,-312 427.5,-300 427.5,-300 427.5,-294 433.5,-288 439.5,-288 439.5,-288 489.25,-288 489.25,-288 495.25,-288 501.25,-294 501.25,-300 501.25,-300 501.25,-312 501.25,-312 501.25,-318 495.25,-324 489.25,-324"/>
<text text-anchor="middle" x="464.38" y="-302.12" font-family="sans" font-size="10.00">bgzip_sv_vcf</text>
</g>
<!-- 20&#45;&gt;19 -->
<g id="edge26" class="edge">
<title>20&#45;&gt;19</title>
<path fill="none" stroke="grey" stroke-width="2" d="M449.1,-287.06C441.63,-277.31 433.22,-264.67 428.38,-252 421.3,-233.5 418.29,-211.44 417.06,-193.92"/>
<polygon fill="grey" stroke="grey" stroke-width="2" points="420.55,-193.82 416.55,-184.01 413.56,-194.17 420.55,-193.82"/>
</g>
<!-- 24 -->
<g id="node25" class="node">
<title>24</title>
<path fill="none" stroke="#56d85b" stroke-width="2" d="M515.12,-252C515.12,-252 449.62,-252 449.62,-252 443.62,-252 437.62,-246 437.62,-240 437.62,-240 437.62,-228 437.62,-228 437.62,-222 443.62,-216 449.62,-216 449.62,-216 515.12,-216 515.12,-216 521.12,-216 527.12,-222 527.12,-228 527.12,-228 527.12,-240 527.12,-240 527.12,-246 521.12,-252 515.12,-252"/>
<text text-anchor="middle" x="482.38" y="-230.12" font-family="sans" font-size="10.00">cnv_sv_tabix_sv</text>
</g>
<!-- 20&#45;&gt;24 -->
<g id="edge35" class="edge">
<title>20&#45;&gt;24</title>
<path fill="none" stroke="grey" stroke-width="2" d="M468.92,-287.34C470.63,-280.67 472.63,-272.89 474.56,-265.39"/>
<polygon fill="grey" stroke="grey" stroke-width="2" points="477.92,-266.39 477.02,-255.83 471.14,-264.65 477.92,-266.39"/>
</g>
<!-- 21 -->
<g id="node22" class="node">
<title>21</title>
<path fill="none" stroke="#56d87b" stroke-width="2" d="M532.38,-396C532.38,-396 462.38,-396 462.38,-396 456.38,-396 450.38,-390 450.38,-384 450.38,-384 450.38,-372 450.38,-372 450.38,-366 456.38,-360 462.38,-360 462.38,-360 532.38,-360 532.38,-360 538.38,-360 544.38,-366 544.38,-372 544.38,-372 544.38,-384 544.38,-384 544.38,-390 538.38,-396 532.38,-396"/>
<text text-anchor="middle" x="497.38" y="-374.12" font-family="sans" font-size="10.00">cnv_sv_pbsv_call</text>
</g>
<!-- 21&#45;&gt;20 -->
<g id="edge29" class="edge">
<title>21&#45;&gt;20</title>
<path fill="none" stroke="grey" stroke-width="2" d="M489.05,-359.34C485.79,-352.43 481.96,-344.31 478.31,-336.56"/>
<polygon fill="grey" stroke="grey" stroke-width="2" points="481.54,-335.19 474.11,-327.64 475.2,-338.18 481.54,-335.19"/>
</g>
<!-- 22&#45;&gt;21 -->
<g id="edge30" class="edge">
<title>22&#45;&gt;21</title>
<path fill="none" stroke="grey" stroke-width="2" d="M501.11,-431.34C500.64,-424.75 500.09,-417.08 499.57,-409.67"/>
<polygon fill="grey" stroke="grey" stroke-width="2" points="503.07,-409.65 498.87,-399.92 496.09,-410.15 503.07,-409.65"/>
</g>
<!-- 23&#45;&gt;20 -->
<g id="edge28" class="edge">
<title>23&#45;&gt;20</title>
<path fill="none" stroke="grey" stroke-width="2" d="M446.86,-503.31C442.48,-493.22 437.6,-480.19 435.38,-468 426.75,-420.71 429.65,-406.62 441.38,-360 443.35,-352.15 446.36,-343.98 449.57,-336.47"/>
<polygon fill="grey" stroke="grey" stroke-width="2" points="452.75,-337.94 453.73,-327.39 446.38,-335.02 452.75,-337.94"/>
</g>
<!-- 24&#45;&gt;19 -->
<g id="edge27" class="edge">
<title>24&#45;&gt;19</title>
<path fill="none" stroke="grey" stroke-width="2" d="M465.72,-215.34C458.58,-207.77 450.08,-198.75 442.17,-190.35"/>
<polygon fill="grey" stroke="grey" stroke-width="2" points="444.74,-187.98 435.33,-183.1 439.64,-192.78 444.74,-187.98"/>
</g>
<!-- 25 -->
<g id="node26" class="node">
<title>25</title>
<path fill="none" stroke="#d86656" stroke-width="2" d="M589.88,-108C589.88,-108 480.88,-108 480.88,-108 474.88,-108 468.88,-102 468.88,-96 468.88,-96 468.88,-84 468.88,-84 468.88,-78 474.88,-72 480.88,-72 480.88,-72 589.88,-72 589.88,-72 595.88,-72 601.88,-78 601.88,-84 601.88,-84 601.88,-96 601.88,-96 601.88,-102 595.88,-108 589.88,-108"/>
<text text-anchor="middle" x="535.38" y="-86.12" font-family="sans" font-size="10.00">_copy_multiqc_html_report</text>
</g>
<!-- 25&#45;&gt;0 -->
<g id="edge4" class="edge">
<title>25&#45;&gt;0</title>
<path fill="none" stroke="grey" stroke-width="2" d="M487.45,-71.15C456.42,-59.6 416.48,-44.73 387.2,-33.83"/>
<polygon fill="grey" stroke="grey" stroke-width="2" points="388.79,-30.69 378.2,-30.48 386.35,-37.25 388.79,-30.69"/>
</g>
<!-- 26 -->
<g id="node27" class="node">
<title>26</title>
<path fill="none" stroke="#56d8a9" stroke-width="2" d="M896,-396C896,-396 814.75,-396 814.75,-396 808.75,-396 802.75,-390 802.75,-384 802.75,-384 802.75,-372 802.75,-372 802.75,-366 808.75,-360 814.75,-360 814.75,-360 896,-360 896,-360 902,-360 908,-366 908,-372 908,-372 908,-384 908,-384 908,-390 902,-396 896,-396"/>
<text text-anchor="middle" x="855.38" y="-374.12" font-family="sans" font-size="10.00">qc_multiqc_longread</text>
</g>
<!-- 26&#45;&gt;25 -->
<g id="edge36" class="edge">
<title>26&#45;&gt;25</title>
<path fill="none" stroke="grey" stroke-width="2" d="M835.36,-359.11C780.81,-310.36 629.33,-174.97 564.94,-117.43"/>
<polygon fill="grey" stroke="grey" stroke-width="2" points="567.43,-114.96 557.64,-110.9 562.77,-120.17 567.43,-114.96"/>
</g>
<!-- 27&#45;&gt;26 -->
<g id="edge37" class="edge">
<title>27&#45;&gt;26</title>
<path fill="none" stroke="grey" stroke-width="2" d="M731.69,-431.15C752.78,-422.26 778.53,-411.41 801.06,-401.91"/>
<polygon fill="grey" stroke="grey" stroke-width="2" points="802.2,-405.22 810.06,-398.11 799.48,-398.77 802.2,-405.22"/>
</g>
<!-- 28&#45;&gt;26 -->
<g id="edge39" class="edge">
<title>28&#45;&gt;26</title>
<path fill="none" stroke="grey" stroke-width="2" d="M855.38,-431.34C855.38,-424.75 855.38,-417.08 855.38,-409.67"/>
<polygon fill="grey" stroke="grey" stroke-width="2" points="858.88,-409.93 855.38,-399.93 851.88,-409.93 858.88,-409.93"/>
</g>
<!-- 29&#45;&gt;26 -->
<g id="edge38" class="edge">
<title>29&#45;&gt;26</title>
<path fill="none" stroke="grey" stroke-width="2" d="M950.74,-431.15C935.1,-422.6 916.13,-412.22 899.24,-402.99"/>
<polygon fill="grey" stroke="grey" stroke-width="2" points="901.06,-399.99 890.6,-398.26 897.7,-406.13 901.06,-399.99"/>
</g>
<!-- 30 -->
<g id="node31" class="node">
<title>30</title>
<path fill="none" stroke="#afd856" stroke-width="2" d="M1045.88,-540C1045.88,-540 918.88,-540 918.88,-540 912.88,-540 906.88,-534 906.88,-528 906.88,-528 906.88,-516 906.88,-516 906.88,-510 912.88,-504 918.88,-504 918.88,-504 1045.88,-504 1045.88,-504 1051.88,-504 1057.88,-510 1057.88,-516 1057.88,-516 1057.88,-528 1057.88,-528 1057.88,-534 1051.88,-540 1045.88,-540"/>
<text text-anchor="middle" x="982.38" y="-518.12" font-family="sans" font-size="10.00">references_bed_to_interval_list</text>
</g>
<!-- 30&#45;&gt;29 -->
<g id="edge46" class="edge">
<title>30&#45;&gt;29</title>
<path fill="none" stroke="grey" stroke-width="2" d="M982.63,-503.34C982.72,-496.75 982.83,-489.08 982.94,-481.67"/>
<polygon fill="grey" stroke="grey" stroke-width="2" points="986.43,-481.98 983.08,-471.93 979.43,-481.88 986.43,-481.98"/>
</g>
<!-- 31 -->
<g id="node32" class="node">
<title>31</title>
<path fill="none" stroke="#d8d356" stroke-width="2" d="M1008.75,-612C1008.75,-612 956,-612 956,-612 950,-612 944,-606 944,-600 944,-600 944,-588 944,-588 944,-582 950,-576 956,-576 956,-576 1008.75,-576 1008.75,-576 1014.75,-576 1020.75,-582 1020.75,-588 1020.75,-588 1020.75,-600 1020.75,-600 1020.75,-606 1014.75,-612 1008.75,-612"/>
<text text-anchor="middle" x="982.38" y="-590.12" font-family="sans" font-size="10.00">samtools_dict</text>
</g>
<!-- 31&#45;&gt;30 -->
<g id="edge48" class="edge">
<title>31&#45;&gt;30</title>
<path fill="none" stroke="grey" stroke-width="2" d="M982.38,-575.34C982.38,-568.75 982.38,-561.08 982.38,-553.67"/>
<polygon fill="grey" stroke="grey" stroke-width="2" points="985.88,-553.93 982.38,-543.93 978.88,-553.93 985.88,-553.93"/>
</g>
<!-- 32&#45;&gt;26 -->
<g id="edge40" class="edge">
<title>32&#45;&gt;26</title>
<path fill="none" stroke="grey" stroke-width="2" d="M1082.98,-575.04C1090.18,-542.39 1099.96,-472.89 1065.38,-432 1046.86,-410.11 975.86,-395.49 921.49,-387.25"/>
<polygon fill="grey" stroke="grey" stroke-width="2" points="922.17,-383.81 911.77,-385.82 921.16,-390.73 922.17,-383.81"/>
</g>
</g>
</svg>
