<?xml version="1.0" encoding="UTF-8" standalone="no"?>
<!DOCTYPE svg PUBLIC "-//W3C//DTD SVG 1.1//EN"
 "http://www.w3.org/Graphics/SVG/1.1/DTD/svg11.dtd">
<!-- Generated by graphviz version 12.2.1 (20241206.2353)
 -->
<!-- Title: snakemake_dag Pages: 1 -->
<svg width="471pt" height="648pt"
 viewBox="0.00 0.00 470.50 648.25" xmlns="http://www.w3.org/2000/svg" xmlns:xlink="http://www.w3.org/1999/xlink">
<g id="graph0" class="graph" transform="scale(1 1) rotate(0) translate(4 644.25)">
<title>snakemake_dag</title>
<polygon fill="white" stroke="none" points="-4,4 -4,-644.25 466.5,-644.25 466.5,4 -4,4"/>
<!-- 0 -->
<g id="node1" class="node">
<title>0</title>
<path fill="none" stroke="#56d8a2" stroke-width="2" d="M168,-36C168,-36 138,-36 138,-36 132,-36 126,-30 126,-24 126,-24 126,-12 126,-12 126,-6 132,0 138,0 138,0 168,0 168,0 174,0 180,-6 180,-12 180,-12 180,-24 180,-24 180,-30 174,-36 168,-36"/>
<text text-anchor="middle" x="153" y="-14.12" font-family="sans" font-size="10.00">all</text>
</g>
<!-- 1 -->
<g id="node2" class="node">
<title>1</title>
<path fill="none" stroke="#d8a456" stroke-width="2" d="M125.38,-108C125.38,-108 54.62,-108 54.62,-108 48.62,-108 42.62,-102 42.62,-96 42.62,-96 42.62,-84 42.62,-84 42.62,-78 48.62,-72 54.62,-72 54.62,-72 125.38,-72 125.38,-72 131.38,-72 137.38,-78 137.38,-84 137.38,-84 137.38,-96 137.38,-96 137.38,-102 131.38,-108 125.38,-108"/>
<text text-anchor="middle" x="90" y="-86.12" font-family="sans" font-size="10.00">_copy_cnvkit_pon</text>
</g>
<!-- 1&#45;&gt;0 -->
<g id="edge1" class="edge">
<title>1&#45;&gt;0</title>
<path fill="none" stroke="grey" stroke-width="2" d="M105.9,-71.34C112.71,-63.77 120.82,-54.75 128.38,-46.35"/>
<polygon fill="grey" stroke="grey" stroke-width="2" points="130.78,-48.93 134.86,-39.15 125.57,-44.24 130.78,-48.93"/>
</g>
<!-- 2 -->
<g id="node3" class="node">
<title>2</title>
<path fill="none" stroke="#59d856" stroke-width="2" d="M136,-180C136,-180 12,-180 12,-180 6,-180 0,-174 0,-168 0,-168 0,-156 0,-156 0,-150 6,-144 12,-144 12,-144 136,-144 136,-144 142,-144 148,-150 148,-156 148,-156 148,-168 148,-168 148,-174 142,-180 136,-180"/>
<text text-anchor="middle" x="74" y="-158.12" font-family="sans" font-size="10.00">cnvkit_build_normal_reference</text>
</g>
<!-- 2&#45;&gt;1 -->
<g id="edge3" class="edge">
<title>2&#45;&gt;1</title>
<path fill="none" stroke="grey" stroke-width="2" d="M78.04,-143.34C79.56,-136.67 81.34,-128.89 83.05,-121.39"/>
<polygon fill="grey" stroke="grey" stroke-width="2" points="86.42,-122.38 85.23,-111.85 79.59,-120.82 86.42,-122.38"/>
</g>
<!-- 3 -->
<g id="node4" class="node">
<title>3</title>
<path fill="none" stroke="#9fd856" stroke-width="2" d="M114.88,-324C114.88,-324 29.12,-324 29.12,-324 23.12,-324 17.12,-318 17.12,-312 17.12,-312 17.12,-300 17.12,-300 17.12,-294 23.12,-288 29.12,-288 29.12,-288 114.88,-288 114.88,-288 120.88,-288 126.88,-294 126.88,-300 126.88,-300 126.88,-312 126.88,-312 126.88,-318 120.88,-324 114.88,-324"/>
<text text-anchor="middle" x="72" y="-302.12" font-family="sans" font-size="10.00">cnvkit_create_targets</text>
</g>
<!-- 3&#45;&gt;2 -->
<g id="edge4" class="edge">
<title>3&#45;&gt;2</title>
<path fill="none" stroke="grey" stroke-width="2" d="M45.47,-287.01C34.47,-277.94 22.91,-265.91 17,-252 10.74,-237.28 10.61,-230.67 17,-216 21.42,-205.85 28.85,-196.77 36.91,-189.11"/>
<polygon fill="grey" stroke="grey" stroke-width="2" points="38.96,-191.97 44.23,-182.78 34.38,-186.67 38.96,-191.97"/>
</g>
<!-- 4 -->
<g id="node5" class="node">
<title>4</title>
<path fill="none" stroke="#56a2d8" stroke-width="2" d="M144.38,-252C144.38,-252 37.62,-252 37.62,-252 31.63,-252 25.62,-246 25.62,-240 25.62,-240 25.62,-228 25.62,-228 25.62,-222 31.62,-216 37.62,-216 37.62,-216 144.38,-216 144.38,-216 150.38,-216 156.38,-222 156.38,-228 156.38,-228 156.38,-240 156.38,-240 156.38,-246 150.38,-252 144.38,-252"/>
<text text-anchor="middle" x="91" y="-230.12" font-family="sans" font-size="10.00">cnvkit_create_anti_targets</text>
</g>
<!-- 3&#45;&gt;4 -->
<g id="edge6" class="edge">
<title>3&#45;&gt;4</title>
<path fill="none" stroke="grey" stroke-width="2" d="M76.79,-287.34C78.6,-280.67 80.72,-272.89 82.75,-265.39"/>
<polygon fill="grey" stroke="grey" stroke-width="2" points="86.11,-266.39 85.35,-255.82 79.35,-264.56 86.11,-266.39"/>
</g>
<!-- 4&#45;&gt;2 -->
<g id="edge5" class="edge">
<title>4&#45;&gt;2</title>
<path fill="none" stroke="grey" stroke-width="2" d="M86.71,-215.34C85.09,-208.67 83.2,-200.89 81.38,-193.39"/>
<polygon fill="grey" stroke="grey" stroke-width="2" points="84.82,-192.73 79.06,-183.84 78.02,-194.39 84.82,-192.73"/>
</g>
<!-- 5 -->
<g id="node6" class="node">
<title>5</title>
<path fill="none" stroke="#d8c356" stroke-width="2" d="M275,-108C275,-108 175,-108 175,-108 169,-108 163,-102 163,-96 163,-96 163,-84 163,-84 163,-78 169,-72 175,-72 175,-72 275,-72 275,-72 281,-72 287,-78 287,-84 287,-84 287,-96 287,-96 287,-102 281,-108 275,-108"/>
<text text-anchor="middle" x="225" y="-86.12" font-family="sans" font-size="10.00">_copy_deepsomatic_pon</text>
</g>
<!-- 5&#45;&gt;0 -->
<g id="edge2" class="edge">
<title>5&#45;&gt;0</title>
<path fill="none" stroke="grey" stroke-width="2" d="M206.83,-71.34C198.88,-63.6 189.37,-54.36 180.57,-45.81"/>
<polygon fill="grey" stroke="grey" stroke-width="2" points="183.19,-43.47 173.58,-39.01 178.31,-48.49 183.19,-43.47"/>
</g>
<!-- 6 -->
<g id="node7" class="node">
<title>6</title>
<path fill="none" stroke="#56d87b" stroke-width="2" d="M287.88,-180C287.88,-180 178.12,-180 178.12,-180 172.12,-180 166.12,-174 166.12,-168 166.12,-168 166.12,-156 166.12,-156 166.12,-150 172.12,-144 178.12,-144 178.12,-144 287.88,-144 287.88,-144 293.88,-144 299.88,-150 299.88,-156 299.88,-156 299.88,-168 299.88,-168 299.88,-174 293.88,-180 287.88,-180"/>
<text text-anchor="middle" x="233" y="-158.12" font-family="sans" font-size="10.00">references_bcftools_merge</text>
</g>
<!-- 6&#45;&gt;5 -->
<g id="edge7" class="edge">
<title>6&#45;&gt;5</title>
<path fill="none" stroke="grey" stroke-width="2" d="M230.98,-143.34C230.23,-136.75 229.35,-129.08 228.5,-121.67"/>
<polygon fill="grey" stroke="grey" stroke-width="2" points="232,-121.45 227.39,-111.91 225.05,-122.24 232,-121.45"/>
</g>
<!-- 7 -->
<g id="node8" class="node">
<title>7</title>
<path fill="none" stroke="#78d856" stroke-width="2" d="M293.88,-324C293.88,-324 178.12,-324 178.12,-324 172.12,-324 166.12,-318 166.12,-312 166.12,-312 166.12,-300 166.12,-300 166.12,-294 172.12,-288 178.12,-288 178.12,-288 293.88,-288 293.88,-288 299.88,-288 305.88,-294 305.88,-300 305.88,-300 305.88,-312 305.88,-312 305.88,-318 299.88,-324 293.88,-324"/>
<text text-anchor="middle" x="236" y="-302.12" font-family="sans" font-size="10.00">annotation_whatshap_phase</text>
</g>
<!-- 7&#45;&gt;6 -->
<g id="edge8" class="edge">
<title>7&#45;&gt;6</title>
<path fill="none" stroke="grey" stroke-width="2" d="M235.62,-287.02C235.12,-263.54 234.25,-222.11 233.65,-193.64"/>
<polygon fill="grey" stroke="grey" stroke-width="2" points="237.15,-193.79 233.44,-183.86 230.15,-193.94 237.15,-193.79"/>
</g>
<!-- 13 -->
<g id="node14" class="node">
<title>13</title>
<path fill="none" stroke="#567bd8" stroke-width="2" d="M450.5,-252C450.5,-252 257.5,-252 257.5,-252 251.5,-252 245.5,-246 245.5,-240 245.5,-240 245.5,-228 245.5,-228 245.5,-222 251.5,-216 257.5,-216 257.5,-216 450.5,-216 450.5,-216 456.5,-216 462.5,-222 462.5,-228 462.5,-228 462.5,-240 462.5,-240 462.5,-246 456.5,-252 450.5,-252"/>
<text text-anchor="middle" x="354" y="-235.75" font-family="sans" font-size="10.00">cnv_sv_tabix</text>
<text text-anchor="middle" x="354" y="-224.5" font-family="sans" font-size="10.00">file: annotation/whatshap_phase/C259.phased</text>
</g>
<!-- 7&#45;&gt;13 -->
<g id="edge16" class="edge">
<title>7&#45;&gt;13</title>
<path fill="none" stroke="grey" stroke-width="2" d="M266.08,-287.15C280.37,-278.68 297.66,-268.42 313.11,-259.25"/>
<polygon fill="grey" stroke="grey" stroke-width="2" points="314.55,-262.47 321.37,-254.36 310.98,-256.45 314.55,-262.47"/>
</g>
<!-- 8 -->
<g id="node9" class="node">
<title>8</title>
<path fill="none" stroke="#56c9d8" stroke-width="2" d="M345.75,-396C345.75,-396 226.25,-396 226.25,-396 220.25,-396 214.25,-390 214.25,-384 214.25,-384 214.25,-372 214.25,-372 214.25,-366 220.25,-360 226.25,-360 226.25,-360 345.75,-360 345.75,-360 351.75,-360 357.75,-366 357.75,-372 357.75,-372 357.75,-384 357.75,-384 357.75,-390 351.75,-396 345.75,-396"/>
<text text-anchor="middle" x="286" y="-374.12" font-family="sans" font-size="10.00">references_deepsomatic_pon</text>
</g>
<!-- 8&#45;&gt;7 -->
<g id="edge10" class="edge">
<title>8&#45;&gt;7</title>
<path fill="none" stroke="grey" stroke-width="2" d="M273.38,-359.34C268.21,-352.1 262.09,-343.53 256.32,-335.45"/>
<polygon fill="grey" stroke="grey" stroke-width="2" points="259.21,-333.47 250.55,-327.37 253.51,-337.54 259.21,-333.47"/>
</g>
<!-- 9 -->
<g id="node10" class="node">
<title>9</title>
<path fill="none" stroke="#d85656" stroke-width="2" d="M287.88,-468C287.88,-468 184.12,-468 184.12,-468 178.12,-468 172.12,-462 172.12,-456 172.12,-456 172.12,-444 172.12,-444 172.12,-438 178.12,-432 184.12,-432 184.12,-432 287.88,-432 287.88,-432 293.88,-432 299.88,-438 299.88,-444 299.88,-444 299.88,-456 299.88,-456 299.88,-462 293.88,-468 287.88,-468"/>
<text text-anchor="middle" x="236" y="-446.12" font-family="sans" font-size="10.00">alignment_pbmm2_merge</text>
</g>
<!-- 9&#45;&gt;7 -->
<g id="edge11" class="edge">
<title>9&#45;&gt;7</title>
<path fill="none" stroke="grey" stroke-width="2" d="M222.53,-431.43C215.84,-421.59 208.46,-408.76 205,-396 200.82,-380.56 200.82,-375.44 205,-360 207.3,-351.53 211.32,-343.02 215.73,-335.38"/>
<polygon fill="grey" stroke="grey" stroke-width="2" points="218.56,-337.46 220.92,-327.13 212.63,-333.73 218.56,-337.46"/>
</g>
<!-- 9&#45;&gt;8 -->
<g id="edge12" class="edge">
<title>9&#45;&gt;8</title>
<path fill="none" stroke="grey" stroke-width="2" d="M248.62,-431.34C253.79,-424.1 259.91,-415.53 265.68,-407.45"/>
<polygon fill="grey" stroke="grey" stroke-width="2" points="268.49,-409.54 271.45,-399.37 262.79,-405.47 268.49,-409.54"/>
</g>
<!-- 10 -->
<g id="node11" class="node">
<title>10</title>
<path fill="none" stroke="#d87d56" stroke-width="2" d="M284.5,-540C284.5,-540 187.5,-540 187.5,-540 181.5,-540 175.5,-534 175.5,-528 175.5,-528 175.5,-516 175.5,-516 175.5,-510 181.5,-504 187.5,-504 187.5,-504 284.5,-504 284.5,-504 290.5,-504 296.5,-510 296.5,-516 296.5,-516 296.5,-528 296.5,-528 296.5,-534 290.5,-540 284.5,-540"/>
<text text-anchor="middle" x="236" y="-518.12" font-family="sans" font-size="10.00">alignment_pbmm2_align</text>
</g>
<!-- 10&#45;&gt;9 -->
<g id="edge13" class="edge">
<title>10&#45;&gt;9</title>
<path fill="none" stroke="grey" stroke-width="2" d="M236,-503.34C236,-496.75 236,-489.08 236,-481.67"/>
<polygon fill="grey" stroke="grey" stroke-width="2" points="239.5,-481.93 236,-471.93 232.5,-481.93 239.5,-481.93"/>
</g>
<!-- 11 -->
<g id="node12" class="node">
<title>11</title>
<path fill="none" stroke="#56d8c9" stroke-width="2" d="M238,-640.25C238,-640.25 48,-640.25 48,-640.25 42,-640.25 36,-634.25 36,-628.25 36,-628.25 36,-588 36,-588 36,-582 42,-576 48,-576 48,-576 238,-576 238,-576 244,-576 250,-582 250,-588 250,-588 250,-628.25 250,-628.25 250,-634.25 244,-640.25 238,-640.25"/>
<text text-anchor="middle" x="143" y="-626.75" font-family="sans" font-size="10.00">prealignment_pbmarkdup</text>
<text text-anchor="middle" x="143" y="-615.5" font-family="sans" font-size="10.00">barcode: NAS</text>
<text text-anchor="middle" x="143" y="-604.25" font-family="sans" font-size="10.00">processing_unit: m84045_231122_151755_s3</text>
<text text-anchor="middle" x="143" y="-593" font-family="sans" font-size="10.00">sample: C259</text>
<text text-anchor="middle" x="143" y="-581.75" font-family="sans" font-size="10.00">type: N</text>
</g>
<!-- 11&#45;&gt;10 -->
<g id="edge14" class="edge">
<title>11&#45;&gt;10</title>
<path fill="none" stroke="grey" stroke-width="2" d="M178.42,-575.08C187.75,-566.65 197.7,-557.64 206.67,-549.53"/>
<polygon fill="grey" stroke="grey" stroke-width="2" points="208.97,-552.17 214.04,-542.87 204.27,-546.98 208.97,-552.17"/>
</g>
<!-- 12 -->
<g id="node13" class="node">
<title>12</title>
<path fill="none" stroke="#c6d856" stroke-width="2" d="M380,-626.12C380,-626.12 280,-626.12 280,-626.12 274,-626.12 268,-620.12 268,-614.12 268,-614.12 268,-602.12 268,-602.12 268,-596.12 274,-590.12 280,-590.12 280,-590.12 380,-590.12 380,-590.12 386,-590.12 392,-596.12 392,-602.12 392,-602.12 392,-614.12 392,-614.12 392,-620.12 386,-626.12 380,-626.12"/>
<text text-anchor="middle" x="330" y="-604.25" font-family="sans" font-size="10.00">alignment_pbmm2_index</text>
</g>
<!-- 12&#45;&gt;10 -->
<g id="edge15" class="edge">
<title>12&#45;&gt;10</title>
<path fill="none" stroke="grey" stroke-width="2" d="M310.07,-589.28C297.1,-577.68 279.98,-562.36 265.46,-549.36"/>
<polygon fill="grey" stroke="grey" stroke-width="2" points="267.95,-546.89 258.16,-542.83 263.28,-552.11 267.95,-546.89"/>
</g>
<!-- 13&#45;&gt;6 -->
<g id="edge9" class="edge">
<title>13&#45;&gt;6</title>
<path fill="none" stroke="grey" stroke-width="2" d="M323.15,-215.15C308.5,-206.68 290.77,-196.42 274.93,-187.25"/>
<polygon fill="grey" stroke="grey" stroke-width="2" points="276.82,-184.31 266.41,-182.33 273.31,-190.37 276.82,-184.31"/>
</g>
</g>
</svg>
