<?xml version="1.0" encoding="UTF-8" standalone="no"?>
<!DOCTYPE svg PUBLIC "-//W3C//DTD SVG 1.1//EN"
 "http://www.w3.org/Graphics/SVG/1.1/DTD/svg11.dtd">
<!-- Generated by graphviz version 12.2.1 (20241206.2353)
 -->
<!-- Title: snakemake_dag Pages: 1 -->
<svg width="318pt" height="332pt"
 viewBox="0.00 0.00 317.75 332.00" xmlns="http://www.w3.org/2000/svg" xmlns:xlink="http://www.w3.org/1999/xlink">
<g id="graph0" class="graph" transform="scale(1 1) rotate(0) translate(4 328)">
<title>snakemake_dag</title>
<polygon fill="white" stroke="none" points="-4,4 -4,-328 313.75,-328 313.75,4 -4,4"/>
<!-- 0 -->
<g id="node1" class="node">
<title>0</title>
<path fill="none" stroke="#ced856" stroke-width="2" d="M171,-36C171,-36 141,-36 141,-36 135,-36 129,-30 129,-24 129,-24 129,-12 129,-12 129,-6 135,0 141,0 141,0 171,0 171,0 177,0 183,-6 183,-12 183,-12 183,-24 183,-24 183,-30 177,-36 171,-36"/>
<text text-anchor="middle" x="156" y="-14.12" font-family="sans" font-size="10.00">all</text>
</g>
<!-- 1 -->
<g id="node2" class="node">
<title>1</title>
<path fill="none" stroke="#88d856" stroke-width="2" d="M137.38,-108C137.38,-108 66.62,-108 66.62,-108 60.62,-108 54.62,-102 54.62,-96 54.62,-96 54.62,-84 54.62,-84 54.62,-78 60.62,-72 66.62,-72 66.62,-72 137.38,-72 137.38,-72 143.38,-72 149.38,-78 149.38,-84 149.38,-84 149.38,-96 149.38,-96 149.38,-102 143.38,-108 137.38,-108"/>
<text text-anchor="middle" x="102" y="-86.12" font-family="sans" font-size="10.00">_copy_cnvkit_pon</text>
</g>
<!-- 1&#45;&gt;0 -->
<g id="edge1" class="edge">
<title>1&#45;&gt;0</title>
<path fill="none" stroke="grey" stroke-width="2" d="M115.63,-71.34C121.27,-64.01 127.97,-55.34 134.26,-47.18"/>
<polygon fill="grey" stroke="grey" stroke-width="2" points="137,-49.35 140.34,-39.3 131.46,-45.08 137,-49.35"/>
</g>
<!-- 2 -->
<g id="node3" class="node">
<title>2</title>
<path fill="none" stroke="#56d88a" stroke-width="2" d="M136,-180C136,-180 12,-180 12,-180 6,-180 0,-174 0,-168 0,-168 0,-156 0,-156 0,-150 6,-144 12,-144 12,-144 136,-144 136,-144 142,-144 148,-150 148,-156 148,-156 148,-168 148,-168 148,-174 142,-180 136,-180"/>
<text text-anchor="middle" x="74" y="-158.12" font-family="sans" font-size="10.00">cnvkit_build_normal_reference</text>
</g>
<!-- 2&#45;&gt;1 -->
<g id="edge3" class="edge">
<title>2&#45;&gt;1</title>
<path fill="none" stroke="grey" stroke-width="2" d="M81.07,-143.34C83.8,-136.51 87,-128.5 90.07,-120.83"/>
<polygon fill="grey" stroke="grey" stroke-width="2" points="93.25,-122.3 93.72,-111.71 86.75,-119.7 93.25,-122.3"/>
</g>
<!-- 3 -->
<g id="node4" class="node">
<title>3</title>
<path fill="none" stroke="#d89c56" stroke-width="2" d="M116.88,-324C116.88,-324 31.12,-324 31.12,-324 25.12,-324 19.12,-318 19.12,-312 19.12,-312 19.12,-300 19.12,-300 19.12,-294 25.12,-288 31.12,-288 31.12,-288 116.88,-288 116.88,-288 122.88,-288 128.88,-294 128.88,-300 128.88,-300 128.88,-312 128.88,-312 128.88,-318 122.88,-324 116.88,-324"/>
<text text-anchor="middle" x="74" y="-302.12" font-family="sans" font-size="10.00">cnvkit_create_targets</text>
</g>
<!-- 3&#45;&gt;2 -->
<g id="edge4" class="edge">
<title>3&#45;&gt;2</title>
<path fill="none" stroke="grey" stroke-width="2" d="M62.25,-287.19C56.42,-277.28 49.99,-264.45 47,-252 43.27,-236.44 43.27,-231.56 47,-216 48.94,-207.93 52.32,-199.7 56.05,-192.2"/>
<polygon fill="grey" stroke="grey" stroke-width="2" points="59.1,-193.93 60.8,-183.47 52.95,-190.58 59.1,-193.93"/>
</g>
<!-- 4 -->
<g id="node5" class="node">
<title>4</title>
<path fill="none" stroke="#d87556" stroke-width="2" d="M174.38,-252C174.38,-252 67.62,-252 67.62,-252 61.63,-252 55.62,-246 55.62,-240 55.62,-240 55.62,-228 55.62,-228 55.62,-222 61.62,-216 67.62,-216 67.62,-216 174.38,-216 174.38,-216 180.38,-216 186.38,-222 186.38,-228 186.38,-228 186.38,-240 186.38,-240 186.38,-246 180.38,-252 174.38,-252"/>
<text text-anchor="middle" x="121" y="-230.12" font-family="sans" font-size="10.00">cnvkit_create_anti_targets</text>
</g>
<!-- 3&#45;&gt;4 -->
<g id="edge6" class="edge">
<title>3&#45;&gt;4</title>
<path fill="none" stroke="grey" stroke-width="2" d="M85.86,-287.34C90.72,-280.1 96.47,-271.53 101.9,-263.45"/>
<polygon fill="grey" stroke="grey" stroke-width="2" points="104.62,-265.67 107.29,-255.41 98.81,-261.77 104.62,-265.67"/>
</g>
<!-- 4&#45;&gt;2 -->
<g id="edge5" class="edge">
<title>4&#45;&gt;2</title>
<path fill="none" stroke="grey" stroke-width="2" d="M109.14,-215.34C104.28,-208.1 98.53,-199.53 93.1,-191.45"/>
<polygon fill="grey" stroke="grey" stroke-width="2" points="96.19,-189.77 87.71,-183.41 90.38,-193.67 96.19,-189.77"/>
</g>
<!-- 5 -->
<g id="node6" class="node">
<title>5</title>
<path fill="none" stroke="#afd856" stroke-width="2" d="M254.12,-108C254.12,-108 193.88,-108 193.88,-108 187.88,-108 181.88,-102 181.88,-96 181.88,-96 181.88,-84 181.88,-84 181.88,-78 187.88,-72 193.88,-72 193.88,-72 254.12,-72 254.12,-72 260.12,-72 266.12,-78 266.12,-84 266.12,-84 266.12,-96 266.12,-96 266.12,-102 260.12,-108 254.12,-108"/>
<text text-anchor="middle" x="224" y="-86.12" font-family="sans" font-size="10.00">_copy_snv_pon</text>
</g>
<!-- 5&#45;&gt;0 -->
<g id="edge2" class="edge">
<title>5&#45;&gt;0</title>
<path fill="none" stroke="grey" stroke-width="2" d="M206.84,-71.34C199.41,-63.69 190.54,-54.56 182.31,-46.08"/>
<polygon fill="grey" stroke="grey" stroke-width="2" points="184.98,-43.81 175.5,-39.07 179.96,-48.68 184.98,-43.81"/>
</g>
<!-- 6 -->
<g id="node7" class="node">
<title>6</title>
<path fill="none" stroke="#d85656" stroke-width="2" d="M297.75,-180C297.75,-180 178.25,-180 178.25,-180 172.25,-180 166.25,-174 166.25,-168 166.25,-168 166.25,-156 166.25,-156 166.25,-150 172.25,-144 178.25,-144 178.25,-144 297.75,-144 297.75,-144 303.75,-144 309.75,-150 309.75,-156 309.75,-156 309.75,-168 309.75,-168 309.75,-174 303.75,-180 297.75,-180"/>
<text text-anchor="middle" x="238" y="-163.75" font-family="sans" font-size="10.00">references_deepsomatic_pon</text>
<text text-anchor="middle" x="238" y="-152.5" font-family="sans" font-size="10.00">sample: C259</text>
</g>
<!-- 6&#45;&gt;5 -->
<g id="edge7" class="edge">
<title>6&#45;&gt;5</title>
<path fill="none" stroke="grey" stroke-width="2" d="M234.47,-143.34C233.15,-136.75 231.62,-129.08 230.13,-121.67"/>
<polygon fill="grey" stroke="grey" stroke-width="2" points="233.57,-120.99 228.17,-111.87 226.7,-122.36 233.57,-120.99"/>
</g>
</g>
</svg>
