<?xml version="1.0" encoding="UTF-8" standalone="no"?>
<!DOCTYPE svg PUBLIC "-//W3C//DTD SVG 1.1//EN"
 "http://www.w3.org/Graphics/SVG/1.1/DTD/svg11.dtd">
<!-- Generated by graphviz version 12.2.1 (20241206.2353)
 -->
<!-- Title: snakemake_dag Pages: 1 -->
<svg width="373pt" height="692pt"
 viewBox="0.00 0.00 372.75 692.00" xmlns="http://www.w3.org/2000/svg" xmlns:xlink="http://www.w3.org/1999/xlink">
<g id="graph0" class="graph" transform="scale(1 1) rotate(0) translate(4 688)">
<title>snakemake_dag</title>
<polygon fill="white" stroke="none" points="-4,4 -4,-688 368.75,-688 368.75,4 -4,4"/>
<!-- 0 -->
<g id="node1" class="node">
<title>0</title>
<path fill="none" stroke="#88d856" stroke-width="2" d="M168,-36C168,-36 138,-36 138,-36 132,-36 126,-30 126,-24 126,-24 126,-12 126,-12 126,-6 132,0 138,0 138,0 168,0 168,0 174,0 180,-6 180,-12 180,-12 180,-24 180,-24 180,-30 174,-36 168,-36"/>
<text text-anchor="middle" x="153" y="-14.12" font-family="sans" font-size="10.00">all</text>
</g>
<!-- 1 -->
<g id="node2" class="node">
<title>1</title>
<path fill="none" stroke="#d85656" stroke-width="2" d="M125.38,-108C125.38,-108 54.62,-108 54.62,-108 48.62,-108 42.62,-102 42.62,-96 42.62,-96 42.62,-84 42.62,-84 42.62,-78 48.62,-72 54.62,-72 54.62,-72 125.38,-72 125.38,-72 131.38,-72 137.38,-78 137.38,-84 137.38,-84 137.38,-96 137.38,-96 137.38,-102 131.38,-108 125.38,-108"/>
<text text-anchor="middle" x="90" y="-86.12" font-family="sans" font-size="10.00">_copy_cnvkit_pon</text>
</g>
<!-- 1&#45;&gt;0 -->
<g id="edge2" class="edge">
<title>1&#45;&gt;0</title>
<path fill="none" stroke="grey" stroke-width="2" d="M105.9,-71.34C112.71,-63.77 120.82,-54.75 128.38,-46.35"/>
<polygon fill="grey" stroke="grey" stroke-width="2" points="130.78,-48.93 134.86,-39.15 125.57,-44.24 130.78,-48.93"/>
</g>
<!-- 2 -->
<g id="node3" class="node">
<title>2</title>
<path fill="none" stroke="#56d88a" stroke-width="2" d="M136,-180C136,-180 12,-180 12,-180 6,-180 0,-174 0,-168 0,-168 0,-156 0,-156 0,-150 6,-144 12,-144 12,-144 136,-144 136,-144 142,-144 148,-150 148,-156 148,-156 148,-168 148,-168 148,-174 142,-180 136,-180"/>
<text text-anchor="middle" x="74" y="-158.12" font-family="sans" font-size="10.00">cnvkit_build_normal_reference</text>
</g>
<!-- 2&#45;&gt;1 -->
<g id="edge3" class="edge">
<title>2&#45;&gt;1</title>
<path fill="none" stroke="grey" stroke-width="2" d="M78.04,-143.34C79.56,-136.67 81.34,-128.89 83.05,-121.39"/>
<polygon fill="grey" stroke="grey" stroke-width="2" points="86.42,-122.38 85.23,-111.85 79.59,-120.82 86.42,-122.38"/>
</g>
<!-- 3 -->
<g id="node4" class="node">
<title>3</title>
<path fill="none" stroke="#56d8d0" stroke-width="2" d="M114.88,-324C114.88,-324 29.12,-324 29.12,-324 23.12,-324 17.12,-318 17.12,-312 17.12,-312 17.12,-300 17.12,-300 17.12,-294 23.12,-288 29.12,-288 29.12,-288 114.88,-288 114.88,-288 120.88,-288 126.88,-294 126.88,-300 126.88,-300 126.88,-312 126.88,-312 126.88,-318 120.88,-324 114.88,-324"/>
<text text-anchor="middle" x="72" y="-302.12" font-family="sans" font-size="10.00">cnvkit_create_targets</text>
</g>
<!-- 3&#45;&gt;2 -->
<g id="edge5" class="edge">
<title>3&#45;&gt;2</title>
<path fill="none" stroke="grey" stroke-width="2" d="M45.47,-287.01C34.47,-277.94 22.91,-265.91 17,-252 10.74,-237.28 10.61,-230.67 17,-216 21.42,-205.85 28.85,-196.77 36.91,-189.11"/>
<polygon fill="grey" stroke="grey" stroke-width="2" points="38.96,-191.97 44.23,-182.78 34.38,-186.67 38.96,-191.97"/>
</g>
<!-- 4 -->
<g id="node5" class="node">
<title>4</title>
<path fill="none" stroke="#56d8a9" stroke-width="2" d="M144.38,-252C144.38,-252 37.62,-252 37.62,-252 31.63,-252 25.62,-246 25.62,-240 25.62,-240 25.62,-228 25.62,-228 25.62,-222 31.62,-216 37.62,-216 37.62,-216 144.38,-216 144.38,-216 150.38,-216 156.38,-222 156.38,-228 156.38,-228 156.38,-240 156.38,-240 156.38,-246 150.38,-252 144.38,-252"/>
<text text-anchor="middle" x="91" y="-230.12" font-family="sans" font-size="10.00">cnvkit_create_anti_targets</text>
</g>
<!-- 3&#45;&gt;4 -->
<g id="edge6" class="edge">
<title>3&#45;&gt;4</title>
<path fill="none" stroke="grey" stroke-width="2" d="M76.79,-287.34C78.6,-280.67 80.72,-272.89 82.75,-265.39"/>
<polygon fill="grey" stroke="grey" stroke-width="2" points="86.11,-266.39 85.35,-255.82 79.35,-264.56 86.11,-266.39"/>
</g>
<!-- 4&#45;&gt;2 -->
<g id="edge4" class="edge">
<title>4&#45;&gt;2</title>
<path fill="none" stroke="grey" stroke-width="2" d="M86.71,-215.34C85.09,-208.67 83.2,-200.89 81.38,-193.39"/>
<polygon fill="grey" stroke="grey" stroke-width="2" points="84.82,-192.73 79.06,-183.84 78.02,-194.39 84.82,-192.73"/>
</g>
<!-- 5 -->
<g id="node6" class="node">
<title>5</title>
<path fill="none" stroke="#d87556" stroke-width="2" d="M275,-108C275,-108 175,-108 175,-108 169,-108 163,-102 163,-96 163,-96 163,-84 163,-84 163,-78 169,-72 175,-72 175,-72 275,-72 275,-72 281,-72 287,-78 287,-84 287,-84 287,-96 287,-96 287,-102 281,-108 275,-108"/>
<text text-anchor="middle" x="225" y="-86.12" font-family="sans" font-size="10.00">_copy_deepsomatic_pon</text>
</g>
<!-- 5&#45;&gt;0 -->
<g id="edge1" class="edge">
<title>5&#45;&gt;0</title>
<path fill="none" stroke="grey" stroke-width="2" d="M206.83,-71.34C198.88,-63.6 189.37,-54.36 180.57,-45.81"/>
<polygon fill="grey" stroke="grey" stroke-width="2" points="183.19,-43.47 173.58,-39.01 178.31,-48.49 183.19,-43.47"/>
</g>
<!-- 6 -->
<g id="node7" class="node">
<title>6</title>
<path fill="none" stroke="#569ad8" stroke-width="2" d="M287.88,-180C287.88,-180 178.12,-180 178.12,-180 172.12,-180 166.12,-174 166.12,-168 166.12,-168 166.12,-156 166.12,-156 166.12,-150 172.12,-144 178.12,-144 178.12,-144 287.88,-144 287.88,-144 293.88,-144 299.88,-150 299.88,-156 299.88,-156 299.88,-168 299.88,-168 299.88,-174 293.88,-180 287.88,-180"/>
<text text-anchor="middle" x="233" y="-158.12" font-family="sans" font-size="10.00">references_bcftools_merge</text>
</g>
<!-- 6&#45;&gt;5 -->
<g id="edge7" class="edge">
<title>6&#45;&gt;5</title>
<path fill="none" stroke="grey" stroke-width="2" d="M230.98,-143.34C230.23,-136.75 229.35,-129.08 228.5,-121.67"/>
<polygon fill="grey" stroke="grey" stroke-width="2" points="232,-121.45 227.39,-111.91 225.05,-122.24 232,-121.45"/>
</g>
<!-- 7 -->
<g id="node8" class="node">
<title>7</title>
<path fill="none" stroke="#68d856" stroke-width="2" d="M293.88,-324C293.88,-324 178.12,-324 178.12,-324 172.12,-324 166.12,-318 166.12,-312 166.12,-312 166.12,-300 166.12,-300 166.12,-294 172.12,-288 178.12,-288 178.12,-288 293.88,-288 293.88,-288 299.88,-288 305.88,-294 305.88,-300 305.88,-300 305.88,-312 305.88,-312 305.88,-318 299.88,-324 293.88,-324"/>
<text text-anchor="middle" x="236" y="-302.12" font-family="sans" font-size="10.00">annotation_whatshap_phase</text>
</g>
<!-- 7&#45;&gt;6 -->
<g id="edge9" class="edge">
<title>7&#45;&gt;6</title>
<path fill="none" stroke="grey" stroke-width="2" d="M235.62,-287.02C235.12,-263.54 234.25,-222.11 233.65,-193.64"/>
<polygon fill="grey" stroke="grey" stroke-width="2" points="237.15,-193.79 233.44,-183.86 230.15,-193.94 237.15,-193.79"/>
</g>
<!-- 14 -->
<g id="node15" class="node">
<title>14</title>
<path fill="none" stroke="#56d86b" stroke-width="2" d="M306.88,-252C306.88,-252 257.12,-252 257.12,-252 251.12,-252 245.12,-246 245.12,-240 245.12,-240 245.12,-228 245.12,-228 245.12,-222 251.12,-216 257.12,-216 257.12,-216 306.88,-216 306.88,-216 312.88,-216 318.88,-222 318.88,-228 318.88,-228 318.88,-240 318.88,-240 318.88,-246 312.88,-252 306.88,-252"/>
<text text-anchor="middle" x="282" y="-230.12" font-family="sans" font-size="10.00">cnv_sv_tabix</text>
</g>
<!-- 7&#45;&gt;14 -->
<g id="edge19" class="edge">
<title>7&#45;&gt;14</title>
<path fill="none" stroke="grey" stroke-width="2" d="M247.61,-287.34C252.31,-280.18 257.87,-271.73 263.12,-263.73"/>
<polygon fill="grey" stroke="grey" stroke-width="2" points="266.01,-265.71 268.57,-255.43 260.16,-261.87 266.01,-265.71"/>
</g>
<!-- 8 -->
<g id="node9" class="node">
<title>8</title>
<path fill="none" stroke="#567bd8" stroke-width="2" d="M295.75,-396C295.75,-396 176.25,-396 176.25,-396 170.25,-396 164.25,-390 164.25,-384 164.25,-384 164.25,-372 164.25,-372 164.25,-366 170.25,-360 176.25,-360 176.25,-360 295.75,-360 295.75,-360 301.75,-360 307.75,-366 307.75,-372 307.75,-372 307.75,-384 307.75,-384 307.75,-390 301.75,-396 295.75,-396"/>
<text text-anchor="middle" x="236" y="-374.12" font-family="sans" font-size="10.00">references_deepsomatic_pon</text>
</g>
<!-- 8&#45;&gt;7 -->
<g id="edge12" class="edge">
<title>8&#45;&gt;7</title>
<path fill="none" stroke="grey" stroke-width="2" d="M236,-359.34C236,-352.75 236,-345.08 236,-337.67"/>
<polygon fill="grey" stroke="grey" stroke-width="2" points="239.5,-337.93 236,-327.93 232.5,-337.93 239.5,-337.93"/>
</g>
<!-- 9 -->
<g id="node10" class="node">
<title>9</title>
<path fill="none" stroke="#ced856" stroke-width="2" d="M256.88,-540C256.88,-540 153.12,-540 153.12,-540 147.12,-540 141.12,-534 141.12,-528 141.12,-528 141.12,-516 141.12,-516 141.12,-510 147.12,-504 153.12,-504 153.12,-504 256.88,-504 256.88,-504 262.88,-504 268.88,-510 268.88,-516 268.88,-516 268.88,-528 268.88,-528 268.88,-534 262.88,-540 256.88,-540"/>
<text text-anchor="middle" x="205" y="-518.12" font-family="sans" font-size="10.00">alignment_pbmm2_merge</text>
</g>
<!-- 9&#45;&gt;7 -->
<g id="edge11" class="edge">
<title>9&#45;&gt;7</title>
<path fill="none" stroke="grey" stroke-width="2" d="M190.75,-503.2C168.06,-472.54 128.83,-408.4 155,-360 161.17,-348.58 171,-339.23 181.71,-331.73"/>
<polygon fill="grey" stroke="grey" stroke-width="2" points="183.46,-334.76 190.05,-326.47 179.72,-328.84 183.46,-334.76"/>
</g>
<!-- 9&#45;&gt;8 -->
<g id="edge14" class="edge">
<title>9&#45;&gt;8</title>
<path fill="none" stroke="grey" stroke-width="2" d="M208.72,-503.26C212.51,-485.28 218.57,-456.69 224,-432 225.62,-424.63 227.4,-416.69 229.08,-409.26"/>
<polygon fill="grey" stroke="grey" stroke-width="2" points="232.47,-410.13 231.27,-399.61 225.65,-408.58 232.47,-410.13"/>
</g>
<!-- 13 -->
<g id="node14" class="node">
<title>13</title>
<path fill="none" stroke="#afd856" stroke-width="2" d="M352.75,-468C352.75,-468 245.25,-468 245.25,-468 239.25,-468 233.25,-462 233.25,-456 233.25,-456 233.25,-444 233.25,-444 233.25,-438 239.25,-432 245.25,-432 245.25,-432 352.75,-432 352.75,-432 358.75,-432 364.75,-438 364.75,-444 364.75,-444 364.75,-456 364.75,-456 364.75,-462 358.75,-468 352.75,-468"/>
<text text-anchor="middle" x="299" y="-446.12" font-family="sans" font-size="10.00">alignment_samtools_index</text>
</g>
<!-- 9&#45;&gt;13 -->
<g id="edge18" class="edge">
<title>9&#45;&gt;13</title>
<path fill="none" stroke="grey" stroke-width="2" d="M228.72,-503.34C239.66,-495.19 252.84,-485.37 264.83,-476.45"/>
<polygon fill="grey" stroke="grey" stroke-width="2" points="266.6,-479.49 272.53,-470.71 262.42,-473.88 266.6,-479.49"/>
</g>
<!-- 10 -->
<g id="node11" class="node">
<title>10</title>
<path fill="none" stroke="#d89c56" stroke-width="2" d="M253.5,-612C253.5,-612 156.5,-612 156.5,-612 150.5,-612 144.5,-606 144.5,-600 144.5,-600 144.5,-588 144.5,-588 144.5,-582 150.5,-576 156.5,-576 156.5,-576 253.5,-576 253.5,-576 259.5,-576 265.5,-582 265.5,-588 265.5,-588 265.5,-600 265.5,-600 265.5,-606 259.5,-612 253.5,-612"/>
<text text-anchor="middle" x="205" y="-590.12" font-family="sans" font-size="10.00">alignment_pbmm2_align</text>
</g>
<!-- 10&#45;&gt;9 -->
<g id="edge15" class="edge">
<title>10&#45;&gt;9</title>
<path fill="none" stroke="grey" stroke-width="2" d="M205,-575.34C205,-568.75 205,-561.08 205,-553.67"/>
<polygon fill="grey" stroke="grey" stroke-width="2" points="208.5,-553.93 205,-543.93 201.5,-553.93 208.5,-553.93"/>
</g>
<!-- 11 -->
<g id="node12" class="node">
<title>11</title>
<path fill="none" stroke="#56c1d8" stroke-width="2" d="M184.38,-684C184.38,-684 83.62,-684 83.62,-684 77.62,-684 71.62,-678 71.62,-672 71.62,-672 71.62,-660 71.62,-660 71.62,-654 77.62,-648 83.62,-648 83.62,-648 184.38,-648 184.38,-648 190.38,-648 196.38,-654 196.38,-660 196.38,-660 196.38,-672 196.38,-672 196.38,-678 190.38,-684 184.38,-684"/>
<text text-anchor="middle" x="134" y="-662.12" font-family="sans" font-size="10.00">prealignment_pbmarkdup</text>
</g>
<!-- 11&#45;&gt;10 -->
<g id="edge16" class="edge">
<title>11&#45;&gt;10</title>
<path fill="none" stroke="grey" stroke-width="2" d="M151.92,-647.34C159.76,-639.6 169.14,-630.36 177.81,-621.81"/>
<polygon fill="grey" stroke="grey" stroke-width="2" points="180.02,-624.54 184.69,-615.03 175.11,-619.56 180.02,-624.54"/>
</g>
<!-- 12 -->
<g id="node13" class="node">
<title>12</title>
<path fill="none" stroke="#d8bc56" stroke-width="2" d="M326,-684C326,-684 226,-684 226,-684 220,-684 214,-678 214,-672 214,-672 214,-660 214,-660 214,-654 220,-648 226,-648 226,-648 326,-648 326,-648 332,-648 338,-654 338,-660 338,-660 338,-672 338,-672 338,-678 332,-684 326,-684"/>
<text text-anchor="middle" x="276" y="-662.12" font-family="sans" font-size="10.00">alignment_pbmm2_index</text>
</g>
<!-- 12&#45;&gt;10 -->
<g id="edge17" class="edge">
<title>12&#45;&gt;10</title>
<path fill="none" stroke="grey" stroke-width="2" d="M258.08,-647.34C250.24,-639.6 240.86,-630.36 232.19,-621.81"/>
<polygon fill="grey" stroke="grey" stroke-width="2" points="234.89,-619.56 225.31,-615.03 229.98,-624.54 234.89,-619.56"/>
</g>
<!-- 13&#45;&gt;7 -->
<g id="edge10" class="edge">
<title>13&#45;&gt;7</title>
<path fill="none" stroke="grey" stroke-width="2" d="M309.24,-431.25C318.58,-412.5 329.22,-382.6 317,-360 310.83,-348.58 301,-339.23 290.29,-331.73"/>
<polygon fill="grey" stroke="grey" stroke-width="2" points="292.28,-328.84 281.95,-326.47 288.54,-334.76 292.28,-328.84"/>
</g>
<!-- 13&#45;&gt;8 -->
<g id="edge13" class="edge">
<title>13&#45;&gt;8</title>
<path fill="none" stroke="grey" stroke-width="2" d="M283.1,-431.34C276.29,-423.77 268.18,-414.75 260.62,-406.35"/>
<polygon fill="grey" stroke="grey" stroke-width="2" points="263.43,-404.24 254.14,-399.15 258.22,-408.93 263.43,-404.24"/>
</g>
<!-- 14&#45;&gt;6 -->
<g id="edge8" class="edge">
<title>14&#45;&gt;6</title>
<path fill="none" stroke="grey" stroke-width="2" d="M269.64,-215.34C264.57,-208.1 258.57,-199.53 252.92,-191.45"/>
<polygon fill="grey" stroke="grey" stroke-width="2" points="255.87,-189.57 247.27,-183.38 250.13,-193.58 255.87,-189.57"/>
</g>
</g>
</svg>
