<?xml version="1.0" encoding="UTF-8" standalone="no"?>
<!DOCTYPE svg PUBLIC "-//W3C//DTD SVG 1.1//EN"
 "http://www.w3.org/Graphics/SVG/1.1/DTD/svg11.dtd">
<!-- Generated by graphviz version 12.2.1 (20241206.2353)
 -->
<!-- Title: snakemake_dag Pages: 1 -->
<svg width="1341pt" height="764pt"
 viewBox="0.00 0.00 1341.12 764.00" xmlns="http://www.w3.org/2000/svg" xmlns:xlink="http://www.w3.org/1999/xlink">
<g id="graph0" class="graph" transform="scale(1 1) rotate(0) translate(4 760)">
<title>snakemake_dag</title>
<polygon fill="white" stroke="none" points="-4,4 -4,-760 1337.12,-760 1337.12,4 -4,4"/>
<!-- 0 -->
<g id="node1" class="node">
<title>0</title>
<path fill="none" stroke="#d8d356" stroke-width="2" d="M436.5,-36C436.5,-36 406.5,-36 406.5,-36 400.5,-36 394.5,-30 394.5,-24 394.5,-24 394.5,-12 394.5,-12 394.5,-6 400.5,0 406.5,0 406.5,0 436.5,0 436.5,0 442.5,0 448.5,-6 448.5,-12 448.5,-12 448.5,-24 448.5,-24 448.5,-30 442.5,-36 436.5,-36"/>
<text text-anchor="middle" x="421.5" y="-14.12" font-family="sans" font-size="10.00">all</text>
</g>
<!-- 1 -->
<g id="node2" class="node">
<title>1</title>
<path fill="none" stroke="#d86656" stroke-width="2" d="M289.88,-108C289.88,-108 219.12,-108 219.12,-108 213.12,-108 207.12,-102 207.12,-96 207.12,-96 207.12,-84 207.12,-84 207.12,-78 213.12,-72 219.12,-72 219.12,-72 289.88,-72 289.88,-72 295.88,-72 301.88,-78 301.88,-84 301.88,-84 301.88,-96 301.88,-96 301.88,-102 295.88,-108 289.88,-108"/>
<text text-anchor="middle" x="254.5" y="-86.12" font-family="sans" font-size="10.00">_copy_cnvkit_pon</text>
</g>
<!-- 1&#45;&gt;0 -->
<g id="edge2" class="edge">
<title>1&#45;&gt;0</title>
<path fill="none" stroke="grey" stroke-width="2" d="M297.07,-71.15C323.15,-60.22 356.3,-46.33 381.83,-35.63"/>
<polygon fill="grey" stroke="grey" stroke-width="2" points="383.02,-38.92 390.89,-31.83 380.31,-32.47 383.02,-38.92"/>
</g>
<!-- 2 -->
<g id="node3" class="node">
<title>2</title>
<path fill="none" stroke="#5692d8" stroke-width="2" d="M187,-540C187,-540 12,-540 12,-540 6,-540 0,-534 0,-528 0,-528 0,-516 0,-516 0,-510 6,-504 12,-504 12,-504 187,-504 187,-504 193,-504 199,-510 199,-516 199,-516 199,-528 199,-528 199,-534 193,-540 187,-540"/>
<text text-anchor="middle" x="99.5" y="-518.12" font-family="sans" font-size="10.00">references_cnvkit_build_normal_reference</text>
</g>
<!-- 2&#45;&gt;1 -->
<g id="edge5" class="edge">
<title>2&#45;&gt;1</title>
<path fill="none" stroke="grey" stroke-width="2" d="M117.2,-503C140.21,-477.61 177.5,-428.79 177.5,-379 177.5,-379 177.5,-379 177.5,-233 177.5,-188.93 206.51,-145.46 228.92,-118.46"/>
<polygon fill="grey" stroke="grey" stroke-width="2" points="231.55,-120.76 235.43,-110.9 226.25,-116.19 231.55,-120.76"/>
</g>
<!-- 3 -->
<g id="node4" class="node">
<title>3</title>
<path fill="none" stroke="#d85656" stroke-width="2" d="M659.38,-612C659.38,-612 555.62,-612 555.62,-612 549.62,-612 543.62,-606 543.62,-600 543.62,-600 543.62,-588 543.62,-588 543.62,-582 549.62,-576 555.62,-576 555.62,-576 659.38,-576 659.38,-576 665.38,-576 671.38,-582 671.38,-588 671.38,-588 671.38,-600 671.38,-600 671.38,-606 665.38,-612 659.38,-612"/>
<text text-anchor="middle" x="607.5" y="-590.12" font-family="sans" font-size="10.00">alignment_pbmm2_merge</text>
</g>
<!-- 3&#45;&gt;2 -->
<g id="edge6" class="edge">
<title>3&#45;&gt;2</title>
<path fill="none" stroke="grey" stroke-width="2" d="M542.97,-584.61C464.9,-574.39 329.5,-556.45 213.5,-540 213.22,-539.96 212.94,-539.92 212.66,-539.88"/>
<polygon fill="grey" stroke="grey" stroke-width="2" points="213.28,-536.43 202.88,-538.48 212.29,-543.36 213.28,-536.43"/>
</g>
<!-- 11 -->
<g id="node12" class="node">
<title>11</title>
<path fill="none" stroke="#56d0d8" stroke-width="2" d="M386.12,-396C386.12,-396 268.88,-396 268.88,-396 262.88,-396 256.88,-390 256.88,-384 256.88,-384 256.88,-372 256.88,-372 256.88,-366 262.88,-360 268.88,-360 268.88,-360 386.12,-360 386.12,-360 392.12,-360 398.12,-366 398.12,-372 398.12,-372 398.12,-384 398.12,-384 398.12,-390 392.12,-396 386.12,-396"/>
<text text-anchor="middle" x="327.5" y="-374.12" font-family="sans" font-size="10.00">snv_indels_whatshap_phase</text>
</g>
<!-- 3&#45;&gt;11 -->
<g id="edge17" class="edge">
<title>3&#45;&gt;11</title>
<path fill="none" stroke="grey" stroke-width="2" d="M542.69,-592.23C457.84,-587.28 312.21,-564.28 246.5,-468 237.48,-454.78 238.89,-446.07 246.5,-432 252.67,-420.58 262.5,-411.23 273.21,-403.73"/>
<polygon fill="grey" stroke="grey" stroke-width="2" points="274.96,-406.76 281.55,-398.47 271.22,-400.84 274.96,-406.76"/>
</g>
<!-- 12 -->
<g id="node13" class="node">
<title>12</title>
<path fill="none" stroke="#56d89a" stroke-width="2" d="M387.25,-468C387.25,-468 267.75,-468 267.75,-468 261.75,-468 255.75,-462 255.75,-456 255.75,-456 255.75,-444 255.75,-444 255.75,-438 261.75,-432 267.75,-432 267.75,-432 387.25,-432 387.25,-432 393.25,-432 399.25,-438 399.25,-444 399.25,-444 399.25,-456 399.25,-456 399.25,-462 393.25,-468 387.25,-468"/>
<text text-anchor="middle" x="327.5" y="-446.12" font-family="sans" font-size="10.00">references_deepsomatic_pon</text>
</g>
<!-- 3&#45;&gt;12 -->
<g id="edge19" class="edge">
<title>3&#45;&gt;12</title>
<path fill="none" stroke="grey" stroke-width="2" d="M571.64,-575.17C551.09,-564.93 524.82,-551.79 501.5,-540 458.11,-518.06 408.78,-492.79 373.75,-474.8"/>
<polygon fill="grey" stroke="grey" stroke-width="2" points="375.63,-471.83 365.14,-470.38 372.43,-478.06 375.63,-471.83"/>
</g>
<!-- 13 -->
<g id="node14" class="node">
<title>13</title>
<path fill="none" stroke="#9fd856" stroke-width="2" d="M680,-540C680,-540 535,-540 535,-540 529,-540 523,-534 523,-528 523,-528 523,-516 523,-516 523,-510 529,-504 535,-504 535,-504 680,-504 680,-504 686,-504 692,-510 692,-516 692,-516 692,-528 692,-528 692,-534 686,-540 680,-540"/>
<text text-anchor="middle" x="607.5" y="-518.12" font-family="sans" font-size="10.00">alignment_samtools_index_pbmm2</text>
</g>
<!-- 3&#45;&gt;13 -->
<g id="edge21" class="edge">
<title>3&#45;&gt;13</title>
<path fill="none" stroke="grey" stroke-width="2" d="M607.5,-575.34C607.5,-568.75 607.5,-561.08 607.5,-553.67"/>
<polygon fill="grey" stroke="grey" stroke-width="2" points="611,-553.93 607.5,-543.93 604,-553.93 611,-553.93"/>
</g>
<!-- 19 -->
<g id="node20" class="node">
<title>19</title>
<path fill="none" stroke="#56d85b" stroke-width="2" d="M559.38,-468C559.38,-468 467.62,-468 467.62,-468 461.62,-468 455.62,-462 455.62,-456 455.62,-456 455.62,-444 455.62,-444 455.62,-438 461.62,-432 467.62,-432 467.62,-432 559.38,-432 559.38,-432 565.38,-432 571.38,-438 571.38,-444 571.38,-444 571.38,-456 571.38,-456 571.38,-462 565.38,-468 559.38,-468"/>
<text text-anchor="middle" x="513.5" y="-446.12" font-family="sans" font-size="10.00">cnv_sv_pbsv_discover</text>
</g>
<!-- 3&#45;&gt;19 -->
<g id="edge29" class="edge">
<title>3&#45;&gt;19</title>
<path fill="none" stroke="grey" stroke-width="2" d="M555.02,-575.04C539.21,-566.91 523.64,-555.53 514.5,-540 504.26,-522.6 504.21,-499.77 506.62,-481.59"/>
<polygon fill="grey" stroke="grey" stroke-width="2" points="510.07,-482.19 508.3,-471.74 503.17,-481.01 510.07,-482.19"/>
</g>
<!-- 27 -->
<g id="node28" class="node">
<title>27</title>
<path fill="none" stroke="#d88556" stroke-width="2" d="M799.62,-468C799.62,-468 601.38,-468 601.38,-468 595.38,-468 589.38,-462 589.38,-456 589.38,-456 589.38,-444 589.38,-444 589.38,-438 595.38,-432 601.38,-432 601.38,-432 799.62,-432 799.62,-432 805.62,-432 811.62,-438 811.62,-444 811.62,-444 811.62,-456 811.62,-456 811.62,-462 805.62,-468 799.62,-468"/>
<text text-anchor="middle" x="700.5" y="-446.12" font-family="sans" font-size="10.00">qc_picard_collect_alignment_summary_metrics</text>
</g>
<!-- 3&#45;&gt;27 -->
<g id="edge41" class="edge">
<title>3&#45;&gt;27</title>
<path fill="none" stroke="grey" stroke-width="2" d="M660.63,-575.22C676.62,-567.1 692.33,-555.69 701.5,-540 711.74,-522.48 711.21,-499.51 708.26,-481.3"/>
<polygon fill="grey" stroke="grey" stroke-width="2" points="711.74,-480.83 706.34,-471.71 704.88,-482.2 711.74,-480.83"/>
</g>
<!-- 28 -->
<g id="node29" class="node">
<title>28</title>
<path fill="none" stroke="#56d8c9" stroke-width="2" d="M891.75,-468C891.75,-468 841.25,-468 841.25,-468 835.25,-468 829.25,-462 829.25,-456 829.25,-456 829.25,-444 829.25,-444 829.25,-438 835.25,-432 841.25,-432 841.25,-432 891.75,-432 891.75,-432 897.75,-432 903.75,-438 903.75,-444 903.75,-444 903.75,-456 903.75,-456 903.75,-462 897.75,-468 891.75,-468"/>
<text text-anchor="middle" x="866.5" y="-446.12" font-family="sans" font-size="10.00">qc_mosdepth</text>
</g>
<!-- 3&#45;&gt;28 -->
<g id="edge43" class="edge">
<title>3&#45;&gt;28</title>
<path fill="none" stroke="grey" stroke-width="2" d="M647.91,-575.09C669.43,-565.25 696.19,-552.53 719.5,-540 757.08,-519.8 798.55,-494.39 827.84,-475.9"/>
<polygon fill="grey" stroke="grey" stroke-width="2" points="829.69,-478.87 836.26,-470.55 825.94,-472.96 829.69,-478.87"/>
</g>
<!-- 30 -->
<g id="node31" class="node">
<title>30</title>
<path fill="none" stroke="#70d856" stroke-width="2" d="M1055,-468C1055,-468 934,-468 934,-468 928,-468 922,-462 922,-456 922,-456 922,-444 922,-444 922,-438 928,-432 934,-432 934,-432 1055,-432 1055,-432 1061,-432 1067,-438 1067,-444 1067,-444 1067,-456 1067,-456 1067,-462 1061,-468 1055,-468"/>
<text text-anchor="middle" x="994.5" y="-446.12" font-family="sans" font-size="10.00">qc_picard_collect_hs_metrics</text>
</g>
<!-- 3&#45;&gt;30 -->
<g id="edge47" class="edge">
<title>3&#45;&gt;30</title>
<path fill="none" stroke="grey" stroke-width="2" d="M662.56,-575.07C692.77,-565.06 730.82,-552.19 764.5,-540 824,-518.46 891.46,-492.13 937.85,-473.71"/>
<polygon fill="grey" stroke="grey" stroke-width="2" points="938.95,-477.04 946.95,-470.1 936.37,-470.54 938.95,-477.04"/>
</g>
<!-- 4 -->
<g id="node5" class="node">
<title>4</title>
<path fill="none" stroke="#56a2d8" stroke-width="2" d="M885,-684C885,-684 788,-684 788,-684 782,-684 776,-678 776,-672 776,-672 776,-660 776,-660 776,-654 782,-648 788,-648 788,-648 885,-648 885,-648 891,-648 897,-654 897,-660 897,-660 897,-672 897,-672 897,-678 891,-684 885,-684"/>
<text text-anchor="middle" x="836.5" y="-662.12" font-family="sans" font-size="10.00">alignment_pbmm2_align</text>
</g>
<!-- 4&#45;&gt;3 -->
<g id="edge9" class="edge">
<title>4&#45;&gt;3</title>
<path fill="none" stroke="grey" stroke-width="2" d="M777.82,-647.06C747.52,-637.8 710.32,-626.43 678.42,-616.68"/>
<polygon fill="grey" stroke="grey" stroke-width="2" points="679.5,-613.35 668.92,-613.77 677.46,-620.04 679.5,-613.35"/>
</g>
<!-- 29 -->
<g id="node30" class="node">
<title>29</title>
<path fill="none" stroke="#56d88a" stroke-width="2" d="M1114.75,-540C1114.75,-540 1076.25,-540 1076.25,-540 1070.25,-540 1064.25,-534 1064.25,-528 1064.25,-528 1064.25,-516 1064.25,-516 1064.25,-510 1070.25,-504 1076.25,-504 1076.25,-504 1114.75,-504 1114.75,-504 1120.75,-504 1126.75,-510 1126.75,-516 1126.75,-516 1126.75,-528 1126.75,-528 1126.75,-534 1120.75,-540 1114.75,-540"/>
<text text-anchor="middle" x="1095.5" y="-518.12" font-family="sans" font-size="10.00">qc_sequali</text>
</g>
<!-- 4&#45;&gt;29 -->
<g id="edge45" class="edge">
<title>4&#45;&gt;29</title>
<path fill="none" stroke="grey" stroke-width="2" d="M897.96,-655.94C934.79,-648.41 981.34,-635.07 1017.5,-612 1041.94,-596.41 1063.13,-570.97 1077.23,-551.27"/>
<polygon fill="grey" stroke="grey" stroke-width="2" points="1079.98,-553.45 1082.78,-543.23 1074.22,-549.47 1079.98,-553.45"/>
</g>
<!-- 5 -->
<g id="node6" class="node">
<title>5</title>
<path fill="none" stroke="#56c1d8" stroke-width="2" d="M815.88,-756C815.88,-756 715.12,-756 715.12,-756 709.12,-756 703.12,-750 703.12,-744 703.12,-744 703.12,-732 703.12,-732 703.12,-726 709.12,-720 715.12,-720 715.12,-720 815.88,-720 815.88,-720 821.88,-720 827.88,-726 827.88,-732 827.88,-732 827.88,-744 827.88,-744 827.88,-750 821.88,-756 815.88,-756"/>
<text text-anchor="middle" x="765.5" y="-734.12" font-family="sans" font-size="10.00">prealignment_pbmarkdup</text>
</g>
<!-- 5&#45;&gt;4 -->
<g id="edge11" class="edge">
<title>5&#45;&gt;4</title>
<path fill="none" stroke="grey" stroke-width="2" d="M783.42,-719.34C791.26,-711.6 800.64,-702.36 809.31,-693.81"/>
<polygon fill="grey" stroke="grey" stroke-width="2" points="811.52,-696.54 816.19,-687.03 806.61,-691.56 811.52,-696.54"/>
</g>
<!-- 6 -->
<g id="node7" class="node">
<title>6</title>
<path fill="none" stroke="#56d87b" stroke-width="2" d="M957.5,-756C957.5,-756 857.5,-756 857.5,-756 851.5,-756 845.5,-750 845.5,-744 845.5,-744 845.5,-732 845.5,-732 845.5,-726 851.5,-720 857.5,-720 857.5,-720 957.5,-720 957.5,-720 963.5,-720 969.5,-726 969.5,-732 969.5,-732 969.5,-744 969.5,-744 969.5,-750 963.5,-756 957.5,-756"/>
<text text-anchor="middle" x="907.5" y="-734.12" font-family="sans" font-size="10.00">alignment_pbmm2_index</text>
</g>
<!-- 6&#45;&gt;4 -->
<g id="edge10" class="edge">
<title>6&#45;&gt;4</title>
<path fill="none" stroke="grey" stroke-width="2" d="M889.58,-719.34C881.74,-711.6 872.36,-702.36 863.69,-693.81"/>
<polygon fill="grey" stroke="grey" stroke-width="2" points="866.39,-691.56 856.81,-687.03 861.48,-696.54 866.39,-691.56"/>
</g>
<!-- 7 -->
<g id="node8" class="node">
<title>7</title>
<path fill="none" stroke="#56d8b9" stroke-width="2" d="M168.88,-684C168.88,-684 32.13,-684 32.13,-684 26.13,-684 20.12,-678 20.12,-672 20.12,-672 20.12,-660 20.12,-660 20.12,-654 26.12,-648 32.12,-648 32.12,-648 168.88,-648 168.88,-648 174.88,-648 180.88,-654 180.88,-660 180.88,-660 180.88,-672 180.88,-672 180.88,-678 174.88,-684 168.88,-684"/>
<text text-anchor="middle" x="100.5" y="-662.12" font-family="sans" font-size="10.00">references_cnvkit_create_targets</text>
</g>
<!-- 7&#45;&gt;2 -->
<g id="edge7" class="edge">
<title>7&#45;&gt;2</title>
<path fill="none" stroke="grey" stroke-width="2" d="M81.9,-647.2C73.3,-637.68 64.01,-625.21 59.5,-612 54.33,-596.86 54.42,-591.17 59.5,-576 62.49,-567.08 67.63,-558.47 73.25,-550.87"/>
<polygon fill="grey" stroke="grey" stroke-width="2" points="75.87,-553.2 79.44,-543.23 70.43,-548.8 75.87,-553.2"/>
</g>
<!-- 8 -->
<g id="node9" class="node">
<title>8</title>
<path fill="none" stroke="#80d856" stroke-width="2" d="M238.38,-612C238.38,-612 80.62,-612 80.62,-612 74.62,-612 68.62,-606 68.62,-600 68.62,-600 68.62,-588 68.62,-588 68.62,-582 74.62,-576 80.62,-576 80.62,-576 238.38,-576 238.38,-576 244.38,-576 250.38,-582 250.38,-588 250.38,-588 250.38,-600 250.38,-600 250.38,-606 244.38,-612 238.38,-612"/>
<text text-anchor="middle" x="159.5" y="-590.12" font-family="sans" font-size="10.00">references_cnvkit_create_anti_targets</text>
</g>
<!-- 7&#45;&gt;8 -->
<g id="edge12" class="edge">
<title>7&#45;&gt;8</title>
<path fill="none" stroke="grey" stroke-width="2" d="M115.39,-647.34C121.7,-639.85 129.2,-630.95 136.21,-622.63"/>
<polygon fill="grey" stroke="grey" stroke-width="2" points="138.69,-625.12 142.46,-615.22 133.34,-620.61 138.69,-625.12"/>
</g>
<!-- 8&#45;&gt;2 -->
<g id="edge8" class="edge">
<title>8&#45;&gt;2</title>
<path fill="none" stroke="grey" stroke-width="2" d="M144.36,-575.34C137.94,-567.85 130.31,-558.95 123.18,-550.63"/>
<polygon fill="grey" stroke="grey" stroke-width="2" points="125.98,-548.51 116.81,-543.2 120.66,-553.07 125.98,-548.51"/>
</g>
<!-- 9 -->
<g id="node10" class="node">
<title>9</title>
<path fill="none" stroke="#d87556" stroke-width="2" d="M375.5,-180C375.5,-180 275.5,-180 275.5,-180 269.5,-180 263.5,-174 263.5,-168 263.5,-168 263.5,-156 263.5,-156 263.5,-150 269.5,-144 275.5,-144 275.5,-144 375.5,-144 375.5,-144 381.5,-144 387.5,-150 387.5,-156 387.5,-156 387.5,-168 387.5,-168 387.5,-174 381.5,-180 375.5,-180"/>
<text text-anchor="middle" x="325.5" y="-158.12" font-family="sans" font-size="10.00">_copy_deepsomatic_pon</text>
</g>
<!-- 9&#45;&gt;0 -->
<g id="edge3" class="edge">
<title>9&#45;&gt;0</title>
<path fill="none" stroke="grey" stroke-width="2" d="M337.66,-143.02C353.96,-118.9 383.08,-75.83 402.34,-47.34"/>
<polygon fill="grey" stroke="grey" stroke-width="2" points="405.04,-49.59 407.74,-39.35 399.24,-45.67 405.04,-49.59"/>
</g>
<!-- 10 -->
<g id="node11" class="node">
<title>10</title>
<path fill="none" stroke="#5663d8" stroke-width="2" d="M390.88,-252C390.88,-252 260.12,-252 260.12,-252 254.12,-252 248.12,-246 248.12,-240 248.12,-240 248.12,-228 248.12,-228 248.12,-222 254.12,-216 260.12,-216 260.12,-216 390.88,-216 390.88,-216 396.88,-216 402.88,-222 402.88,-228 402.88,-228 402.88,-240 402.88,-240 402.88,-246 396.88,-252 390.88,-252"/>
<text text-anchor="middle" x="325.5" y="-230.12" font-family="sans" font-size="10.00">references_snv_bcftools_merge</text>
</g>
<!-- 10&#45;&gt;9 -->
<g id="edge13" class="edge">
<title>10&#45;&gt;9</title>
<path fill="none" stroke="grey" stroke-width="2" d="M325.5,-215.34C325.5,-208.75 325.5,-201.08 325.5,-193.67"/>
<polygon fill="grey" stroke="grey" stroke-width="2" points="329,-193.93 325.5,-183.93 322,-193.93 329,-193.93"/>
</g>
<!-- 11&#45;&gt;10 -->
<g id="edge14" class="edge">
<title>11&#45;&gt;10</title>
<path fill="none" stroke="grey" stroke-width="2" d="M327.25,-359.02C326.92,-335.54 326.33,-294.11 325.93,-265.64"/>
<polygon fill="grey" stroke="grey" stroke-width="2" points="329.43,-265.81 325.79,-255.87 322.44,-265.91 329.43,-265.81"/>
</g>
<!-- 14 -->
<g id="node15" class="node">
<title>14</title>
<path fill="none" stroke="#5673d8" stroke-width="2" d="M401.38,-324C401.38,-324 351.62,-324 351.62,-324 345.62,-324 339.62,-318 339.62,-312 339.62,-312 339.62,-300 339.62,-300 339.62,-294 345.62,-288 351.62,-288 351.62,-288 401.38,-288 401.38,-288 407.38,-288 413.38,-294 413.38,-300 413.38,-300 413.38,-312 413.38,-312 413.38,-318 407.38,-324 401.38,-324"/>
<text text-anchor="middle" x="376.5" y="-302.12" font-family="sans" font-size="10.00">cnv_sv_tabix</text>
</g>
<!-- 11&#45;&gt;14 -->
<g id="edge22" class="edge">
<title>11&#45;&gt;14</title>
<path fill="none" stroke="grey" stroke-width="2" d="M339.86,-359.34C344.93,-352.1 350.93,-343.53 356.58,-335.45"/>
<polygon fill="grey" stroke="grey" stroke-width="2" points="359.37,-337.58 362.23,-327.38 353.63,-333.57 359.37,-337.58"/>
</g>
<!-- 12&#45;&gt;11 -->
<g id="edge16" class="edge">
<title>12&#45;&gt;11</title>
<path fill="none" stroke="grey" stroke-width="2" d="M327.5,-431.34C327.5,-424.75 327.5,-417.08 327.5,-409.67"/>
<polygon fill="grey" stroke="grey" stroke-width="2" points="331,-409.93 327.5,-399.93 324,-409.93 331,-409.93"/>
</g>
<!-- 13&#45;&gt;11 -->
<g id="edge18" class="edge">
<title>13&#45;&gt;11</title>
<path fill="none" stroke="grey" stroke-width="2" d="M530.38,-503.12C502.76,-494.81 472.15,-483.31 446.5,-468 426.52,-456.07 426.75,-446.43 408.5,-432 395.93,-422.07 381.5,-412.18 368.32,-403.69"/>
<polygon fill="grey" stroke="grey" stroke-width="2" points="370.5,-400.93 360.18,-398.53 366.76,-406.84 370.5,-400.93"/>
</g>
<!-- 13&#45;&gt;12 -->
<g id="edge20" class="edge">
<title>13&#45;&gt;12</title>
<path fill="none" stroke="grey" stroke-width="2" d="M535.76,-503.06C497.89,-493.6 451.2,-481.92 411.63,-472.03"/>
<polygon fill="grey" stroke="grey" stroke-width="2" points="412.54,-468.65 401.99,-469.62 410.85,-475.44 412.54,-468.65"/>
</g>
<!-- 13&#45;&gt;19 -->
<g id="edge30" class="edge">
<title>13&#45;&gt;19</title>
<path fill="none" stroke="grey" stroke-width="2" d="M583.78,-503.34C572.84,-495.19 559.66,-485.37 547.67,-476.45"/>
<polygon fill="grey" stroke="grey" stroke-width="2" points="550.08,-473.88 539.97,-470.71 545.9,-479.49 550.08,-473.88"/>
</g>
<!-- 13&#45;&gt;27 -->
<g id="edge42" class="edge">
<title>13&#45;&gt;27</title>
<path fill="none" stroke="grey" stroke-width="2" d="M630.97,-503.34C641.68,-495.27 654.57,-485.57 666.33,-476.72"/>
<polygon fill="grey" stroke="grey" stroke-width="2" points="668.41,-479.53 674.3,-470.72 664.2,-473.94 668.41,-479.53"/>
</g>
<!-- 13&#45;&gt;28 -->
<g id="edge44" class="edge">
<title>13&#45;&gt;28</title>
<path fill="none" stroke="grey" stroke-width="2" d="M688.74,-503.01C725.51,-494.34 769.69,-483.23 816.25,-469.17"/>
<polygon fill="grey" stroke="grey" stroke-width="2" points="817.03,-472.59 825.56,-466.31 814.98,-465.89 817.03,-472.59"/>
</g>
<!-- 13&#45;&gt;30 -->
<g id="edge48" class="edge">
<title>13&#45;&gt;30</title>
<path fill="none" stroke="grey" stroke-width="2" d="M692.76,-506.94C750.89,-497.18 829.94,-483.57 908.59,-468.71"/>
<polygon fill="grey" stroke="grey" stroke-width="2" points="909.06,-472.19 918.23,-466.88 907.75,-465.31 909.06,-472.19"/>
</g>
<!-- 14&#45;&gt;10 -->
<g id="edge15" class="edge">
<title>14&#45;&gt;10</title>
<path fill="none" stroke="grey" stroke-width="2" d="M363.63,-287.34C358.3,-280.01 351.97,-271.34 346.03,-263.18"/>
<polygon fill="grey" stroke="grey" stroke-width="2" points="349.04,-261.37 340.33,-255.35 343.39,-265.49 349.04,-261.37"/>
</g>
<!-- 15 -->
<g id="node16" class="node">
<title>15</title>
<path fill="none" stroke="#ced856" stroke-width="2" d="M469,-108C469,-108 414,-108 414,-108 408,-108 402,-102 402,-96 402,-96 402,-84 402,-84 402,-78 408,-72 414,-72 414,-72 469,-72 469,-72 475,-72 481,-78 481,-84 481,-84 481,-96 481,-96 481,-102 475,-108 469,-108"/>
<text text-anchor="middle" x="441.5" y="-86.12" font-family="sans" font-size="10.00">_copy_sv_pon</text>
</g>
<!-- 15&#45;&gt;0 -->
<g id="edge1" class="edge">
<title>15&#45;&gt;0</title>
<path fill="none" stroke="grey" stroke-width="2" d="M436.45,-71.34C434.55,-64.67 432.32,-56.89 430.18,-49.39"/>
<polygon fill="grey" stroke="grey" stroke-width="2" points="433.56,-48.47 427.45,-39.81 426.83,-50.39 433.56,-48.47"/>
</g>
<!-- 16 -->
<g id="node17" class="node">
<title>16</title>
<path fill="none" stroke="#8fd856" stroke-width="2" d="M543.25,-180C543.25,-180 417.75,-180 417.75,-180 411.75,-180 405.75,-174 405.75,-168 405.75,-168 405.75,-156 405.75,-156 405.75,-150 411.75,-144 417.75,-144 417.75,-144 543.25,-144 543.25,-144 549.25,-144 555.25,-150 555.25,-156 555.25,-156 555.25,-168 555.25,-168 555.25,-174 549.25,-180 543.25,-180"/>
<text text-anchor="middle" x="480.5" y="-158.12" font-family="sans" font-size="10.00">references_sv_bcftools_merge</text>
</g>
<!-- 16&#45;&gt;15 -->
<g id="edge23" class="edge">
<title>16&#45;&gt;15</title>
<path fill="none" stroke="grey" stroke-width="2" d="M470.66,-143.34C466.76,-136.34 462.18,-128.12 457.81,-120.28"/>
<polygon fill="grey" stroke="grey" stroke-width="2" points="460.87,-118.58 452.95,-111.55 454.76,-121.99 460.87,-118.58"/>
</g>
<!-- 17 -->
<g id="node18" class="node">
<title>17</title>
<path fill="none" stroke="#bed856" stroke-width="2" d="M572.38,-324C572.38,-324 522.62,-324 522.62,-324 516.62,-324 510.62,-318 510.62,-312 510.62,-312 510.62,-300 510.62,-300 510.62,-294 516.62,-288 522.62,-288 522.62,-288 572.38,-288 572.38,-288 578.38,-288 584.38,-294 584.38,-300 584.38,-300 584.38,-312 584.38,-312 584.38,-318 578.38,-324 572.38,-324"/>
<text text-anchor="middle" x="547.5" y="-302.12" font-family="sans" font-size="10.00">bgzip_sv_vcf</text>
</g>
<!-- 17&#45;&gt;16 -->
<g id="edge25" class="edge">
<title>17&#45;&gt;16</title>
<path fill="none" stroke="grey" stroke-width="2" d="M524.48,-287.21C514,-277.87 502.41,-265.55 495.5,-252 486.3,-233.96 482.57,-211.44 481.13,-193.58"/>
<polygon fill="grey" stroke="grey" stroke-width="2" points="484.63,-193.51 480.58,-183.72 477.64,-193.9 484.63,-193.51"/>
</g>
<!-- 24 -->
<g id="node25" class="node">
<title>24</title>
<path fill="none" stroke="#afd856" stroke-width="2" d="M582.25,-252C582.25,-252 516.75,-252 516.75,-252 510.75,-252 504.75,-246 504.75,-240 504.75,-240 504.75,-228 504.75,-228 504.75,-222 510.75,-216 516.75,-216 516.75,-216 582.25,-216 582.25,-216 588.25,-216 594.25,-222 594.25,-228 594.25,-228 594.25,-240 594.25,-240 594.25,-246 588.25,-252 582.25,-252"/>
<text text-anchor="middle" x="549.5" y="-230.12" font-family="sans" font-size="10.00">cnv_sv_tabix_sv</text>
</g>
<!-- 17&#45;&gt;24 -->
<g id="edge35" class="edge">
<title>17&#45;&gt;24</title>
<path fill="none" stroke="grey" stroke-width="2" d="M548,-287.34C548.19,-280.75 548.41,-273.08 548.62,-265.67"/>
<polygon fill="grey" stroke="grey" stroke-width="2" points="552.11,-266.02 548.9,-255.93 545.12,-265.82 552.11,-266.02"/>
</g>
<!-- 18 -->
<g id="node19" class="node">
<title>18</title>
<path fill="none" stroke="#d89556" stroke-width="2" d="M571.5,-396C571.5,-396 501.5,-396 501.5,-396 495.5,-396 489.5,-390 489.5,-384 489.5,-384 489.5,-372 489.5,-372 489.5,-366 495.5,-360 501.5,-360 501.5,-360 571.5,-360 571.5,-360 577.5,-360 583.5,-366 583.5,-372 583.5,-372 583.5,-384 583.5,-384 583.5,-390 577.5,-396 571.5,-396"/>
<text text-anchor="middle" x="536.5" y="-374.12" font-family="sans" font-size="10.00">cnv_sv_pbsv_call</text>
</g>
<!-- 18&#45;&gt;17 -->
<g id="edge27" class="edge">
<title>18&#45;&gt;17</title>
<path fill="none" stroke="grey" stroke-width="2" d="M539.28,-359.34C540.31,-352.75 541.52,-345.08 542.68,-337.67"/>
<polygon fill="grey" stroke="grey" stroke-width="2" points="546.12,-338.31 544.22,-327.89 539.21,-337.23 546.12,-338.31"/>
</g>
<!-- 19&#45;&gt;18 -->
<g id="edge28" class="edge">
<title>19&#45;&gt;18</title>
<path fill="none" stroke="grey" stroke-width="2" d="M519.3,-431.34C521.52,-424.59 524.11,-416.69 526.61,-409.11"/>
<polygon fill="grey" stroke="grey" stroke-width="2" points="529.88,-410.37 529.67,-399.78 523.23,-408.19 529.88,-410.37"/>
</g>
<!-- 20 -->
<g id="node21" class="node">
<title>20</title>
<path fill="none" stroke="#56d86b" stroke-width="2" d="M1176.38,-396C1176.38,-396 1090.62,-396 1090.62,-396 1084.62,-396 1078.62,-390 1078.62,-384 1078.62,-384 1078.62,-372 1078.62,-372 1078.62,-366 1084.62,-360 1090.62,-360 1090.62,-360 1176.38,-360 1176.38,-360 1182.38,-360 1188.38,-366 1188.38,-372 1188.38,-372 1188.38,-384 1188.38,-384 1188.38,-390 1182.38,-396 1176.38,-396"/>
<text text-anchor="middle" x="1133.5" y="-374.12" font-family="sans" font-size="10.00">cnv_sv_sniffles2_call</text>
</g>
<!-- 20&#45;&gt;17 -->
<g id="edge26" class="edge">
<title>20&#45;&gt;17</title>
<path fill="none" stroke="grey" stroke-width="2" d="M1077.84,-370.35C964.3,-356.79 707.49,-326.11 598.23,-313.06"/>
<polygon fill="grey" stroke="grey" stroke-width="2" points="598.7,-309.59 588.36,-311.88 597.87,-316.54 598.7,-309.59"/>
</g>
<!-- 21 -->
<g id="node22" class="node">
<title>21</title>
<path fill="none" stroke="#d8b456" stroke-width="2" d="M1281.5,-540C1281.5,-540 1175.5,-540 1175.5,-540 1169.5,-540 1163.5,-534 1163.5,-528 1163.5,-528 1163.5,-516 1163.5,-516 1163.5,-510 1169.5,-504 1175.5,-504 1175.5,-504 1281.5,-504 1281.5,-504 1287.5,-504 1293.5,-510 1293.5,-516 1293.5,-516 1293.5,-528 1293.5,-528 1293.5,-534 1287.5,-540 1281.5,-540"/>
<text text-anchor="middle" x="1228.5" y="-518.12" font-family="sans" font-size="10.00">alignment_vacmap_merge</text>
</g>
<!-- 21&#45;&gt;20 -->
<g id="edge32" class="edge">
<title>21&#45;&gt;20</title>
<path fill="none" stroke="grey" stroke-width="2" d="M1191.69,-503.09C1177.42,-494.38 1162.2,-482.61 1152.5,-468 1141.08,-450.8 1136.37,-427.96 1134.49,-409.73"/>
<polygon fill="grey" stroke="grey" stroke-width="2" points="1137.99,-409.59 1133.77,-399.88 1131.01,-410.11 1137.99,-409.59"/>
</g>
<!-- 23 -->
<g id="node24" class="node">
<title>23</title>
<path fill="none" stroke="#56b1d8" stroke-width="2" d="M1321.12,-468C1321.12,-468 1173.88,-468 1173.88,-468 1167.88,-468 1161.88,-462 1161.88,-456 1161.88,-456 1161.88,-444 1161.88,-444 1161.88,-438 1167.88,-432 1173.88,-432 1173.88,-432 1321.12,-432 1321.12,-432 1327.12,-432 1333.12,-438 1333.12,-444 1333.12,-444 1333.12,-456 1333.12,-456 1333.12,-462 1327.12,-468 1321.12,-468"/>
<text text-anchor="middle" x="1247.5" y="-446.12" font-family="sans" font-size="10.00">alignment_samtools_index_vacmap</text>
</g>
<!-- 21&#45;&gt;23 -->
<g id="edge34" class="edge">
<title>21&#45;&gt;23</title>
<path fill="none" stroke="grey" stroke-width="2" d="M1233.29,-503.34C1235.1,-496.67 1237.22,-488.89 1239.25,-481.39"/>
<polygon fill="grey" stroke="grey" stroke-width="2" points="1242.61,-482.39 1241.85,-471.82 1235.85,-480.56 1242.61,-482.39"/>
</g>
<!-- 22 -->
<g id="node23" class="node">
<title>22</title>
<path fill="none" stroke="#d8a456" stroke-width="2" d="M1278.12,-612C1278.12,-612 1178.88,-612 1178.88,-612 1172.88,-612 1166.88,-606 1166.88,-600 1166.88,-600 1166.88,-588 1166.88,-588 1166.88,-582 1172.88,-576 1178.88,-576 1178.88,-576 1278.12,-576 1278.12,-576 1284.12,-576 1290.12,-582 1290.12,-588 1290.12,-588 1290.12,-600 1290.12,-600 1290.12,-606 1284.12,-612 1278.12,-612"/>
<text text-anchor="middle" x="1228.5" y="-590.12" font-family="sans" font-size="10.00">alignment_vacmap_align</text>
</g>
<!-- 22&#45;&gt;21 -->
<g id="edge33" class="edge">
<title>22&#45;&gt;21</title>
<path fill="none" stroke="grey" stroke-width="2" d="M1228.5,-575.34C1228.5,-568.75 1228.5,-561.08 1228.5,-553.67"/>
<polygon fill="grey" stroke="grey" stroke-width="2" points="1232,-553.93 1228.5,-543.93 1225,-553.93 1232,-553.93"/>
</g>
<!-- 23&#45;&gt;20 -->
<g id="edge31" class="edge">
<title>23&#45;&gt;20</title>
<path fill="none" stroke="grey" stroke-width="2" d="M1218.44,-431.15C1204.77,-422.76 1188.26,-412.62 1173.44,-403.52"/>
<polygon fill="grey" stroke="grey" stroke-width="2" points="1175.44,-400.65 1165.09,-398.4 1171.78,-406.61 1175.44,-400.65"/>
</g>
<!-- 24&#45;&gt;16 -->
<g id="edge24" class="edge">
<title>24&#45;&gt;16</title>
<path fill="none" stroke="grey" stroke-width="2" d="M532.09,-215.34C524.55,-207.69 515.55,-198.56 507.19,-190.08"/>
<polygon fill="grey" stroke="grey" stroke-width="2" points="509.78,-187.72 500.27,-183.06 504.8,-192.64 509.78,-187.72"/>
</g>
<!-- 25 -->
<g id="node26" class="node">
<title>25</title>
<path fill="none" stroke="#56d8a9" stroke-width="2" d="M845,-252C845,-252 736,-252 736,-252 730,-252 724,-246 724,-240 724,-240 724,-228 724,-228 724,-222 730,-216 736,-216 736,-216 845,-216 845,-216 851,-216 857,-222 857,-228 857,-228 857,-240 857,-240 857,-246 851,-252 845,-252"/>
<text text-anchor="middle" x="790.5" y="-230.12" font-family="sans" font-size="10.00">_copy_multiqc_html_report</text>
</g>
<!-- 25&#45;&gt;0 -->
<g id="edge4" class="edge">
<title>25&#45;&gt;0</title>
<path fill="none" stroke="grey" stroke-width="2" d="M759.67,-215.12C692.76,-176.31 534.28,-84.41 460.52,-41.63"/>
<polygon fill="grey" stroke="grey" stroke-width="2" points="462.46,-38.71 452.06,-36.72 458.95,-44.77 462.46,-38.71"/>
</g>
<!-- 26 -->
<g id="node27" class="node">
<title>26</title>
<path fill="none" stroke="#5682d8" stroke-width="2" d="M907.12,-396C907.12,-396 825.88,-396 825.88,-396 819.88,-396 813.88,-390 813.88,-384 813.88,-384 813.88,-372 813.88,-372 813.88,-366 819.88,-360 825.88,-360 825.88,-360 907.12,-360 907.12,-360 913.12,-360 919.12,-366 919.12,-372 919.12,-372 919.12,-384 919.12,-384 919.12,-390 913.12,-396 907.12,-396"/>
<text text-anchor="middle" x="866.5" y="-374.12" font-family="sans" font-size="10.00">qc_multiqc_longread</text>
</g>
<!-- 26&#45;&gt;25 -->
<g id="edge36" class="edge">
<title>26&#45;&gt;25</title>
<path fill="none" stroke="grey" stroke-width="2" d="M856.87,-359.02C844.08,-335.12 821.33,-292.59 806.07,-264.1"/>
<polygon fill="grey" stroke="grey" stroke-width="2" points="809.28,-262.67 801.48,-255.51 803.11,-265.98 809.28,-262.67"/>
</g>
<!-- 27&#45;&gt;26 -->
<g id="edge38" class="edge">
<title>27&#45;&gt;26</title>
<path fill="none" stroke="grey" stroke-width="2" d="M742.82,-431.15C763.91,-422.26 789.65,-411.41 812.18,-401.91"/>
<polygon fill="grey" stroke="grey" stroke-width="2" points="813.33,-405.22 821.18,-398.11 810.61,-398.77 813.33,-405.22"/>
</g>
<!-- 28&#45;&gt;26 -->
<g id="edge37" class="edge">
<title>28&#45;&gt;26</title>
<path fill="none" stroke="grey" stroke-width="2" d="M866.5,-431.34C866.5,-424.75 866.5,-417.08 866.5,-409.67"/>
<polygon fill="grey" stroke="grey" stroke-width="2" points="870,-409.93 866.5,-399.93 863,-409.93 870,-409.93"/>
</g>
<!-- 29&#45;&gt;26 -->
<g id="edge39" class="edge">
<title>29&#45;&gt;26</title>
<path fill="none" stroke="grey" stroke-width="2" d="M1096.85,-503.1C1097.32,-483.08 1094.81,-451 1076.5,-432 1056.69,-411.45 986.51,-396.63 932.68,-387.98"/>
<polygon fill="grey" stroke="grey" stroke-width="2" points="933.49,-384.56 923.07,-386.48 932.41,-391.48 933.49,-384.56"/>
</g>
<!-- 30&#45;&gt;26 -->
<g id="edge40" class="edge">
<title>30&#45;&gt;26</title>
<path fill="none" stroke="grey" stroke-width="2" d="M961.87,-431.15C946.22,-422.6 927.25,-412.22 910.36,-402.99"/>
<polygon fill="grey" stroke="grey" stroke-width="2" points="912.18,-399.99 901.73,-398.26 908.82,-406.13 912.18,-399.99"/>
</g>
<!-- 31 -->
<g id="node32" class="node">
<title>31</title>
<path fill="none" stroke="#61d856" stroke-width="2" d="M1034,-540C1034,-540 907,-540 907,-540 901,-540 895,-534 895,-528 895,-528 895,-516 895,-516 895,-510 901,-504 907,-504 907,-504 1034,-504 1034,-504 1040,-504 1046,-510 1046,-516 1046,-516 1046,-528 1046,-528 1046,-534 1040,-540 1034,-540"/>
<text text-anchor="middle" x="970.5" y="-518.12" font-family="sans" font-size="10.00">references_bed_to_interval_list</text>
</g>
<!-- 31&#45;&gt;30 -->
<g id="edge46" class="edge">
<title>31&#45;&gt;30</title>
<path fill="none" stroke="grey" stroke-width="2" d="M976.56,-503.34C978.87,-496.59 981.58,-488.69 984.18,-481.11"/>
<polygon fill="grey" stroke="grey" stroke-width="2" points="987.45,-482.36 987.38,-471.77 980.83,-480.09 987.45,-482.36"/>
</g>
<!-- 32 -->
<g id="node33" class="node">
<title>32</title>
<path fill="none" stroke="#d8c356" stroke-width="2" d="M996.88,-612C996.88,-612 944.12,-612 944.12,-612 938.12,-612 932.12,-606 932.12,-600 932.12,-600 932.12,-588 932.12,-588 932.12,-582 938.12,-576 944.12,-576 944.12,-576 996.88,-576 996.88,-576 1002.88,-576 1008.88,-582 1008.88,-588 1008.88,-588 1008.88,-600 1008.88,-600 1008.88,-606 1002.88,-612 996.88,-612"/>
<text text-anchor="middle" x="970.5" y="-590.12" font-family="sans" font-size="10.00">samtools_dict</text>
</g>
<!-- 32&#45;&gt;31 -->
<g id="edge49" class="edge">
<title>32&#45;&gt;31</title>
<path fill="none" stroke="grey" stroke-width="2" d="M970.5,-575.34C970.5,-568.75 970.5,-561.08 970.5,-553.67"/>
<polygon fill="grey" stroke="grey" stroke-width="2" points="974,-553.93 970.5,-543.93 967,-553.93 974,-553.93"/>
</g>
</g>
</svg>
