<?xml version="1.0" encoding="UTF-8" standalone="no"?>
<!DOCTYPE svg PUBLIC "-//W3C//DTD SVG 1.1//EN"
 "http://www.w3.org/Graphics/SVG/1.1/DTD/svg11.dtd">
<!-- Generated by graphviz version 12.2.1 (20241206.2353)
 -->
<!-- Title: snakemake_dag Pages: 1 -->
<svg width="194pt" height="332pt"
 viewBox="0.00 0.00 194.38 332.00" xmlns="http://www.w3.org/2000/svg" xmlns:xlink="http://www.w3.org/1999/xlink">
<g id="graph0" class="graph" transform="scale(1 1) rotate(0) translate(4 328)">
<title>snakemake_dag</title>
<polygon fill="white" stroke="none" points="-4,4 -4,-328 190.38,-328 190.38,4 -4,4"/>
<!-- 0 -->
<g id="node1" class="node">
<title>0</title>
<path fill="none" stroke="#56d88a" stroke-width="2" d="M89,-36C89,-36 59,-36 59,-36 53,-36 47,-30 47,-24 47,-24 47,-12 47,-12 47,-6 53,0 59,0 59,0 89,0 89,0 95,0 101,-6 101,-12 101,-12 101,-24 101,-24 101,-30 95,-36 89,-36"/>
<text text-anchor="middle" x="74" y="-14.12" font-family="sans" font-size="10.00">all</text>
</g>
<!-- 1 -->
<g id="node2" class="node">
<title>1</title>
<path fill="none" stroke="#56c1d8" stroke-width="2" d="M109.38,-108C109.38,-108 38.62,-108 38.62,-108 32.62,-108 26.62,-102 26.62,-96 26.62,-96 26.62,-84 26.62,-84 26.62,-78 32.62,-72 38.62,-72 38.62,-72 109.38,-72 109.38,-72 115.38,-72 121.38,-78 121.38,-84 121.38,-84 121.38,-96 121.38,-96 121.38,-102 115.38,-108 109.38,-108"/>
<text text-anchor="middle" x="74" y="-86.12" font-family="sans" font-size="10.00">_copy_cnvkit_pon</text>
</g>
<!-- 1&#45;&gt;0 -->
<g id="edge1" class="edge">
<title>1&#45;&gt;0</title>
<path fill="none" stroke="grey" stroke-width="2" d="M74,-71.34C74,-64.75 74,-57.08 74,-49.67"/>
<polygon fill="grey" stroke="grey" stroke-width="2" points="77.5,-49.93 74,-39.93 70.5,-49.93 77.5,-49.93"/>
</g>
<!-- 2 -->
<g id="node3" class="node">
<title>2</title>
<path fill="none" stroke="#d8bc56" stroke-width="2" d="M136,-180C136,-180 12,-180 12,-180 6,-180 0,-174 0,-168 0,-168 0,-156 0,-156 0,-150 6,-144 12,-144 12,-144 136,-144 136,-144 142,-144 148,-150 148,-156 148,-156 148,-168 148,-168 148,-174 142,-180 136,-180"/>
<text text-anchor="middle" x="74" y="-158.12" font-family="sans" font-size="10.00">cnvkit_build_normal_reference</text>
</g>
<!-- 2&#45;&gt;1 -->
<g id="edge2" class="edge">
<title>2&#45;&gt;1</title>
<path fill="none" stroke="grey" stroke-width="2" d="M74,-143.34C74,-136.75 74,-129.08 74,-121.67"/>
<polygon fill="grey" stroke="grey" stroke-width="2" points="77.5,-121.93 74,-111.93 70.5,-121.93 77.5,-121.93"/>
</g>
<!-- 3 -->
<g id="node4" class="node">
<title>3</title>
<path fill="none" stroke="#88d856" stroke-width="2" d="M116.88,-324C116.88,-324 31.12,-324 31.12,-324 25.12,-324 19.12,-318 19.12,-312 19.12,-312 19.12,-300 19.12,-300 19.12,-294 25.12,-288 31.12,-288 31.12,-288 116.88,-288 116.88,-288 122.88,-288 128.88,-294 128.88,-300 128.88,-300 128.88,-312 128.88,-312 128.88,-318 122.88,-324 116.88,-324"/>
<text text-anchor="middle" x="74" y="-302.12" font-family="sans" font-size="10.00">cnvkit_create_targets</text>
</g>
<!-- 3&#45;&gt;2 -->
<g id="edge3" class="edge">
<title>3&#45;&gt;2</title>
<path fill="none" stroke="grey" stroke-width="2" d="M62.25,-287.19C56.42,-277.28 49.99,-264.45 47,-252 43.27,-236.44 43.27,-231.56 47,-216 48.94,-207.93 52.32,-199.7 56.05,-192.2"/>
<polygon fill="grey" stroke="grey" stroke-width="2" points="59.1,-193.93 60.8,-183.47 52.95,-190.58 59.1,-193.93"/>
</g>
<!-- 4 -->
<g id="node5" class="node">
<title>4</title>
<path fill="none" stroke="#d85656" stroke-width="2" d="M174.38,-252C174.38,-252 67.62,-252 67.62,-252 61.63,-252 55.62,-246 55.62,-240 55.62,-240 55.62,-228 55.62,-228 55.62,-222 61.62,-216 67.62,-216 67.62,-216 174.38,-216 174.38,-216 180.38,-216 186.38,-222 186.38,-228 186.38,-228 186.38,-240 186.38,-240 186.38,-246 180.38,-252 174.38,-252"/>
<text text-anchor="middle" x="121" y="-230.12" font-family="sans" font-size="10.00">cnvkit_create_anti_targets</text>
</g>
<!-- 3&#45;&gt;4 -->
<g id="edge5" class="edge">
<title>3&#45;&gt;4</title>
<path fill="none" stroke="grey" stroke-width="2" d="M85.86,-287.34C90.72,-280.1 96.47,-271.53 101.9,-263.45"/>
<polygon fill="grey" stroke="grey" stroke-width="2" points="104.62,-265.67 107.29,-255.41 98.81,-261.77 104.62,-265.67"/>
</g>
<!-- 4&#45;&gt;2 -->
<g id="edge4" class="edge">
<title>4&#45;&gt;2</title>
<path fill="none" stroke="grey" stroke-width="2" d="M109.14,-215.34C104.28,-208.1 98.53,-199.53 93.1,-191.45"/>
<polygon fill="grey" stroke="grey" stroke-width="2" points="96.19,-189.77 87.71,-183.41 90.38,-193.67 96.19,-189.77"/>
</g>
</g>
</svg>
