<?xml version="1.0" encoding="UTF-8" standalone="no"?>
<!DOCTYPE svg PUBLIC "-//W3C//DTD SVG 1.1//EN"
 "http://www.w3.org/Graphics/SVG/1.1/DTD/svg11.dtd">
<!-- Generated by graphviz version 12.2.1 (20241206.2353)
 -->
<!-- Title: snakemake_dag Pages: 1 -->
<svg width="480pt" height="692pt"
 viewBox="0.00 0.00 480.12 692.00" xmlns="http://www.w3.org/2000/svg" xmlns:xlink="http://www.w3.org/1999/xlink">
<g id="graph0" class="graph" transform="scale(1 1) rotate(0) translate(4 688)">
<title>snakemake_dag</title>
<polygon fill="white" stroke="none" points="-4,4 -4,-688 476.12,-688 476.12,4 -4,4"/>
<!-- 0 -->
<g id="node1" class="node">
<title>0</title>
<path fill="none" stroke="#88d856" stroke-width="2" d="M255.38,-36C255.38,-36 225.38,-36 225.38,-36 219.38,-36 213.38,-30 213.38,-24 213.38,-24 213.38,-12 213.38,-12 213.38,-6 219.38,0 225.38,0 225.38,0 255.38,0 255.38,0 261.38,0 267.38,-6 267.38,-12 267.38,-12 267.38,-24 267.38,-24 267.38,-30 261.38,-36 255.38,-36"/>
<text text-anchor="middle" x="240.38" y="-14.12" font-family="sans" font-size="10.00">all</text>
</g>
<!-- 1 -->
<g id="node2" class="node">
<title>1</title>
<path fill="none" stroke="#d85656" stroke-width="2" d="M213.75,-324C213.75,-324 143,-324 143,-324 137,-324 131,-318 131,-312 131,-312 131,-300 131,-300 131,-294 137,-288 143,-288 143,-288 213.75,-288 213.75,-288 219.75,-288 225.75,-294 225.75,-300 225.75,-300 225.75,-312 225.75,-312 225.75,-318 219.75,-324 213.75,-324"/>
<text text-anchor="middle" x="178.38" y="-302.12" font-family="sans" font-size="10.00">_copy_cnvkit_pon</text>
</g>
<!-- 1&#45;&gt;0 -->
<g id="edge2" class="edge">
<title>1&#45;&gt;0</title>
<path fill="none" stroke="grey" stroke-width="2" d="M179.68,-287.1C182.91,-247.56 192.78,-150.08 216.38,-72 218.76,-64.1 222.07,-55.84 225.47,-48.26"/>
<polygon fill="grey" stroke="grey" stroke-width="2" points="228.53,-49.97 229.65,-39.43 222.21,-46.97 228.53,-49.97"/>
</g>
<!-- 2 -->
<g id="node3" class="node">
<title>2</title>
<path fill="none" stroke="#56d8d0" stroke-width="2" d="M226.88,-468C226.88,-468 51.88,-468 51.88,-468 45.88,-468 39.88,-462 39.88,-456 39.88,-456 39.88,-444 39.88,-444 39.88,-438 45.88,-432 51.88,-432 51.88,-432 226.88,-432 226.88,-432 232.88,-432 238.88,-438 238.88,-444 238.88,-444 238.88,-456 238.88,-456 238.88,-462 232.88,-468 226.88,-468"/>
<text text-anchor="middle" x="139.38" y="-446.12" font-family="sans" font-size="10.00">references_cnvkit_build_normal_reference</text>
</g>
<!-- 2&#45;&gt;1 -->
<g id="edge3" class="edge">
<title>2&#45;&gt;1</title>
<path fill="none" stroke="grey" stroke-width="2" d="M144.31,-431.02C150.79,-407.44 162.24,-365.73 170.07,-337.25"/>
<polygon fill="grey" stroke="grey" stroke-width="2" points="173.4,-338.33 172.67,-327.76 166.65,-336.47 173.4,-338.33"/>
</g>
<!-- 3 -->
<g id="node4" class="node">
<title>3</title>
<path fill="none" stroke="#ced856" stroke-width="2" d="M364.25,-540C364.25,-540 260.5,-540 260.5,-540 254.5,-540 248.5,-534 248.5,-528 248.5,-528 248.5,-516 248.5,-516 248.5,-510 254.5,-504 260.5,-504 260.5,-504 364.25,-504 364.25,-504 370.25,-504 376.25,-510 376.25,-516 376.25,-516 376.25,-528 376.25,-528 376.25,-534 370.25,-540 364.25,-540"/>
<text text-anchor="middle" x="312.38" y="-518.12" font-family="sans" font-size="10.00">alignment_pbmm2_merge</text>
</g>
<!-- 3&#45;&gt;2 -->
<g id="edge6" class="edge">
<title>3&#45;&gt;2</title>
<path fill="none" stroke="grey" stroke-width="2" d="M268.27,-503.15C246.19,-494.22 219.22,-483.31 195.66,-473.77"/>
<polygon fill="grey" stroke="grey" stroke-width="2" points="197.09,-470.58 186.5,-470.07 194.46,-477.06 197.09,-470.58"/>
</g>
<!-- 11 -->
<g id="node12" class="node">
<title>11</title>
<path fill="none" stroke="#68d856" stroke-width="2" d="M421.25,-324C421.25,-324 305.5,-324 305.5,-324 299.5,-324 293.5,-318 293.5,-312 293.5,-312 293.5,-300 293.5,-300 293.5,-294 299.5,-288 305.5,-288 305.5,-288 421.25,-288 421.25,-288 427.25,-288 433.25,-294 433.25,-300 433.25,-300 433.25,-312 433.25,-312 433.25,-318 427.25,-324 421.25,-324"/>
<text text-anchor="middle" x="363.38" y="-302.12" font-family="sans" font-size="10.00">annotation_whatshap_phase</text>
</g>
<!-- 3&#45;&gt;11 -->
<g id="edge16" class="edge">
<title>3&#45;&gt;11</title>
<path fill="none" stroke="grey" stroke-width="2" d="M302.85,-503.42C287.51,-472.55 261.48,-407.37 286.38,-360 292.32,-348.69 301.9,-339.32 312.3,-331.77"/>
<polygon fill="grey" stroke="grey" stroke-width="2" points="313.92,-334.9 320.36,-326.48 310.07,-329.05 313.92,-334.9"/>
</g>
<!-- 12 -->
<g id="node13" class="node">
<title>12</title>
<path fill="none" stroke="#567bd8" stroke-width="2" d="M427.12,-396C427.12,-396 307.62,-396 307.62,-396 301.62,-396 295.62,-390 295.62,-384 295.62,-384 295.62,-372 295.62,-372 295.62,-366 301.62,-360 307.62,-360 307.62,-360 427.12,-360 427.12,-360 433.12,-360 439.12,-366 439.12,-372 439.12,-372 439.12,-384 439.12,-384 439.12,-390 433.12,-396 427.12,-396"/>
<text text-anchor="middle" x="367.38" y="-374.12" font-family="sans" font-size="10.00">references_deepsomatic_pon</text>
</g>
<!-- 3&#45;&gt;12 -->
<g id="edge18" class="edge">
<title>3&#45;&gt;12</title>
<path fill="none" stroke="grey" stroke-width="2" d="M314.11,-503.33C316.39,-484.93 321.33,-455.54 331.38,-432 335.01,-423.48 340.1,-414.89 345.3,-407.18"/>
<polygon fill="grey" stroke="grey" stroke-width="2" points="348.12,-409.26 351.09,-399.09 342.42,-405.18 348.12,-409.26"/>
</g>
<!-- 13 -->
<g id="node14" class="node">
<title>13</title>
<path fill="none" stroke="#afd856" stroke-width="2" d="M460.12,-468C460.12,-468 352.62,-468 352.62,-468 346.62,-468 340.62,-462 340.62,-456 340.62,-456 340.62,-444 340.62,-444 340.62,-438 346.62,-432 352.62,-432 352.62,-432 460.12,-432 460.12,-432 466.12,-432 472.12,-438 472.12,-444 472.12,-444 472.12,-456 472.12,-456 472.12,-462 466.12,-468 460.12,-468"/>
<text text-anchor="middle" x="406.38" y="-446.12" font-family="sans" font-size="10.00">alignment_samtools_index</text>
</g>
<!-- 3&#45;&gt;13 -->
<g id="edge19" class="edge">
<title>3&#45;&gt;13</title>
<path fill="none" stroke="grey" stroke-width="2" d="M336.1,-503.34C347.03,-495.19 360.22,-485.37 372.2,-476.45"/>
<polygon fill="grey" stroke="grey" stroke-width="2" points="373.98,-479.49 379.91,-470.71 369.8,-473.88 373.98,-479.49"/>
</g>
<!-- 4 -->
<g id="node5" class="node">
<title>4</title>
<path fill="none" stroke="#d89c56" stroke-width="2" d="M360.88,-612C360.88,-612 263.88,-612 263.88,-612 257.88,-612 251.88,-606 251.88,-600 251.88,-600 251.88,-588 251.88,-588 251.88,-582 257.88,-576 263.88,-576 263.88,-576 360.88,-576 360.88,-576 366.88,-576 372.88,-582 372.88,-588 372.88,-588 372.88,-600 372.88,-600 372.88,-606 366.88,-612 360.88,-612"/>
<text text-anchor="middle" x="312.38" y="-590.12" font-family="sans" font-size="10.00">alignment_pbmm2_align</text>
</g>
<!-- 4&#45;&gt;3 -->
<g id="edge7" class="edge">
<title>4&#45;&gt;3</title>
<path fill="none" stroke="grey" stroke-width="2" d="M312.38,-575.34C312.38,-568.75 312.38,-561.08 312.38,-553.67"/>
<polygon fill="grey" stroke="grey" stroke-width="2" points="315.88,-553.93 312.38,-543.93 308.88,-553.93 315.88,-553.93"/>
</g>
<!-- 5 -->
<g id="node6" class="node">
<title>5</title>
<path fill="none" stroke="#56d88a" stroke-width="2" d="M291.75,-684C291.75,-684 191,-684 191,-684 185,-684 179,-678 179,-672 179,-672 179,-660 179,-660 179,-654 185,-648 191,-648 191,-648 291.75,-648 291.75,-648 297.75,-648 303.75,-654 303.75,-660 303.75,-660 303.75,-672 303.75,-672 303.75,-678 297.75,-684 291.75,-684"/>
<text text-anchor="middle" x="241.38" y="-662.12" font-family="sans" font-size="10.00">prealignment_pbmarkdup</text>
</g>
<!-- 5&#45;&gt;4 -->
<g id="edge8" class="edge">
<title>5&#45;&gt;4</title>
<path fill="none" stroke="grey" stroke-width="2" d="M259.29,-647.34C267.14,-639.6 276.51,-630.36 285.19,-621.81"/>
<polygon fill="grey" stroke="grey" stroke-width="2" points="287.4,-624.54 292.06,-615.03 282.48,-619.56 287.4,-624.54"/>
</g>
<!-- 6 -->
<g id="node7" class="node">
<title>6</title>
<path fill="none" stroke="#d8bc56" stroke-width="2" d="M433.38,-684C433.38,-684 333.38,-684 333.38,-684 327.38,-684 321.38,-678 321.38,-672 321.38,-672 321.38,-660 321.38,-660 321.38,-654 327.38,-648 333.38,-648 333.38,-648 433.38,-648 433.38,-648 439.38,-648 445.38,-654 445.38,-660 445.38,-660 445.38,-672 445.38,-672 445.38,-678 439.38,-684 433.38,-684"/>
<text text-anchor="middle" x="383.38" y="-662.12" font-family="sans" font-size="10.00">alignment_pbmm2_index</text>
</g>
<!-- 6&#45;&gt;4 -->
<g id="edge9" class="edge">
<title>6&#45;&gt;4</title>
<path fill="none" stroke="grey" stroke-width="2" d="M365.46,-647.34C357.61,-639.6 348.24,-630.36 339.56,-621.81"/>
<polygon fill="grey" stroke="grey" stroke-width="2" points="342.27,-619.56 332.69,-615.03 337.35,-624.54 342.27,-619.56"/>
</g>
<!-- 7 -->
<g id="node8" class="node">
<title>7</title>
<path fill="none" stroke="#569ad8" stroke-width="2" d="M148.75,-612C148.75,-612 12,-612 12,-612 6,-612 0,-606 0,-600 0,-600 0,-588 0,-588 0,-582 6,-576 12,-576 12,-576 148.75,-576 148.75,-576 154.75,-576 160.75,-582 160.75,-588 160.75,-588 160.75,-600 160.75,-600 160.75,-606 154.75,-612 148.75,-612"/>
<text text-anchor="middle" x="80.38" y="-590.12" font-family="sans" font-size="10.00">references_cnvkit_create_targets</text>
</g>
<!-- 7&#45;&gt;2 -->
<g id="edge4" class="edge">
<title>7&#45;&gt;2</title>
<path fill="none" stroke="grey" stroke-width="2" d="M61.79,-575.02C45.11,-556.62 25.25,-527.47 39.38,-504 46.63,-491.95 57.64,-482.49 69.75,-475.12"/>
<polygon fill="grey" stroke="grey" stroke-width="2" points="71.34,-478.24 78.44,-470.38 67.99,-472.1 71.34,-478.24"/>
</g>
<!-- 8 -->
<g id="node9" class="node">
<title>8</title>
<path fill="none" stroke="#56c1d8" stroke-width="2" d="M218.25,-540C218.25,-540 60.5,-540 60.5,-540 54.5,-540 48.5,-534 48.5,-528 48.5,-528 48.5,-516 48.5,-516 48.5,-510 54.5,-504 60.5,-504 60.5,-504 218.25,-504 218.25,-504 224.25,-504 230.25,-510 230.25,-516 230.25,-516 230.25,-528 230.25,-528 230.25,-534 224.25,-540 218.25,-540"/>
<text text-anchor="middle" x="139.38" y="-518.12" font-family="sans" font-size="10.00">references_cnvkit_create_anti_targets</text>
</g>
<!-- 7&#45;&gt;8 -->
<g id="edge10" class="edge">
<title>7&#45;&gt;8</title>
<path fill="none" stroke="grey" stroke-width="2" d="M95.26,-575.34C101.57,-567.85 109.08,-558.95 116.09,-550.63"/>
<polygon fill="grey" stroke="grey" stroke-width="2" points="118.57,-553.12 122.34,-543.22 113.21,-548.61 118.57,-553.12"/>
</g>
<!-- 8&#45;&gt;2 -->
<g id="edge5" class="edge">
<title>8&#45;&gt;2</title>
<path fill="none" stroke="grey" stroke-width="2" d="M139.38,-503.34C139.38,-496.75 139.38,-489.08 139.38,-481.67"/>
<polygon fill="grey" stroke="grey" stroke-width="2" points="142.88,-481.93 139.38,-471.93 135.88,-481.93 142.88,-481.93"/>
</g>
<!-- 9 -->
<g id="node10" class="node">
<title>9</title>
<path fill="none" stroke="#d87556" stroke-width="2" d="M337.38,-108C337.38,-108 237.38,-108 237.38,-108 231.38,-108 225.38,-102 225.38,-96 225.38,-96 225.38,-84 225.38,-84 225.38,-78 231.38,-72 237.38,-72 237.38,-72 337.38,-72 337.38,-72 343.38,-72 349.38,-78 349.38,-84 349.38,-84 349.38,-96 349.38,-96 349.38,-102 343.38,-108 337.38,-108"/>
<text text-anchor="middle" x="287.38" y="-86.12" font-family="sans" font-size="10.00">_copy_deepsomatic_pon</text>
</g>
<!-- 9&#45;&gt;0 -->
<g id="edge1" class="edge">
<title>9&#45;&gt;0</title>
<path fill="none" stroke="grey" stroke-width="2" d="M275.51,-71.34C270.65,-64.1 264.9,-55.53 259.48,-47.45"/>
<polygon fill="grey" stroke="grey" stroke-width="2" points="262.56,-45.77 254.08,-39.41 256.75,-49.67 262.56,-45.77"/>
</g>
<!-- 10 -->
<g id="node11" class="node">
<title>10</title>
<path fill="none" stroke="#56d8a9" stroke-width="2" d="M353.25,-180C353.25,-180 243.5,-180 243.5,-180 237.5,-180 231.5,-174 231.5,-168 231.5,-168 231.5,-156 231.5,-156 231.5,-150 237.5,-144 243.5,-144 243.5,-144 353.25,-144 353.25,-144 359.25,-144 365.25,-150 365.25,-156 365.25,-156 365.25,-168 365.25,-168 365.25,-174 359.25,-180 353.25,-180"/>
<text text-anchor="middle" x="298.38" y="-158.12" font-family="sans" font-size="10.00">references_bcftools_merge</text>
</g>
<!-- 10&#45;&gt;9 -->
<g id="edge11" class="edge">
<title>10&#45;&gt;9</title>
<path fill="none" stroke="grey" stroke-width="2" d="M295.6,-143.34C294.56,-136.75 293.36,-129.08 292.19,-121.67"/>
<polygon fill="grey" stroke="grey" stroke-width="2" points="295.67,-121.23 290.66,-111.89 288.75,-122.31 295.67,-121.23"/>
</g>
<!-- 11&#45;&gt;10 -->
<g id="edge12" class="edge">
<title>11&#45;&gt;10</title>
<path fill="none" stroke="grey" stroke-width="2" d="M343.75,-287.1C334.41,-277.55 323.9,-265.08 317.38,-252 308.32,-233.84 303.57,-211.49 301.08,-193.74"/>
<polygon fill="grey" stroke="grey" stroke-width="2" points="304.57,-193.45 299.92,-183.93 297.62,-194.27 304.57,-193.45"/>
</g>
<!-- 14 -->
<g id="node15" class="node">
<title>14</title>
<path fill="none" stroke="#56d86b" stroke-width="2" d="M388.25,-252C388.25,-252 338.5,-252 338.5,-252 332.5,-252 326.5,-246 326.5,-240 326.5,-240 326.5,-228 326.5,-228 326.5,-222 332.5,-216 338.5,-216 338.5,-216 388.25,-216 388.25,-216 394.25,-216 400.25,-222 400.25,-228 400.25,-228 400.25,-240 400.25,-240 400.25,-246 394.25,-252 388.25,-252"/>
<text text-anchor="middle" x="363.38" y="-230.12" font-family="sans" font-size="10.00">cnv_sv_tabix</text>
</g>
<!-- 11&#45;&gt;14 -->
<g id="edge20" class="edge">
<title>11&#45;&gt;14</title>
<path fill="none" stroke="grey" stroke-width="2" d="M363.38,-287.34C363.38,-280.75 363.38,-273.08 363.38,-265.67"/>
<polygon fill="grey" stroke="grey" stroke-width="2" points="366.88,-265.93 363.38,-255.93 359.88,-265.93 366.88,-265.93"/>
</g>
<!-- 12&#45;&gt;11 -->
<g id="edge15" class="edge">
<title>12&#45;&gt;11</title>
<path fill="none" stroke="grey" stroke-width="2" d="M366.37,-359.34C365.99,-352.75 365.55,-345.08 365.13,-337.67"/>
<polygon fill="grey" stroke="grey" stroke-width="2" points="368.64,-337.71 364.57,-327.92 361.65,-338.11 368.64,-337.71"/>
</g>
<!-- 13&#45;&gt;11 -->
<g id="edge14" class="edge">
<title>13&#45;&gt;11</title>
<path fill="none" stroke="grey" stroke-width="2" d="M424.95,-431.26C441.67,-413.05 461.72,-384.05 448.38,-360 441.92,-348.36 431.72,-338.94 420.6,-331.46"/>
<polygon fill="grey" stroke="grey" stroke-width="2" points="422.7,-328.64 412.34,-326.44 419.07,-334.62 422.7,-328.64"/>
</g>
<!-- 13&#45;&gt;12 -->
<g id="edge17" class="edge">
<title>13&#45;&gt;12</title>
<path fill="none" stroke="grey" stroke-width="2" d="M396.53,-431.34C392.64,-424.34 388.05,-416.12 383.69,-408.28"/>
<polygon fill="grey" stroke="grey" stroke-width="2" points="386.75,-406.58 378.82,-399.55 380.63,-409.99 386.75,-406.58"/>
</g>
<!-- 14&#45;&gt;10 -->
<g id="edge13" class="edge">
<title>14&#45;&gt;10</title>
<path fill="none" stroke="grey" stroke-width="2" d="M346.97,-215.34C339.94,-207.77 331.57,-198.75 323.77,-190.35"/>
<polygon fill="grey" stroke="grey" stroke-width="2" points="326.43,-188.07 317.06,-183.12 321.3,-192.83 326.43,-188.07"/>
</g>
</g>
</svg>
