<?xml version="1.0" encoding="UTF-8" standalone="no"?>
<!DOCTYPE svg PUBLIC "-//W3C//DTD SVG 1.1//EN"
 "http://www.w3.org/Graphics/SVG/1.1/DTD/svg11.dtd">
<!-- Generated by graphviz version 2.40.1 (0)
 -->
<!-- Title: snakemake_dag Pages: 1 -->
<svg width="1597pt" height="764pt"
 viewBox="0.00 0.00 1596.50 764.00" xmlns="http://www.w3.org/2000/svg" xmlns:xlink="http://www.w3.org/1999/xlink">
<g id="graph0" class="graph" transform="scale(1 1) rotate(0) translate(4 760)">
<title>snakemake_dag</title>
<polygon fill="#ffffff" stroke="transparent" points="-4,4 -4,-760 1592.5,-760 1592.5,4 -4,4"/>
<!-- 0 -->
<g id="node1" class="node">
<title>0</title>
<path fill="none" stroke="#d87556" stroke-width="2" d="M700.5,-36C700.5,-36 670.5,-36 670.5,-36 664.5,-36 658.5,-30 658.5,-24 658.5,-24 658.5,-12 658.5,-12 658.5,-6 664.5,0 670.5,0 670.5,0 700.5,0 700.5,0 706.5,0 712.5,-6 712.5,-12 712.5,-12 712.5,-24 712.5,-24 712.5,-30 706.5,-36 700.5,-36"/>
<text text-anchor="middle" x="685.5" y="-15.5" font-family="sans" font-size="10.00" fill="#000000">all</text>
</g>
<!-- 1 -->
<g id="node2" class="node">
<title>1</title>
<path fill="none" stroke="#56d0d8" stroke-width="2" d="M405.5,-108C405.5,-108 325.5,-108 325.5,-108 319.5,-108 313.5,-102 313.5,-96 313.5,-96 313.5,-84 313.5,-84 313.5,-78 319.5,-72 325.5,-72 325.5,-72 405.5,-72 405.5,-72 411.5,-72 417.5,-78 417.5,-84 417.5,-84 417.5,-96 417.5,-96 417.5,-102 411.5,-108 405.5,-108"/>
<text text-anchor="middle" x="365.5" y="-87.5" font-family="sans" font-size="10.00" fill="#000000">_copy_cnvkit_pon</text>
</g>
<!-- 1&#45;&gt;0 -->
<g id="edge2" class="edge">
<title>1&#45;&gt;0</title>
<path fill="none" stroke="#c0c0c0" stroke-width="2" d="M417.6257,-78.2717C482.4814,-63.6792 591.6004,-39.1274 648.4853,-26.3283"/>
<polygon fill="#c0c0c0" stroke="#c0c0c0" stroke-width="2" points="649.4889,-29.6901 658.4766,-24.0803 647.9522,-22.8608 649.4889,-29.6901"/>
</g>
<!-- 2 -->
<g id="node3" class="node">
<title>2</title>
<path fill="none" stroke="#d8c356" stroke-width="2" d="M247.5,-540C247.5,-540 47.5,-540 47.5,-540 41.5,-540 35.5,-534 35.5,-528 35.5,-528 35.5,-516 35.5,-516 35.5,-510 41.5,-504 47.5,-504 47.5,-504 247.5,-504 247.5,-504 253.5,-504 259.5,-510 259.5,-516 259.5,-516 259.5,-528 259.5,-528 259.5,-534 253.5,-540 247.5,-540"/>
<text text-anchor="middle" x="147.5" y="-519.5" font-family="sans" font-size="10.00" fill="#000000">references_cnvkit_build_normal_reference</text>
</g>
<!-- 2&#45;&gt;1 -->
<g id="edge5" class="edge">
<title>2&#45;&gt;1</title>
<path fill="none" stroke="#c0c0c0" stroke-width="2" d="M151.644,-503.9265C157.5021,-476.7528 167.5,-423.6844 167.5,-378 167.5,-378 167.5,-378 167.5,-234 167.5,-165.5527 245.8478,-126.2378 303.975,-106.4886"/>
<polygon fill="#c0c0c0" stroke="#c0c0c0" stroke-width="2" points="305.0674,-109.8138 313.4778,-103.3706 302.885,-103.1627 305.0674,-109.8138"/>
</g>
<!-- 3 -->
<g id="node4" class="node">
<title>3</title>
<path fill="none" stroke="#56d873" stroke-width="2" d="M943.5,-612C943.5,-612 821.5,-612 821.5,-612 815.5,-612 809.5,-606 809.5,-600 809.5,-600 809.5,-588 809.5,-588 809.5,-582 815.5,-576 821.5,-576 821.5,-576 943.5,-576 943.5,-576 949.5,-576 955.5,-582 955.5,-588 955.5,-588 955.5,-600 955.5,-600 955.5,-606 949.5,-612 943.5,-612"/>
<text text-anchor="middle" x="882.5" y="-591.5" font-family="sans" font-size="10.00" fill="#000000">alignment_pbmm2_merge</text>
</g>
<!-- 3&#45;&gt;2 -->
<g id="edge6" class="edge">
<title>3&#45;&gt;2</title>
<path fill="none" stroke="#c0c0c0" stroke-width="2" d="M809.1057,-588.9746C695.7076,-580.8935 470.8602,-563.613 269.7047,-540.1043"/>
<polygon fill="#c0c0c0" stroke="#c0c0c0" stroke-width="2" points="269.8785,-536.6007 259.538,-538.9084 269.0606,-543.5527 269.8785,-536.6007"/>
</g>
<!-- 11 -->
<g id="node12" class="node">
<title>11</title>
<path fill="none" stroke="#afd856" stroke-width="2" d="M925,-396C925,-396 794,-396 794,-396 788,-396 782,-390 782,-384 782,-384 782,-372 782,-372 782,-366 788,-360 794,-360 794,-360 925,-360 925,-360 931,-360 937,-366 937,-372 937,-372 937,-384 937,-384 937,-390 931,-396 925,-396"/>
<text text-anchor="middle" x="859.5" y="-375.5" font-family="sans" font-size="10.00" fill="#000000">snv_indels_whatshap_phase</text>
</g>
<!-- 3&#45;&gt;11 -->
<g id="edge16" class="edge">
<title>3&#45;&gt;11</title>
<path fill="none" stroke="#c0c0c0" stroke-width="2" d="M858.763,-575.7274C832.2108,-553.5994 790.7895,-513.5792 774.5,-468 769.1153,-452.9333 766.7953,-446.0228 774.5,-432 781.41,-419.4235 792.6267,-409.3606 804.6782,-401.4922"/>
<polygon fill="#c0c0c0" stroke="#c0c0c0" stroke-width="2" points="806.7922,-404.3047 813.5514,-396.1461 803.1797,-398.3089 806.7922,-404.3047"/>
</g>
<!-- 12 -->
<g id="node13" class="node">
<title>12</title>
<path fill="none" stroke="#88d856" stroke-width="2" d="M931.5,-468C931.5,-468 795.5,-468 795.5,-468 789.5,-468 783.5,-462 783.5,-456 783.5,-456 783.5,-444 783.5,-444 783.5,-438 789.5,-432 795.5,-432 795.5,-432 931.5,-432 931.5,-432 937.5,-432 943.5,-438 943.5,-444 943.5,-444 943.5,-456 943.5,-456 943.5,-462 937.5,-468 931.5,-468"/>
<text text-anchor="middle" x="863.5" y="-447.5" font-family="sans" font-size="10.00" fill="#000000">references_deepsomatic_pon</text>
</g>
<!-- 3&#45;&gt;12 -->
<g id="edge19" class="edge">
<title>3&#45;&gt;12</title>
<path fill="none" stroke="#c0c0c0" stroke-width="2" d="M863.45,-575.8859C854.643,-566.1885 845.1254,-553.4808 840.5,-540 833.4343,-519.4068 840.2168,-495.5047 848.2069,-477.5104"/>
<polygon fill="#c0c0c0" stroke="#c0c0c0" stroke-width="2" points="851.5139,-478.7093 852.6898,-468.1799 845.2043,-475.6778 851.5139,-478.7093"/>
</g>
<!-- 13 -->
<g id="node14" class="node">
<title>13</title>
<path fill="none" stroke="#56d8c1" stroke-width="2" d="M1028,-540C1028,-540 861,-540 861,-540 855,-540 849,-534 849,-528 849,-528 849,-516 849,-516 849,-510 855,-504 861,-504 861,-504 1028,-504 1028,-504 1034,-504 1040,-510 1040,-516 1040,-516 1040,-528 1040,-528 1040,-534 1034,-540 1028,-540"/>
<text text-anchor="middle" x="944.5" y="-519.5" font-family="sans" font-size="10.00" fill="#000000">alignment_samtools_index_pbmm2</text>
</g>
<!-- 3&#45;&gt;13 -->
<g id="edge21" class="edge">
<title>3&#45;&gt;13</title>
<path fill="none" stroke="#c0c0c0" stroke-width="2" d="M898.1452,-575.8314C905.3591,-567.454 914.057,-557.3531 921.9605,-548.1749"/>
<polygon fill="#c0c0c0" stroke="#c0c0c0" stroke-width="2" points="924.7711,-550.2748 928.6441,-540.4133 919.4667,-545.7071 924.7711,-550.2748"/>
</g>
<!-- 19 -->
<g id="node20" class="node">
<title>19</title>
<path fill="none" stroke="#9fd856" stroke-width="2" d="M715,-468C715,-468 614,-468 614,-468 608,-468 602,-462 602,-456 602,-456 602,-444 602,-444 602,-438 608,-432 614,-432 614,-432 715,-432 715,-432 721,-432 727,-438 727,-444 727,-444 727,-456 727,-456 727,-462 721,-468 715,-468"/>
<text text-anchor="middle" x="664.5" y="-447.5" font-family="sans" font-size="10.00" fill="#000000">cnv_sv_pbsv_discover</text>
</g>
<!-- 3&#45;&gt;19 -->
<g id="edge30" class="edge">
<title>3&#45;&gt;19</title>
<path fill="none" stroke="#c0c0c0" stroke-width="2" d="M815.6063,-575.9931C790.959,-567.4605 763.6685,-555.6402 741.5,-540 717.2035,-522.8585 695.7875,-496.3667 681.7498,-476.5568"/>
<polygon fill="#c0c0c0" stroke="#c0c0c0" stroke-width="2" points="684.5788,-474.4941 676.0171,-468.2532 678.8183,-478.4711 684.5788,-474.4941"/>
</g>
<!-- 24 -->
<g id="node25" class="node">
<title>24</title>
<path fill="none" stroke="#bed856" stroke-width="2" d="M572,-468C572,-468 467,-468 467,-468 461,-468 455,-462 455,-456 455,-456 455,-444 455,-444 455,-438 461,-432 467,-432 467,-432 572,-432 572,-432 578,-432 584,-438 584,-444 584,-444 584,-456 584,-456 584,-462 578,-468 572,-468"/>
<text text-anchor="middle" x="519.5" y="-447.5" font-family="sans" font-size="10.00" fill="#000000">cnv_sv_severus_t_only</text>
</g>
<!-- 3&#45;&gt;24 -->
<g id="edge36" class="edge">
<title>3&#45;&gt;24</title>
<path fill="none" stroke="#c0c0c0" stroke-width="2" d="M811.0979,-575.8972C777.1311,-566.5078 736.2295,-554.0613 700.5,-540 651.1875,-520.5931 597.073,-492.7663 560.9794,-473.2054"/>
<polygon fill="#c0c0c0" stroke="#c0c0c0" stroke-width="2" points="562.2062,-469.8877 551.7513,-468.1713 558.8539,-476.0328 562.2062,-469.8877"/>
</g>
<!-- 28 -->
<g id="node29" class="node">
<title>28</title>
<path fill="none" stroke="#56b1d8" stroke-width="2" d="M1069.5,-468C1069.5,-468 1011.5,-468 1011.5,-468 1005.5,-468 999.5,-462 999.5,-456 999.5,-456 999.5,-444 999.5,-444 999.5,-438 1005.5,-432 1011.5,-432 1011.5,-432 1069.5,-432 1069.5,-432 1075.5,-432 1081.5,-438 1081.5,-444 1081.5,-444 1081.5,-456 1081.5,-456 1081.5,-462 1075.5,-468 1069.5,-468"/>
<text text-anchor="middle" x="1040.5" y="-447.5" font-family="sans" font-size="10.00" fill="#000000">qc_mosdepth</text>
</g>
<!-- 3&#45;&gt;28 -->
<g id="edge44" class="edge">
<title>3&#45;&gt;28</title>
<path fill="none" stroke="#c0c0c0" stroke-width="2" d="M955.5742,-579.2718C994.964,-569.6902 1037.8468,-556.0153 1049.5,-540 1062.4815,-522.1592 1058.5017,-496.7904 1052.2688,-477.5317"/>
<polygon fill="#c0c0c0" stroke="#c0c0c0" stroke-width="2" points="1055.5529,-476.3208 1048.8819,-468.0899 1048.964,-478.6844 1055.5529,-476.3208"/>
</g>
<!-- 30 -->
<g id="node31" class="node">
<title>30</title>
<path fill="none" stroke="#56a2d8" stroke-width="2" d="M1514,-468C1514,-468 1379,-468 1379,-468 1373,-468 1367,-462 1367,-456 1367,-456 1367,-444 1367,-444 1367,-438 1373,-432 1379,-432 1379,-432 1514,-432 1514,-432 1520,-432 1526,-438 1526,-444 1526,-444 1526,-456 1526,-456 1526,-462 1520,-468 1514,-468"/>
<text text-anchor="middle" x="1446.5" y="-447.5" font-family="sans" font-size="10.00" fill="#000000">qc_picard_collect_hs_metrics</text>
</g>
<!-- 3&#45;&gt;30 -->
<g id="edge47" class="edge">
<title>3&#45;&gt;30</title>
<path fill="none" stroke="#c0c0c0" stroke-width="2" d="M955.6673,-577.8944C1001.8957,-567.526 1062.8263,-553.5067 1116.5,-540 1205.1014,-517.704 1306.3969,-489.7007 1373.1273,-470.903"/>
<polygon fill="#c0c0c0" stroke="#c0c0c0" stroke-width="2" points="1374.4502,-474.1664 1383.1244,-468.0829 1372.5497,-467.4294 1374.4502,-474.1664"/>
</g>
<!-- 33 -->
<g id="node34" class="node">
<title>33</title>
<path fill="none" stroke="#ced856" stroke-width="2" d="M1337,-468C1337,-468 1112,-468 1112,-468 1106,-468 1100,-462 1100,-456 1100,-456 1100,-444 1100,-444 1100,-438 1106,-432 1112,-432 1112,-432 1337,-432 1337,-432 1343,-432 1349,-438 1349,-444 1349,-444 1349,-456 1349,-456 1349,-462 1343,-468 1337,-468"/>
<text text-anchor="middle" x="1224.5" y="-447.5" font-family="sans" font-size="10.00" fill="#000000">qc_picard_collect_alignment_summary_metrics</text>
</g>
<!-- 3&#45;&gt;33 -->
<g id="edge51" class="edge">
<title>3&#45;&gt;33</title>
<path fill="none" stroke="#c0c0c0" stroke-width="2" d="M955.9268,-576.8472C990.4535,-567.7066 1031.7863,-555.1947 1067.5,-540 1111.0475,-521.4723 1157.7041,-493.5886 1188.7342,-473.7736"/>
<polygon fill="#c0c0c0" stroke="#c0c0c0" stroke-width="2" points="1190.9384,-476.5171 1197.4486,-468.1583 1187.1468,-470.6329 1190.9384,-476.5171"/>
</g>
<!-- 4 -->
<g id="node5" class="node">
<title>4</title>
<path fill="none" stroke="#68d856" stroke-width="2" d="M1258.5,-684C1258.5,-684 1144.5,-684 1144.5,-684 1138.5,-684 1132.5,-678 1132.5,-672 1132.5,-672 1132.5,-660 1132.5,-660 1132.5,-654 1138.5,-648 1144.5,-648 1144.5,-648 1258.5,-648 1258.5,-648 1264.5,-648 1270.5,-654 1270.5,-660 1270.5,-660 1270.5,-672 1270.5,-672 1270.5,-678 1264.5,-684 1258.5,-684"/>
<text text-anchor="middle" x="1201.5" y="-663.5" font-family="sans" font-size="10.00" fill="#000000">alignment_pbmm2_align</text>
</g>
<!-- 4&#45;&gt;3 -->
<g id="edge9" class="edge">
<title>4&#45;&gt;3</title>
<path fill="none" stroke="#c0c0c0" stroke-width="2" d="M1132.2818,-650.3771C1083.3056,-639.3229 1017.3957,-624.4467 965.5778,-612.7511"/>
<polygon fill="#c0c0c0" stroke="#c0c0c0" stroke-width="2" points="966.2681,-609.3189 955.7429,-610.5313 964.7269,-616.1472 966.2681,-609.3189"/>
</g>
<!-- 29 -->
<g id="node30" class="node">
<title>29</title>
<path fill="none" stroke="#5682d8" stroke-width="2" d="M1576.5,-540C1576.5,-540 1532.5,-540 1532.5,-540 1526.5,-540 1520.5,-534 1520.5,-528 1520.5,-528 1520.5,-516 1520.5,-516 1520.5,-510 1526.5,-504 1532.5,-504 1532.5,-504 1576.5,-504 1576.5,-504 1582.5,-504 1588.5,-510 1588.5,-516 1588.5,-516 1588.5,-528 1588.5,-528 1588.5,-534 1582.5,-540 1576.5,-540"/>
<text text-anchor="middle" x="1554.5" y="-519.5" font-family="sans" font-size="10.00" fill="#000000">qc_sequali</text>
</g>
<!-- 4&#45;&gt;29 -->
<g id="edge46" class="edge">
<title>4&#45;&gt;29</title>
<path fill="none" stroke="#c0c0c0" stroke-width="2" d="M1270.709,-656.9115C1338.3989,-647.1638 1436.0356,-630.5606 1469.5,-612 1497.2927,-596.5851 1521.3387,-568.9489 1536.693,-548.3537"/>
<polygon fill="#c0c0c0" stroke="#c0c0c0" stroke-width="2" points="1539.7005,-550.1678 1542.7269,-540.0144 1534.0293,-546.0644 1539.7005,-550.1678"/>
</g>
<!-- 5 -->
<g id="node6" class="node">
<title>5</title>
<path fill="none" stroke="#56d8b1" stroke-width="2" d="M1181,-756C1181,-756 1062,-756 1062,-756 1056,-756 1050,-750 1050,-744 1050,-744 1050,-732 1050,-732 1050,-726 1056,-720 1062,-720 1062,-720 1181,-720 1181,-720 1187,-720 1193,-726 1193,-732 1193,-732 1193,-744 1193,-744 1193,-750 1187,-756 1181,-756"/>
<text text-anchor="middle" x="1121.5" y="-735.5" font-family="sans" font-size="10.00" fill="#000000">prealignment_pbmarkdup</text>
</g>
<!-- 5&#45;&gt;4 -->
<g id="edge11" class="edge">
<title>5&#45;&gt;4</title>
<path fill="none" stroke="#c0c0c0" stroke-width="2" d="M1141.6874,-719.8314C1151.3514,-711.1337 1163.0796,-700.5783 1173.5816,-691.1265"/>
<polygon fill="#c0c0c0" stroke="#c0c0c0" stroke-width="2" points="1176.2275,-693.454 1181.3191,-684.1628 1171.5447,-688.251 1176.2275,-693.454"/>
</g>
<!-- 6 -->
<g id="node7" class="node">
<title>6</title>
<path fill="none" stroke="#56d882" stroke-width="2" d="M1340,-756C1340,-756 1223,-756 1223,-756 1217,-756 1211,-750 1211,-744 1211,-744 1211,-732 1211,-732 1211,-726 1217,-720 1223,-720 1223,-720 1340,-720 1340,-720 1346,-720 1352,-726 1352,-732 1352,-732 1352,-744 1352,-744 1352,-750 1346,-756 1340,-756"/>
<text text-anchor="middle" x="1281.5" y="-735.5" font-family="sans" font-size="10.00" fill="#000000">alignment_pbmm2_index</text>
</g>
<!-- 6&#45;&gt;4 -->
<g id="edge10" class="edge">
<title>6&#45;&gt;4</title>
<path fill="none" stroke="#c0c0c0" stroke-width="2" d="M1261.3126,-719.8314C1251.6486,-711.1337 1239.9204,-700.5783 1229.4184,-691.1265"/>
<polygon fill="#c0c0c0" stroke="#c0c0c0" stroke-width="2" points="1231.4553,-688.251 1221.6809,-684.1628 1226.7725,-693.454 1231.4553,-688.251"/>
</g>
<!-- 7 -->
<g id="node8" class="node">
<title>7</title>
<path fill="none" stroke="#d8a456" stroke-width="2" d="M167,-684C167,-684 12,-684 12,-684 6,-684 0,-678 0,-672 0,-672 0,-660 0,-660 0,-654 6,-648 12,-648 12,-648 167,-648 167,-648 173,-648 179,-654 179,-660 179,-660 179,-672 179,-672 179,-678 173,-684 167,-684"/>
<text text-anchor="middle" x="89.5" y="-663.5" font-family="sans" font-size="10.00" fill="#000000">references_cnvkit_create_targets</text>
</g>
<!-- 7&#45;&gt;2 -->
<g id="edge7" class="edge">
<title>7&#45;&gt;2</title>
<path fill="none" stroke="#c0c0c0" stroke-width="2" d="M69.1373,-647.9918C50.807,-629.5172 28.8311,-600.145 43.5,-576 51.6019,-562.6642 64.1845,-552.4722 77.8357,-544.7371"/>
<polygon fill="#c0c0c0" stroke="#c0c0c0" stroke-width="2" points="79.6739,-547.726 86.9244,-540.0006 76.4388,-541.5184 79.6739,-547.726"/>
</g>
<!-- 8 -->
<g id="node9" class="node">
<title>8</title>
<path fill="none" stroke="#d85656" stroke-width="2" d="M244,-612C244,-612 65,-612 65,-612 59,-612 53,-606 53,-600 53,-600 53,-588 53,-588 53,-582 59,-576 65,-576 65,-576 244,-576 244,-576 250,-576 256,-582 256,-588 256,-588 256,-600 256,-600 256,-606 250,-612 244,-612"/>
<text text-anchor="middle" x="154.5" y="-591.5" font-family="sans" font-size="10.00" fill="#000000">references_cnvkit_create_anti_targets</text>
</g>
<!-- 7&#45;&gt;8 -->
<g id="edge12" class="edge">
<title>7&#45;&gt;8</title>
<path fill="none" stroke="#c0c0c0" stroke-width="2" d="M105.9022,-647.8314C113.5415,-639.3694 122.7683,-629.1489 131.1207,-619.8971"/>
<polygon fill="#c0c0c0" stroke="#c0c0c0" stroke-width="2" points="133.7738,-622.1813 137.8769,-612.4133 128.5779,-617.4906 133.7738,-622.1813"/>
</g>
<!-- 8&#45;&gt;2 -->
<g id="edge8" class="edge">
<title>8&#45;&gt;2</title>
<path fill="none" stroke="#c0c0c0" stroke-width="2" d="M152.7336,-575.8314C151.985,-568.131 151.0947,-558.9743 150.2627,-550.4166"/>
<polygon fill="#c0c0c0" stroke="#c0c0c0" stroke-width="2" points="153.7415,-550.0276 149.2902,-540.4133 146.7744,-550.7051 153.7415,-550.0276"/>
</g>
<!-- 9 -->
<g id="node10" class="node">
<title>9</title>
<path fill="none" stroke="#5673d8" stroke-width="2" d="M812,-180C812,-180 745,-180 745,-180 739,-180 733,-174 733,-168 733,-168 733,-156 733,-156 733,-150 739,-144 745,-144 745,-144 812,-144 812,-144 818,-144 824,-150 824,-156 824,-156 824,-168 824,-168 824,-174 818,-180 812,-180"/>
<text text-anchor="middle" x="778.5" y="-159.5" font-family="sans" font-size="10.00" fill="#000000">_copy_snv_pon</text>
</g>
<!-- 9&#45;&gt;0 -->
<g id="edge3" class="edge">
<title>9&#45;&gt;0</title>
<path fill="none" stroke="#c0c0c0" stroke-width="2" d="M766.7215,-143.7623C750.5795,-118.7682 721.468,-73.6924 702.8347,-44.8409"/>
<polygon fill="#c0c0c0" stroke="#c0c0c0" stroke-width="2" points="705.5483,-42.5912 697.1829,-36.0896 699.668,-46.3889 705.5483,-42.5912"/>
</g>
<!-- 10 -->
<g id="node11" class="node">
<title>10</title>
<path fill="none" stroke="#59d856" stroke-width="2" d="M865.5,-252C865.5,-252 717.5,-252 717.5,-252 711.5,-252 705.5,-246 705.5,-240 705.5,-240 705.5,-228 705.5,-228 705.5,-222 711.5,-216 717.5,-216 717.5,-216 865.5,-216 865.5,-216 871.5,-216 877.5,-222 877.5,-228 877.5,-228 877.5,-240 877.5,-240 877.5,-246 871.5,-252 865.5,-252"/>
<text text-anchor="middle" x="791.5" y="-231.5" font-family="sans" font-size="10.00" fill="#000000">references_snv_bcftools_merge</text>
</g>
<!-- 10&#45;&gt;9 -->
<g id="edge13" class="edge">
<title>10&#45;&gt;9</title>
<path fill="none" stroke="#c0c0c0" stroke-width="2" d="M788.2196,-215.8314C786.8292,-208.131 785.1759,-198.9743 783.6308,-190.4166"/>
<polygon fill="#c0c0c0" stroke="#c0c0c0" stroke-width="2" points="787.0458,-189.6322 781.8246,-180.4133 780.1572,-190.8761 787.0458,-189.6322"/>
</g>
<!-- 11&#45;&gt;10 -->
<g id="edge15" class="edge">
<title>11&#45;&gt;10</title>
<path fill="none" stroke="#c0c0c0" stroke-width="2" d="M838.5595,-359.925C828.6121,-350.2376 817.4134,-337.5269 810.5,-324 800.6582,-304.7432 795.912,-280.6749 793.6245,-262.2742"/>
<polygon fill="#c0c0c0" stroke="#c0c0c0" stroke-width="2" points="797.0878,-261.7443 792.5418,-252.1743 790.1277,-262.4905 797.0878,-261.7443"/>
</g>
<!-- 14 -->
<g id="node15" class="node">
<title>14</title>
<path fill="none" stroke="#56d892" stroke-width="2" d="M887.5,-324C887.5,-324 831.5,-324 831.5,-324 825.5,-324 819.5,-318 819.5,-312 819.5,-312 819.5,-300 819.5,-300 819.5,-294 825.5,-288 831.5,-288 831.5,-288 887.5,-288 887.5,-288 893.5,-288 899.5,-294 899.5,-300 899.5,-300 899.5,-312 899.5,-312 899.5,-318 893.5,-324 887.5,-324"/>
<text text-anchor="middle" x="859.5" y="-303.5" font-family="sans" font-size="10.00" fill="#000000">cnv_sv_tabix</text>
</g>
<!-- 11&#45;&gt;14 -->
<g id="edge22" class="edge">
<title>11&#45;&gt;14</title>
<path fill="none" stroke="#c0c0c0" stroke-width="2" d="M859.5,-359.8314C859.5,-352.131 859.5,-342.9743 859.5,-334.4166"/>
<polygon fill="#c0c0c0" stroke="#c0c0c0" stroke-width="2" points="863.0001,-334.4132 859.5,-324.4133 856.0001,-334.4133 863.0001,-334.4132"/>
</g>
<!-- 12&#45;&gt;11 -->
<g id="edge18" class="edge">
<title>12&#45;&gt;11</title>
<path fill="none" stroke="#c0c0c0" stroke-width="2" d="M862.4906,-431.8314C862.0628,-424.131 861.5541,-414.9743 861.0787,-406.4166"/>
<polygon fill="#c0c0c0" stroke="#c0c0c0" stroke-width="2" points="864.5724,-406.2037 860.523,-396.4133 857.5831,-406.592 864.5724,-406.2037"/>
</g>
<!-- 13&#45;&gt;11 -->
<g id="edge17" class="edge">
<title>13&#45;&gt;11</title>
<path fill="none" stroke="#c0c0c0" stroke-width="2" d="M951.9511,-503.7703C958.5257,-484.5871 965.2573,-454.1593 952.5,-432 945.0828,-419.1163 933.2825,-409.0231 920.5433,-401.2309"/>
<polygon fill="#c0c0c0" stroke="#c0c0c0" stroke-width="2" points="922.0461,-398.0602 911.6162,-396.1978 918.6082,-404.1579 922.0461,-398.0602"/>
</g>
<!-- 13&#45;&gt;12 -->
<g id="edge20" class="edge">
<title>13&#45;&gt;12</title>
<path fill="none" stroke="#c0c0c0" stroke-width="2" d="M924.0603,-503.8314C914.1795,-495.0485 902.1676,-484.3712 891.455,-474.8489"/>
<polygon fill="#c0c0c0" stroke="#c0c0c0" stroke-width="2" points="893.7326,-472.1906 883.9332,-468.1628 889.082,-477.4224 893.7326,-472.1906"/>
</g>
<!-- 13&#45;&gt;19 -->
<g id="edge31" class="edge">
<title>13&#45;&gt;19</title>
<path fill="none" stroke="#c0c0c0" stroke-width="2" d="M874.2056,-503.9243C832.3634,-493.1649 779.3685,-479.5376 737.1221,-468.6743"/>
<polygon fill="#c0c0c0" stroke="#c0c0c0" stroke-width="2" points="737.7368,-465.2185 727.1802,-466.1178 735.9934,-471.998 737.7368,-465.2185"/>
</g>
<!-- 13&#45;&gt;24 -->
<g id="edge37" class="edge">
<title>13&#45;&gt;24</title>
<path fill="none" stroke="#c0c0c0" stroke-width="2" d="M848.8534,-509.6853C780.3264,-500.3112 685.6788,-486.2441 594.287,-468.2795"/>
<polygon fill="#c0c0c0" stroke="#c0c0c0" stroke-width="2" points="594.8012,-464.8133 584.3112,-466.3002 593.4389,-471.6795 594.8012,-464.8133"/>
</g>
<!-- 13&#45;&gt;28 -->
<g id="edge45" class="edge">
<title>13&#45;&gt;28</title>
<path fill="none" stroke="#c0c0c0" stroke-width="2" d="M968.7249,-503.8314C980.6628,-494.8779 995.2256,-483.9558 1008.106,-474.2955"/>
<polygon fill="#c0c0c0" stroke="#c0c0c0" stroke-width="2" points="1010.3829,-476.9629 1016.2829,-468.1628 1006.1829,-471.3629 1010.3829,-476.9629"/>
</g>
<!-- 13&#45;&gt;30 -->
<g id="edge49" class="edge">
<title>13&#45;&gt;30</title>
<path fill="none" stroke="#c0c0c0" stroke-width="2" d="M1040.1612,-511.5041C1121.8762,-502.0799 1242.7548,-487.0567 1356.9553,-468.203"/>
<polygon fill="#c0c0c0" stroke="#c0c0c0" stroke-width="2" points="1357.6325,-471.6386 1366.9225,-466.5448 1356.4837,-464.7335 1357.6325,-471.6386"/>
</g>
<!-- 13&#45;&gt;33 -->
<g id="edge52" class="edge">
<title>13&#45;&gt;33</title>
<path fill="none" stroke="#c0c0c0" stroke-width="2" d="M1014.7944,-503.9243C1054.1538,-493.8033 1103.3818,-481.1447 1144.2487,-470.6361"/>
<polygon fill="#c0c0c0" stroke="#c0c0c0" stroke-width="2" points="1145.3634,-473.9634 1154.1767,-468.0831 1143.6201,-467.1839 1145.3634,-473.9634"/>
</g>
<!-- 14&#45;&gt;10 -->
<g id="edge14" class="edge">
<title>14&#45;&gt;10</title>
<path fill="none" stroke="#c0c0c0" stroke-width="2" d="M842.3407,-287.8314C834.3489,-279.3694 824.6962,-269.1489 815.9584,-259.8971"/>
<polygon fill="#c0c0c0" stroke="#c0c0c0" stroke-width="2" points="818.3011,-257.2802 808.8903,-252.4133 813.212,-262.0866 818.3011,-257.2802"/>
</g>
<!-- 15 -->
<g id="node16" class="node">
<title>15</title>
<path fill="none" stroke="#5663d8" stroke-width="2" d="M681,-108C681,-108 620,-108 620,-108 614,-108 608,-102 608,-96 608,-96 608,-84 608,-84 608,-78 614,-72 620,-72 620,-72 681,-72 681,-72 687,-72 693,-78 693,-84 693,-84 693,-96 693,-96 693,-102 687,-108 681,-108"/>
<text text-anchor="middle" x="650.5" y="-87.5" font-family="sans" font-size="10.00" fill="#000000">_copy_sv_pon</text>
</g>
<!-- 15&#45;&gt;0 -->
<g id="edge4" class="edge">
<title>15&#45;&gt;0</title>
<path fill="none" stroke="#c0c0c0" stroke-width="2" d="M659.332,-71.8314C663.1986,-63.8771 667.8206,-54.369 672.0968,-45.5723"/>
<polygon fill="#c0c0c0" stroke="#c0c0c0" stroke-width="2" points="675.3249,-46.9371 676.5491,-36.4133 669.0293,-43.8768 675.3249,-46.9371"/>
</g>
<!-- 16 -->
<g id="node17" class="node">
<title>16</title>
<path fill="none" stroke="#78d856" stroke-width="2" d="M676.5,-180C676.5,-180 534.5,-180 534.5,-180 528.5,-180 522.5,-174 522.5,-168 522.5,-168 522.5,-156 522.5,-156 522.5,-150 528.5,-144 534.5,-144 534.5,-144 676.5,-144 676.5,-144 682.5,-144 688.5,-150 688.5,-156 688.5,-156 688.5,-168 688.5,-168 688.5,-174 682.5,-180 676.5,-180"/>
<text text-anchor="middle" x="605.5" y="-159.5" font-family="sans" font-size="10.00" fill="#000000">references_sv_bcftools_merge</text>
</g>
<!-- 16&#45;&gt;15 -->
<g id="edge23" class="edge">
<title>16&#45;&gt;15</title>
<path fill="none" stroke="#c0c0c0" stroke-width="2" d="M616.8554,-143.8314C621.9326,-135.7079 628.0227,-125.9637 633.6176,-117.0118"/>
<polygon fill="#c0c0c0" stroke="#c0c0c0" stroke-width="2" points="636.6597,-118.7483 638.9917,-108.4133 630.7237,-115.0383 636.6597,-118.7483"/>
</g>
<!-- 17 -->
<g id="node18" class="node">
<title>17</title>
<path fill="none" stroke="#d89556" stroke-width="2" d="M556.5,-324C556.5,-324 500.5,-324 500.5,-324 494.5,-324 488.5,-318 488.5,-312 488.5,-312 488.5,-300 488.5,-300 488.5,-294 494.5,-288 500.5,-288 500.5,-288 556.5,-288 556.5,-288 562.5,-288 568.5,-294 568.5,-300 568.5,-300 568.5,-312 568.5,-312 568.5,-318 562.5,-324 556.5,-324"/>
<text text-anchor="middle" x="528.5" y="-303.5" font-family="sans" font-size="10.00" fill="#000000">bgzip_sv_vcf</text>
</g>
<!-- 17&#45;&gt;16 -->
<g id="edge24" class="edge">
<title>17&#45;&gt;16</title>
<path fill="none" stroke="#c0c0c0" stroke-width="2" d="M553.7105,-287.8006C565.0553,-278.3478 577.6371,-265.8759 585.5,-252 596.2523,-233.0251 601.2246,-208.7524 603.5237,-190.1971"/>
<polygon fill="#c0c0c0" stroke="#c0c0c0" stroke-width="2" points="607.0292,-190.3267 604.5919,-180.016 600.0674,-189.5961 607.0292,-190.3267"/>
</g>
<!-- 25 -->
<g id="node26" class="node">
<title>25</title>
<path fill="none" stroke="#56d863" stroke-width="2" d="M565,-252C565,-252 492,-252 492,-252 486,-252 480,-246 480,-240 480,-240 480,-228 480,-228 480,-222 486,-216 492,-216 492,-216 565,-216 565,-216 571,-216 577,-222 577,-228 577,-228 577,-240 577,-240 577,-246 571,-252 565,-252"/>
<text text-anchor="middle" x="528.5" y="-231.5" font-family="sans" font-size="10.00" fill="#000000">cnv_sv_tabix_sv</text>
</g>
<!-- 17&#45;&gt;25 -->
<g id="edge38" class="edge">
<title>17&#45;&gt;25</title>
<path fill="none" stroke="#c0c0c0" stroke-width="2" d="M528.5,-287.8314C528.5,-280.131 528.5,-270.9743 528.5,-262.4166"/>
<polygon fill="#c0c0c0" stroke="#c0c0c0" stroke-width="2" points="532.0001,-262.4132 528.5,-252.4133 525.0001,-262.4133 532.0001,-262.4132"/>
</g>
<!-- 18 -->
<g id="node19" class="node">
<title>18</title>
<path fill="none" stroke="#56d8d0" stroke-width="2" d="M670,-396C670,-396 593,-396 593,-396 587,-396 581,-390 581,-384 581,-384 581,-372 581,-372 581,-366 587,-360 593,-360 593,-360 670,-360 670,-360 676,-360 682,-366 682,-372 682,-372 682,-384 682,-384 682,-390 676,-396 670,-396"/>
<text text-anchor="middle" x="631.5" y="-375.5" font-family="sans" font-size="10.00" fill="#000000">cnv_sv_pbsv_call</text>
</g>
<!-- 18&#45;&gt;17 -->
<g id="edge28" class="edge">
<title>18&#45;&gt;17</title>
<path fill="none" stroke="#c0c0c0" stroke-width="2" d="M605.5088,-359.8314C592.5784,-350.7927 576.7778,-339.7476 562.8617,-330.0198"/>
<polygon fill="#c0c0c0" stroke="#c0c0c0" stroke-width="2" points="564.6843,-327.0235 554.4829,-324.1628 560.6737,-332.7608 564.6843,-327.0235"/>
</g>
<!-- 19&#45;&gt;18 -->
<g id="edge29" class="edge">
<title>19&#45;&gt;18</title>
<path fill="none" stroke="#c0c0c0" stroke-width="2" d="M656.1727,-431.8314C652.527,-423.8771 648.1691,-414.369 644.1373,-405.5723"/>
<polygon fill="#c0c0c0" stroke="#c0c0c0" stroke-width="2" points="647.2877,-404.0456 639.9394,-396.4133 640.9243,-406.9622 647.2877,-404.0456"/>
</g>
<!-- 20 -->
<g id="node21" class="node">
<title>20</title>
<path fill="none" stroke="#d8d356" stroke-width="2" d="M388,-396C388,-396 293,-396 293,-396 287,-396 281,-390 281,-384 281,-384 281,-372 281,-372 281,-366 287,-360 293,-360 293,-360 388,-360 388,-360 394,-360 400,-366 400,-372 400,-372 400,-384 400,-384 400,-390 394,-396 388,-396"/>
<text text-anchor="middle" x="340.5" y="-375.5" font-family="sans" font-size="10.00" fill="#000000">cnv_sv_sniffles2_call</text>
</g>
<!-- 20&#45;&gt;17 -->
<g id="edge26" class="edge">
<title>20&#45;&gt;17</title>
<path fill="none" stroke="#c0c0c0" stroke-width="2" d="M387.9403,-359.8314C415.6719,-349.2108 450.6365,-335.8201 478.7553,-325.0512"/>
<polygon fill="#c0c0c0" stroke="#c0c0c0" stroke-width="2" points="480.3059,-328.2053 488.3927,-321.3603 477.8023,-321.6683 480.3059,-328.2053"/>
</g>
<!-- 21 -->
<g id="node22" class="node">
<title>21</title>
<path fill="none" stroke="#56d8a2" stroke-width="2" d="M413,-540C413,-540 290,-540 290,-540 284,-540 278,-534 278,-528 278,-528 278,-516 278,-516 278,-510 284,-504 290,-504 290,-504 413,-504 413,-504 419,-504 425,-510 425,-516 425,-516 425,-528 425,-528 425,-534 419,-540 413,-540"/>
<text text-anchor="middle" x="351.5" y="-519.5" font-family="sans" font-size="10.00" fill="#000000">alignment_vacmap_merge</text>
</g>
<!-- 21&#45;&gt;20 -->
<g id="edge32" class="edge">
<title>21&#45;&gt;20</title>
<path fill="none" stroke="#c0c0c0" stroke-width="2" d="M279.5684,-503.9056C261.8626,-495.8827 244.9898,-484.3946 234.5,-468 225.8767,-454.5226 226.1395,-445.6419 234.5,-432 243.1689,-417.8548 256.8342,-407.2698 271.5068,-399.4035"/>
<polygon fill="#c0c0c0" stroke="#c0c0c0" stroke-width="2" points="273.3178,-402.4128 280.737,-394.8494 270.2205,-396.1353 273.3178,-402.4128"/>
</g>
<!-- 23 -->
<g id="node24" class="node">
<title>23</title>
<path fill="none" stroke="#d88556" stroke-width="2" d="M425,-468C425,-468 256,-468 256,-468 250,-468 244,-462 244,-456 244,-456 244,-444 244,-444 244,-438 250,-432 256,-432 256,-432 425,-432 425,-432 431,-432 437,-438 437,-444 437,-444 437,-456 437,-456 437,-462 431,-468 425,-468"/>
<text text-anchor="middle" x="340.5" y="-447.5" font-family="sans" font-size="10.00" fill="#000000">alignment_samtools_index_vacmap</text>
</g>
<!-- 21&#45;&gt;23 -->
<g id="edge35" class="edge">
<title>21&#45;&gt;23</title>
<path fill="none" stroke="#c0c0c0" stroke-width="2" d="M348.7242,-503.8314C347.5478,-496.131 346.1489,-486.9743 344.8414,-478.4166"/>
<polygon fill="#c0c0c0" stroke="#c0c0c0" stroke-width="2" points="348.2833,-477.7699 343.3131,-468.4133 341.3636,-478.8272 348.2833,-477.7699"/>
</g>
<!-- 22 -->
<g id="node23" class="node">
<title>22</title>
<path fill="none" stroke="#56c1d8" stroke-width="2" d="M409.5,-612C409.5,-612 293.5,-612 293.5,-612 287.5,-612 281.5,-606 281.5,-600 281.5,-600 281.5,-588 281.5,-588 281.5,-582 287.5,-576 293.5,-576 293.5,-576 409.5,-576 409.5,-576 415.5,-576 421.5,-582 421.5,-588 421.5,-588 421.5,-600 421.5,-600 421.5,-606 415.5,-612 409.5,-612"/>
<text text-anchor="middle" x="351.5" y="-591.5" font-family="sans" font-size="10.00" fill="#000000">alignment_vacmap_align</text>
</g>
<!-- 22&#45;&gt;21 -->
<g id="edge34" class="edge">
<title>22&#45;&gt;21</title>
<path fill="none" stroke="#c0c0c0" stroke-width="2" d="M351.5,-575.8314C351.5,-568.131 351.5,-558.9743 351.5,-550.4166"/>
<polygon fill="#c0c0c0" stroke="#c0c0c0" stroke-width="2" points="355.0001,-550.4132 351.5,-540.4133 348.0001,-550.4133 355.0001,-550.4132"/>
</g>
<!-- 23&#45;&gt;20 -->
<g id="edge33" class="edge">
<title>23&#45;&gt;20</title>
<path fill="none" stroke="#c0c0c0" stroke-width="2" d="M340.5,-431.8314C340.5,-424.131 340.5,-414.9743 340.5,-406.4166"/>
<polygon fill="#c0c0c0" stroke="#c0c0c0" stroke-width="2" points="344.0001,-406.4132 340.5,-396.4133 337.0001,-406.4133 344.0001,-406.4132"/>
</g>
<!-- 24&#45;&gt;17 -->
<g id="edge27" class="edge">
<title>24&#45;&gt;17</title>
<path fill="none" stroke="#c0c0c0" stroke-width="2" d="M520.6399,-431.7623C522.1749,-407.201 524.922,-363.2474 526.7279,-334.3541"/>
<polygon fill="#c0c0c0" stroke="#c0c0c0" stroke-width="2" points="530.2387,-334.2885 527.3694,-324.0896 523.2523,-333.8518 530.2387,-334.2885"/>
</g>
<!-- 25&#45;&gt;16 -->
<g id="edge25" class="edge">
<title>25&#45;&gt;16</title>
<path fill="none" stroke="#c0c0c0" stroke-width="2" d="M547.9304,-215.8314C557.232,-207.1337 568.5204,-196.5783 578.6286,-187.1265"/>
<polygon fill="#c0c0c0" stroke="#c0c0c0" stroke-width="2" points="581.1621,-189.5493 586.0759,-180.1628 576.3811,-184.4363 581.1621,-189.5493"/>
</g>
<!-- 26 -->
<g id="node27" class="node">
<title>26</title>
<path fill="none" stroke="#5692d8" stroke-width="2" d="M1164,-252C1164,-252 1039,-252 1039,-252 1033,-252 1027,-246 1027,-240 1027,-240 1027,-228 1027,-228 1027,-222 1033,-216 1039,-216 1039,-216 1164,-216 1164,-216 1170,-216 1176,-222 1176,-228 1176,-228 1176,-240 1176,-240 1176,-246 1170,-252 1164,-252"/>
<text text-anchor="middle" x="1101.5" y="-231.5" font-family="sans" font-size="10.00" fill="#000000">_copy_multiqc_html_report</text>
</g>
<!-- 26&#45;&gt;0 -->
<g id="edge1" class="edge">
<title>26&#45;&gt;0</title>
<path fill="none" stroke="#c0c0c0" stroke-width="2" d="M1066.7476,-215.9555C988.8736,-175.5209 801.0211,-77.9821 721.7544,-36.8244"/>
<polygon fill="#c0c0c0" stroke="#c0c0c0" stroke-width="2" points="723.1286,-33.5943 712.6407,-32.0923 719.9028,-39.8067 723.1286,-33.5943"/>
</g>
<!-- 27 -->
<g id="node28" class="node">
<title>27</title>
<path fill="none" stroke="#d8b456" stroke-width="2" d="M1271.5,-396C1271.5,-396 1177.5,-396 1177.5,-396 1171.5,-396 1165.5,-390 1165.5,-384 1165.5,-384 1165.5,-372 1165.5,-372 1165.5,-366 1171.5,-360 1177.5,-360 1177.5,-360 1271.5,-360 1271.5,-360 1277.5,-360 1283.5,-366 1283.5,-372 1283.5,-372 1283.5,-384 1283.5,-384 1283.5,-390 1277.5,-396 1271.5,-396"/>
<text text-anchor="middle" x="1224.5" y="-375.5" font-family="sans" font-size="10.00" fill="#000000">qc_multiqc_longread</text>
</g>
<!-- 27&#45;&gt;26 -->
<g id="edge39" class="edge">
<title>27&#45;&gt;26</title>
<path fill="none" stroke="#c0c0c0" stroke-width="2" d="M1208.922,-359.7623C1187.2956,-334.4436 1148.0676,-288.5182 1123.4735,-259.7251"/>
<polygon fill="#c0c0c0" stroke="#c0c0c0" stroke-width="2" points="1126.1078,-257.4202 1116.9515,-252.0896 1120.7851,-261.9666 1126.1078,-257.4202"/>
</g>
<!-- 28&#45;&gt;27 -->
<g id="edge41" class="edge">
<title>28&#45;&gt;27</title>
<path fill="none" stroke="#c0c0c0" stroke-width="2" d="M1081.7932,-433.8418C1107.4788,-423.7909 1140.833,-410.7393 1168.836,-399.7816"/>
<polygon fill="#c0c0c0" stroke="#c0c0c0" stroke-width="2" points="1170.4594,-402.9048 1178.4965,-396.0014 1167.9086,-396.3861 1170.4594,-402.9048"/>
</g>
<!-- 29&#45;&gt;27 -->
<g id="edge43" class="edge">
<title>29&#45;&gt;27</title>
<path fill="none" stroke="#c0c0c0" stroke-width="2" d="M1556.1676,-503.643C1556.9323,-483.1727 1554.6954,-450.514 1535.5,-432 1501.8348,-399.5299 1374.7901,-386.3524 1293.8637,-381.1757"/>
<polygon fill="#c0c0c0" stroke="#c0c0c0" stroke-width="2" points="1293.9398,-377.6739 1283.7441,-380.5545 1293.5108,-384.6607 1293.9398,-377.6739"/>
</g>
<!-- 30&#45;&gt;27 -->
<g id="edge42" class="edge">
<title>30&#45;&gt;27</title>
<path fill="none" stroke="#c0c0c0" stroke-width="2" d="M1390.7666,-431.9243C1360.154,-421.9959 1322.0119,-409.6255 1289.9845,-399.2382"/>
<polygon fill="#c0c0c0" stroke="#c0c0c0" stroke-width="2" points="1290.8484,-395.839 1280.2564,-396.0831 1288.6888,-402.4975 1290.8484,-395.839"/>
</g>
<!-- 31 -->
<g id="node32" class="node">
<title>31</title>
<path fill="none" stroke="#97d856" stroke-width="2" d="M1490.5,-540C1490.5,-540 1344.5,-540 1344.5,-540 1338.5,-540 1332.5,-534 1332.5,-528 1332.5,-528 1332.5,-516 1332.5,-516 1332.5,-510 1338.5,-504 1344.5,-504 1344.5,-504 1490.5,-504 1490.5,-504 1496.5,-504 1502.5,-510 1502.5,-516 1502.5,-516 1502.5,-528 1502.5,-528 1502.5,-534 1496.5,-540 1490.5,-540"/>
<text text-anchor="middle" x="1417.5" y="-519.5" font-family="sans" font-size="10.00" fill="#000000">references_bed_to_interval_list</text>
</g>
<!-- 31&#45;&gt;30 -->
<g id="edge48" class="edge">
<title>31&#45;&gt;30</title>
<path fill="none" stroke="#c0c0c0" stroke-width="2" d="M1424.8179,-503.8314C1427.9876,-495.9617 1431.77,-486.5712 1435.2813,-477.8533"/>
<polygon fill="#c0c0c0" stroke="#c0c0c0" stroke-width="2" points="1438.5939,-478.9968 1439.0835,-468.4133 1432.1008,-476.3815 1438.5939,-478.9968"/>
</g>
<!-- 32 -->
<g id="node33" class="node">
<title>32</title>
<path fill="none" stroke="#d86656" stroke-width="2" d="M1448,-612C1448,-612 1387,-612 1387,-612 1381,-612 1375,-606 1375,-600 1375,-600 1375,-588 1375,-588 1375,-582 1381,-576 1387,-576 1387,-576 1448,-576 1448,-576 1454,-576 1460,-582 1460,-588 1460,-588 1460,-600 1460,-600 1460,-606 1454,-612 1448,-612"/>
<text text-anchor="middle" x="1417.5" y="-591.5" font-family="sans" font-size="10.00" fill="#000000">samtools_dict</text>
</g>
<!-- 32&#45;&gt;31 -->
<g id="edge50" class="edge">
<title>32&#45;&gt;31</title>
<path fill="none" stroke="#c0c0c0" stroke-width="2" d="M1417.5,-575.8314C1417.5,-568.131 1417.5,-558.9743 1417.5,-550.4166"/>
<polygon fill="#c0c0c0" stroke="#c0c0c0" stroke-width="2" points="1421.0001,-550.4132 1417.5,-540.4133 1414.0001,-550.4133 1421.0001,-550.4132"/>
</g>
<!-- 33&#45;&gt;27 -->
<g id="edge40" class="edge">
<title>33&#45;&gt;27</title>
<path fill="none" stroke="#c0c0c0" stroke-width="2" d="M1224.5,-431.8314C1224.5,-424.131 1224.5,-414.9743 1224.5,-406.4166"/>
<polygon fill="#c0c0c0" stroke="#c0c0c0" stroke-width="2" points="1228.0001,-406.4132 1224.5,-396.4133 1221.0001,-406.4133 1228.0001,-406.4132"/>
</g>
</g>
</svg>
