<?xml version="1.0" encoding="UTF-8" standalone="no"?>
<!DOCTYPE svg PUBLIC "-//W3C//DTD SVG 1.1//EN"
 "http://www.w3.org/Graphics/SVG/1.1/DTD/svg11.dtd">
<!-- Generated by graphviz version 12.2.1 (20241206.2353)
 -->
<!-- Title: snakemake_dag Pages: 1 -->
<svg width="392pt" height="692pt"
 viewBox="0.00 0.00 391.75 692.00" xmlns="http://www.w3.org/2000/svg" xmlns:xlink="http://www.w3.org/1999/xlink">
<g id="graph0" class="graph" transform="scale(1 1) rotate(0) translate(4 688)">
<title>snakemake_dag</title>
<polygon fill="white" stroke="none" points="-4,4 -4,-688 387.75,-688 387.75,4 -4,4"/>
<!-- 0 -->
<g id="node1" class="node">
<title>0</title>
<path fill="none" stroke="#88d856" stroke-width="2" d="M168,-36C168,-36 138,-36 138,-36 132,-36 126,-30 126,-24 126,-24 126,-12 126,-12 126,-6 132,0 138,0 138,0 168,0 168,0 174,0 180,-6 180,-12 180,-12 180,-24 180,-24 180,-30 174,-36 168,-36"/>
<text text-anchor="middle" x="153" y="-14.12" font-family="sans" font-size="10.00">all</text>
</g>
<!-- 1 -->
<g id="node2" class="node">
<title>1</title>
<path fill="none" stroke="#d85656" stroke-width="2" d="M125.38,-108C125.38,-108 54.62,-108 54.62,-108 48.62,-108 42.62,-102 42.62,-96 42.62,-96 42.62,-84 42.62,-84 42.62,-78 48.62,-72 54.62,-72 54.62,-72 125.38,-72 125.38,-72 131.38,-72 137.38,-78 137.38,-84 137.38,-84 137.38,-96 137.38,-96 137.38,-102 131.38,-108 125.38,-108"/>
<text text-anchor="middle" x="90" y="-86.12" font-family="sans" font-size="10.00">_copy_cnvkit_pon</text>
</g>
<!-- 1&#45;&gt;0 -->
<g id="edge2" class="edge">
<title>1&#45;&gt;0</title>
<path fill="none" stroke="grey" stroke-width="2" d="M105.9,-71.34C112.71,-63.77 120.82,-54.75 128.38,-46.35"/>
<polygon fill="grey" stroke="grey" stroke-width="2" points="130.78,-48.93 134.86,-39.15 125.57,-44.24 130.78,-48.93"/>
</g>
<!-- 2 -->
<g id="node3" class="node">
<title>2</title>
<path fill="none" stroke="#56d88a" stroke-width="2" d="M136,-180C136,-180 12,-180 12,-180 6,-180 0,-174 0,-168 0,-168 0,-156 0,-156 0,-150 6,-144 12,-144 12,-144 136,-144 136,-144 142,-144 148,-150 148,-156 148,-156 148,-168 148,-168 148,-174 142,-180 136,-180"/>
<text text-anchor="middle" x="74" y="-158.12" font-family="sans" font-size="10.00">cnvkit_build_normal_reference</text>
</g>
<!-- 2&#45;&gt;1 -->
<g id="edge3" class="edge">
<title>2&#45;&gt;1</title>
<path fill="none" stroke="grey" stroke-width="2" d="M78.04,-143.34C79.56,-136.67 81.34,-128.89 83.05,-121.39"/>
<polygon fill="grey" stroke="grey" stroke-width="2" points="86.42,-122.38 85.23,-111.85 79.59,-120.82 86.42,-122.38"/>
</g>
<!-- 3 -->
<g id="node4" class="node">
<title>3</title>
<path fill="none" stroke="#56d8d0" stroke-width="2" d="M114.88,-324C114.88,-324 29.12,-324 29.12,-324 23.12,-324 17.12,-318 17.12,-312 17.12,-312 17.12,-300 17.12,-300 17.12,-294 23.12,-288 29.12,-288 29.12,-288 114.88,-288 114.88,-288 120.88,-288 126.88,-294 126.88,-300 126.88,-300 126.88,-312 126.88,-312 126.88,-318 120.88,-324 114.88,-324"/>
<text text-anchor="middle" x="72" y="-302.12" font-family="sans" font-size="10.00">cnvkit_create_targets</text>
</g>
<!-- 3&#45;&gt;2 -->
<g id="edge5" class="edge">
<title>3&#45;&gt;2</title>
<path fill="none" stroke="grey" stroke-width="2" d="M45.47,-287.01C34.47,-277.94 22.91,-265.91 17,-252 10.74,-237.28 10.61,-230.67 17,-216 21.42,-205.85 28.85,-196.77 36.91,-189.11"/>
<polygon fill="grey" stroke="grey" stroke-width="2" points="38.96,-191.97 44.23,-182.78 34.38,-186.67 38.96,-191.97"/>
</g>
<!-- 4 -->
<g id="node5" class="node">
<title>4</title>
<path fill="none" stroke="#56d8a9" stroke-width="2" d="M144.38,-252C144.38,-252 37.62,-252 37.62,-252 31.63,-252 25.62,-246 25.62,-240 25.62,-240 25.62,-228 25.62,-228 25.62,-222 31.62,-216 37.62,-216 37.62,-216 144.38,-216 144.38,-216 150.38,-216 156.38,-222 156.38,-228 156.38,-228 156.38,-240 156.38,-240 156.38,-246 150.38,-252 144.38,-252"/>
<text text-anchor="middle" x="91" y="-230.12" font-family="sans" font-size="10.00">cnvkit_create_anti_targets</text>
</g>
<!-- 3&#45;&gt;4 -->
<g id="edge6" class="edge">
<title>3&#45;&gt;4</title>
<path fill="none" stroke="grey" stroke-width="2" d="M76.79,-287.34C78.6,-280.67 80.72,-272.89 82.75,-265.39"/>
<polygon fill="grey" stroke="grey" stroke-width="2" points="86.11,-266.39 85.35,-255.82 79.35,-264.56 86.11,-266.39"/>
</g>
<!-- 4&#45;&gt;2 -->
<g id="edge4" class="edge">
<title>4&#45;&gt;2</title>
<path fill="none" stroke="grey" stroke-width="2" d="M86.71,-215.34C85.09,-208.67 83.2,-200.89 81.38,-193.39"/>
<polygon fill="grey" stroke="grey" stroke-width="2" points="84.82,-192.73 79.06,-183.84 78.02,-194.39 84.82,-192.73"/>
</g>
<!-- 5 -->
<g id="node6" class="node">
<title>5</title>
<path fill="none" stroke="#d87556" stroke-width="2" d="M275,-108C275,-108 175,-108 175,-108 169,-108 163,-102 163,-96 163,-96 163,-84 163,-84 163,-78 169,-72 175,-72 175,-72 275,-72 275,-72 281,-72 287,-78 287,-84 287,-84 287,-96 287,-96 287,-102 281,-108 275,-108"/>
<text text-anchor="middle" x="225" y="-86.12" font-family="sans" font-size="10.00">_copy_deepsomatic_pon</text>
</g>
<!-- 5&#45;&gt;0 -->
<g id="edge1" class="edge">
<title>5&#45;&gt;0</title>
<path fill="none" stroke="grey" stroke-width="2" d="M206.83,-71.34C198.88,-63.6 189.37,-54.36 180.57,-45.81"/>
<polygon fill="grey" stroke="grey" stroke-width="2" points="183.19,-43.47 173.58,-39.01 178.31,-48.49 183.19,-43.47"/>
</g>
<!-- 6 -->
<g id="node7" class="node">
<title>6</title>
<path fill="none" stroke="#569ad8" stroke-width="2" d="M287.88,-180C287.88,-180 178.12,-180 178.12,-180 172.12,-180 166.12,-174 166.12,-168 166.12,-168 166.12,-156 166.12,-156 166.12,-150 172.12,-144 178.12,-144 178.12,-144 287.88,-144 287.88,-144 293.88,-144 299.88,-150 299.88,-156 299.88,-156 299.88,-168 299.88,-168 299.88,-174 293.88,-180 287.88,-180"/>
<text text-anchor="middle" x="233" y="-158.12" font-family="sans" font-size="10.00">references_bcftools_merge</text>
</g>
<!-- 6&#45;&gt;5 -->
<g id="edge7" class="edge">
<title>6&#45;&gt;5</title>
<path fill="none" stroke="grey" stroke-width="2" d="M230.98,-143.34C230.23,-136.75 229.35,-129.08 228.5,-121.67"/>
<polygon fill="grey" stroke="grey" stroke-width="2" points="232,-121.45 227.39,-111.91 225.05,-122.24 232,-121.45"/>
</g>
<!-- 7 -->
<g id="node8" class="node">
<title>7</title>
<path fill="none" stroke="#68d856" stroke-width="2" d="M293.88,-324C293.88,-324 178.12,-324 178.12,-324 172.12,-324 166.12,-318 166.12,-312 166.12,-312 166.12,-300 166.12,-300 166.12,-294 172.12,-288 178.12,-288 178.12,-288 293.88,-288 293.88,-288 299.88,-288 305.88,-294 305.88,-300 305.88,-300 305.88,-312 305.88,-312 305.88,-318 299.88,-324 293.88,-324"/>
<text text-anchor="middle" x="236" y="-302.12" font-family="sans" font-size="10.00">annotation_whatshap_phase</text>
</g>
<!-- 7&#45;&gt;6 -->
<g id="edge9" class="edge">
<title>7&#45;&gt;6</title>
<path fill="none" stroke="grey" stroke-width="2" d="M235.62,-287.02C235.12,-263.54 234.25,-222.11 233.65,-193.64"/>
<polygon fill="grey" stroke="grey" stroke-width="2" points="237.15,-193.79 233.44,-183.86 230.15,-193.94 237.15,-193.79"/>
</g>
<!-- 14 -->
<g id="node15" class="node">
<title>14</title>
<path fill="none" stroke="#56d86b" stroke-width="2" d="M306.88,-252C306.88,-252 257.12,-252 257.12,-252 251.12,-252 245.12,-246 245.12,-240 245.12,-240 245.12,-228 245.12,-228 245.12,-222 251.12,-216 257.12,-216 257.12,-216 306.88,-216 306.88,-216 312.88,-216 318.88,-222 318.88,-228 318.88,-228 318.88,-240 318.88,-240 318.88,-246 312.88,-252 306.88,-252"/>
<text text-anchor="middle" x="282" y="-230.12" font-family="sans" font-size="10.00">cnv_sv_tabix</text>
</g>
<!-- 7&#45;&gt;14 -->
<g id="edge18" class="edge">
<title>7&#45;&gt;14</title>
<path fill="none" stroke="grey" stroke-width="2" d="M247.61,-287.34C252.31,-280.18 257.87,-271.73 263.12,-263.73"/>
<polygon fill="grey" stroke="grey" stroke-width="2" points="266.01,-265.71 268.57,-255.43 260.16,-261.87 266.01,-265.71"/>
</g>
<!-- 8 -->
<g id="node9" class="node">
<title>8</title>
<path fill="none" stroke="#567bd8" stroke-width="2" d="M345.75,-396C345.75,-396 226.25,-396 226.25,-396 220.25,-396 214.25,-390 214.25,-384 214.25,-384 214.25,-372 214.25,-372 214.25,-366 220.25,-360 226.25,-360 226.25,-360 345.75,-360 345.75,-360 351.75,-360 357.75,-366 357.75,-372 357.75,-372 357.75,-384 357.75,-384 357.75,-390 351.75,-396 345.75,-396"/>
<text text-anchor="middle" x="286" y="-374.12" font-family="sans" font-size="10.00">references_deepsomatic_pon</text>
</g>
<!-- 8&#45;&gt;7 -->
<g id="edge10" class="edge">
<title>8&#45;&gt;7</title>
<path fill="none" stroke="grey" stroke-width="2" d="M273.38,-359.34C268.21,-352.1 262.09,-343.53 256.32,-335.45"/>
<polygon fill="grey" stroke="grey" stroke-width="2" points="259.21,-333.47 250.55,-327.37 253.51,-337.54 259.21,-333.47"/>
</g>
<!-- 9 -->
<g id="node10" class="node">
<title>9</title>
<path fill="none" stroke="#ced856" stroke-width="2" d="M275.88,-540C275.88,-540 172.12,-540 172.12,-540 166.12,-540 160.12,-534 160.12,-528 160.12,-528 160.12,-516 160.12,-516 160.12,-510 166.12,-504 172.12,-504 172.12,-504 275.88,-504 275.88,-504 281.88,-504 287.88,-510 287.88,-516 287.88,-516 287.88,-528 287.88,-528 287.88,-534 281.88,-540 275.88,-540"/>
<text text-anchor="middle" x="224" y="-518.12" font-family="sans" font-size="10.00">alignment_pbmm2_merge</text>
</g>
<!-- 9&#45;&gt;7 -->
<g id="edge11" class="edge">
<title>9&#45;&gt;7</title>
<path fill="none" stroke="grey" stroke-width="2" d="M217.6,-503.29C207.72,-473.29 191.23,-410.8 205,-360 207.3,-351.53 211.32,-343.02 215.73,-335.38"/>
<polygon fill="grey" stroke="grey" stroke-width="2" points="218.56,-337.46 220.92,-327.13 212.63,-333.73 218.56,-337.46"/>
</g>
<!-- 9&#45;&gt;8 -->
<g id="edge13" class="edge">
<title>9&#45;&gt;8</title>
<path fill="none" stroke="grey" stroke-width="2" d="M225.34,-503.15C227.28,-484.6 231.96,-455.09 243,-432 247.29,-423.03 253.38,-414.25 259.64,-406.5"/>
<polygon fill="grey" stroke="grey" stroke-width="2" points="262.27,-408.8 266.14,-398.94 256.97,-404.24 262.27,-408.8"/>
</g>
<!-- 13 -->
<g id="node14" class="node">
<title>13</title>
<path fill="none" stroke="#afd856" stroke-width="2" d="M371.75,-468C371.75,-468 264.25,-468 264.25,-468 258.25,-468 252.25,-462 252.25,-456 252.25,-456 252.25,-444 252.25,-444 252.25,-438 258.25,-432 264.25,-432 264.25,-432 371.75,-432 371.75,-432 377.75,-432 383.75,-438 383.75,-444 383.75,-444 383.75,-456 383.75,-456 383.75,-462 377.75,-468 371.75,-468"/>
<text text-anchor="middle" x="318" y="-446.12" font-family="sans" font-size="10.00">alignment_samtools_index</text>
</g>
<!-- 9&#45;&gt;13 -->
<g id="edge17" class="edge">
<title>9&#45;&gt;13</title>
<path fill="none" stroke="grey" stroke-width="2" d="M247.72,-503.34C258.66,-495.19 271.84,-485.37 283.83,-476.45"/>
<polygon fill="grey" stroke="grey" stroke-width="2" points="285.6,-479.49 291.53,-470.71 281.42,-473.88 285.6,-479.49"/>
</g>
<!-- 10 -->
<g id="node11" class="node">
<title>10</title>
<path fill="none" stroke="#d89c56" stroke-width="2" d="M272.5,-612C272.5,-612 175.5,-612 175.5,-612 169.5,-612 163.5,-606 163.5,-600 163.5,-600 163.5,-588 163.5,-588 163.5,-582 169.5,-576 175.5,-576 175.5,-576 272.5,-576 272.5,-576 278.5,-576 284.5,-582 284.5,-588 284.5,-588 284.5,-600 284.5,-600 284.5,-606 278.5,-612 272.5,-612"/>
<text text-anchor="middle" x="224" y="-590.12" font-family="sans" font-size="10.00">alignment_pbmm2_align</text>
</g>
<!-- 10&#45;&gt;9 -->
<g id="edge14" class="edge">
<title>10&#45;&gt;9</title>
<path fill="none" stroke="grey" stroke-width="2" d="M224,-575.34C224,-568.75 224,-561.08 224,-553.67"/>
<polygon fill="grey" stroke="grey" stroke-width="2" points="227.5,-553.93 224,-543.93 220.5,-553.93 227.5,-553.93"/>
</g>
<!-- 11 -->
<g id="node12" class="node">
<title>11</title>
<path fill="none" stroke="#56c1d8" stroke-width="2" d="M203.38,-684C203.38,-684 102.62,-684 102.62,-684 96.62,-684 90.62,-678 90.62,-672 90.62,-672 90.62,-660 90.62,-660 90.62,-654 96.62,-648 102.62,-648 102.62,-648 203.38,-648 203.38,-648 209.38,-648 215.38,-654 215.38,-660 215.38,-660 215.38,-672 215.38,-672 215.38,-678 209.38,-684 203.38,-684"/>
<text text-anchor="middle" x="153" y="-662.12" font-family="sans" font-size="10.00">prealignment_pbmarkdup</text>
</g>
<!-- 11&#45;&gt;10 -->
<g id="edge15" class="edge">
<title>11&#45;&gt;10</title>
<path fill="none" stroke="grey" stroke-width="2" d="M170.92,-647.34C178.76,-639.6 188.14,-630.36 196.81,-621.81"/>
<polygon fill="grey" stroke="grey" stroke-width="2" points="199.02,-624.54 203.69,-615.03 194.11,-619.56 199.02,-624.54"/>
</g>
<!-- 12 -->
<g id="node13" class="node">
<title>12</title>
<path fill="none" stroke="#d8bc56" stroke-width="2" d="M345,-684C345,-684 245,-684 245,-684 239,-684 233,-678 233,-672 233,-672 233,-660 233,-660 233,-654 239,-648 245,-648 245,-648 345,-648 345,-648 351,-648 357,-654 357,-660 357,-660 357,-672 357,-672 357,-678 351,-684 345,-684"/>
<text text-anchor="middle" x="295" y="-662.12" font-family="sans" font-size="10.00">alignment_pbmm2_index</text>
</g>
<!-- 12&#45;&gt;10 -->
<g id="edge16" class="edge">
<title>12&#45;&gt;10</title>
<path fill="none" stroke="grey" stroke-width="2" d="M277.08,-647.34C269.24,-639.6 259.86,-630.36 251.19,-621.81"/>
<polygon fill="grey" stroke="grey" stroke-width="2" points="253.89,-619.56 244.31,-615.03 248.98,-624.54 253.89,-619.56"/>
</g>
<!-- 13&#45;&gt;8 -->
<g id="edge12" class="edge">
<title>13&#45;&gt;8</title>
<path fill="none" stroke="grey" stroke-width="2" d="M309.93,-431.34C306.77,-424.43 303.06,-416.31 299.51,-408.56"/>
<polygon fill="grey" stroke="grey" stroke-width="2" points="302.78,-407.29 295.44,-399.65 296.42,-410.2 302.78,-407.29"/>
</g>
<!-- 14&#45;&gt;6 -->
<g id="edge8" class="edge">
<title>14&#45;&gt;6</title>
<path fill="none" stroke="grey" stroke-width="2" d="M269.64,-215.34C264.57,-208.1 258.57,-199.53 252.92,-191.45"/>
<polygon fill="grey" stroke="grey" stroke-width="2" points="255.87,-189.57 247.27,-183.38 250.13,-193.58 255.87,-189.57"/>
</g>
</g>
</svg>
