<?xml version="1.0" encoding="UTF-8" standalone="no"?>
<!DOCTYPE svg PUBLIC "-//W3C//DTD SVG 1.1//EN"
 "http://www.w3.org/Graphics/SVG/1.1/DTD/svg11.dtd">
<!-- Generated by graphviz version 12.2.1 (20241206.2353)
 -->
<!-- Title: snakemake_dag Pages: 1 -->
<svg width="400pt" height="504pt"
 viewBox="0.00 0.00 400.00 504.25" xmlns="http://www.w3.org/2000/svg" xmlns:xlink="http://www.w3.org/1999/xlink">
<g id="graph0" class="graph" transform="scale(1 1) rotate(0) translate(4 500.25)">
<title>snakemake_dag</title>
<polygon fill="white" stroke="none" points="-4,4 -4,-500.25 396,-500.25 396,4 -4,4"/>
<!-- 0 -->
<g id="node1" class="node">
<title>0</title>
<path fill="none" stroke="#59d856" stroke-width="2" d="M170,-36C170,-36 140,-36 140,-36 134,-36 128,-30 128,-24 128,-24 128,-12 128,-12 128,-6 134,0 140,0 140,0 170,0 170,0 176,0 182,-6 182,-12 182,-12 182,-24 182,-24 182,-30 176,-36 170,-36"/>
<text text-anchor="middle" x="155" y="-14.12" font-family="sans" font-size="10.00">all</text>
</g>
<!-- 1 -->
<g id="node2" class="node">
<title>1</title>
<path fill="none" stroke="#d87d56" stroke-width="2" d="M136.38,-108C136.38,-108 65.62,-108 65.62,-108 59.62,-108 53.62,-102 53.62,-96 53.62,-96 53.62,-84 53.62,-84 53.62,-78 59.62,-72 65.62,-72 65.62,-72 136.38,-72 136.38,-72 142.38,-72 148.38,-78 148.38,-84 148.38,-84 148.38,-96 148.38,-96 148.38,-102 142.38,-108 136.38,-108"/>
<text text-anchor="middle" x="101" y="-86.12" font-family="sans" font-size="10.00">_copy_cnvkit_pon</text>
</g>
<!-- 1&#45;&gt;0 -->
<g id="edge1" class="edge">
<title>1&#45;&gt;0</title>
<path fill="none" stroke="grey" stroke-width="2" d="M114.63,-71.34C120.27,-64.01 126.97,-55.34 133.26,-47.18"/>
<polygon fill="grey" stroke="grey" stroke-width="2" points="136,-49.35 139.34,-39.3 130.46,-45.08 136,-49.35"/>
</g>
<!-- 2 -->
<g id="node3" class="node">
<title>2</title>
<path fill="none" stroke="#56d8c9" stroke-width="2" d="M136,-180C136,-180 12,-180 12,-180 6,-180 0,-174 0,-168 0,-168 0,-156 0,-156 0,-150 6,-144 12,-144 12,-144 136,-144 136,-144 142,-144 148,-150 148,-156 148,-156 148,-168 148,-168 148,-174 142,-180 136,-180"/>
<text text-anchor="middle" x="74" y="-158.12" font-family="sans" font-size="10.00">cnvkit_build_normal_reference</text>
</g>
<!-- 2&#45;&gt;1 -->
<g id="edge3" class="edge">
<title>2&#45;&gt;1</title>
<path fill="none" stroke="grey" stroke-width="2" d="M80.81,-143.34C83.45,-136.51 86.54,-128.5 89.49,-120.83"/>
<polygon fill="grey" stroke="grey" stroke-width="2" points="92.67,-122.32 93.01,-111.73 86.14,-119.8 92.67,-122.32"/>
</g>
<!-- 3 -->
<g id="node4" class="node">
<title>3</title>
<path fill="none" stroke="#d8c356" stroke-width="2" d="M117.88,-324C117.88,-324 32.12,-324 32.12,-324 26.12,-324 20.12,-318 20.12,-312 20.12,-312 20.12,-300 20.12,-300 20.12,-294 26.12,-288 32.12,-288 32.12,-288 117.88,-288 117.88,-288 123.88,-288 129.88,-294 129.88,-300 129.88,-300 129.88,-312 129.88,-312 129.88,-318 123.88,-324 117.88,-324"/>
<text text-anchor="middle" x="75" y="-302.12" font-family="sans" font-size="10.00">cnvkit_create_targets</text>
</g>
<!-- 3&#45;&gt;2 -->
<g id="edge4" class="edge">
<title>3&#45;&gt;2</title>
<path fill="none" stroke="grey" stroke-width="2" d="M47.52,-287.21C36.13,-278.18 24.15,-266.12 18,-252 11.61,-237.33 11.67,-230.7 18,-216 22.29,-206.03 29.48,-197.07 37.29,-189.46"/>
<polygon fill="grey" stroke="grey" stroke-width="2" points="39.55,-192.14 44.73,-182.9 34.91,-186.9 39.55,-192.14"/>
</g>
<!-- 4 -->
<g id="node5" class="node">
<title>4</title>
<path fill="none" stroke="#567bd8" stroke-width="2" d="M145.38,-252C145.38,-252 38.62,-252 38.62,-252 32.63,-252 26.62,-246 26.62,-240 26.62,-240 26.62,-228 26.62,-228 26.62,-222 32.62,-216 38.62,-216 38.62,-216 145.38,-216 145.38,-216 151.38,-216 157.38,-222 157.38,-228 157.38,-228 157.38,-240 157.38,-240 157.38,-246 151.38,-252 145.38,-252"/>
<text text-anchor="middle" x="92" y="-230.12" font-family="sans" font-size="10.00">cnvkit_create_anti_targets</text>
</g>
<!-- 3&#45;&gt;4 -->
<g id="edge6" class="edge">
<title>3&#45;&gt;4</title>
<path fill="none" stroke="grey" stroke-width="2" d="M79.29,-287.34C80.91,-280.67 82.8,-272.89 84.62,-265.39"/>
<polygon fill="grey" stroke="grey" stroke-width="2" points="87.98,-266.39 86.94,-255.84 81.18,-264.73 87.98,-266.39"/>
</g>
<!-- 4&#45;&gt;2 -->
<g id="edge5" class="edge">
<title>4&#45;&gt;2</title>
<path fill="none" stroke="grey" stroke-width="2" d="M87.46,-215.34C85.74,-208.67 83.74,-200.89 81.81,-193.39"/>
<polygon fill="grey" stroke="grey" stroke-width="2" points="85.24,-192.65 79.36,-183.83 78.46,-194.39 85.24,-192.65"/>
</g>
<!-- 5 -->
<g id="node6" class="node">
<title>5</title>
<path fill="none" stroke="#56d8a2" stroke-width="2" d="M252.12,-108C252.12,-108 191.88,-108 191.88,-108 185.88,-108 179.88,-102 179.88,-96 179.88,-96 179.88,-84 179.88,-84 179.88,-78 185.88,-72 191.88,-72 191.88,-72 252.12,-72 252.12,-72 258.12,-72 264.12,-78 264.12,-84 264.12,-84 264.12,-96 264.12,-96 264.12,-102 258.12,-108 252.12,-108"/>
<text text-anchor="middle" x="222" y="-86.12" font-family="sans" font-size="10.00">_copy_snv_pon</text>
</g>
<!-- 5&#45;&gt;0 -->
<g id="edge2" class="edge">
<title>5&#45;&gt;0</title>
<path fill="none" stroke="grey" stroke-width="2" d="M205.09,-71.34C197.77,-63.69 189.03,-54.56 180.92,-46.08"/>
<polygon fill="grey" stroke="grey" stroke-width="2" points="183.67,-43.89 174.23,-39.09 178.61,-48.73 183.67,-43.89"/>
</g>
<!-- 6 -->
<g id="node7" class="node">
<title>6</title>
<path fill="none" stroke="#78d856" stroke-width="2" d="M293.88,-180C293.88,-180 178.12,-180 178.12,-180 172.12,-180 166.12,-174 166.12,-168 166.12,-168 166.12,-156 166.12,-156 166.12,-150 172.12,-144 178.12,-144 178.12,-144 293.88,-144 293.88,-144 299.88,-144 305.88,-150 305.88,-156 305.88,-156 305.88,-168 305.88,-168 305.88,-174 299.88,-180 293.88,-180"/>
<text text-anchor="middle" x="236" y="-158.12" font-family="sans" font-size="10.00">annotation_whatshap_phase</text>
</g>
<!-- 6&#45;&gt;5 -->
<g id="edge7" class="edge">
<title>6&#45;&gt;5</title>
<path fill="none" stroke="grey" stroke-width="2" d="M232.47,-143.34C231.15,-136.75 229.62,-129.08 228.13,-121.67"/>
<polygon fill="grey" stroke="grey" stroke-width="2" points="231.57,-120.99 226.17,-111.87 224.7,-122.36 231.57,-120.99"/>
</g>
<!-- 7 -->
<g id="node8" class="node">
<title>7</title>
<path fill="none" stroke="#9fd856" stroke-width="2" d="M378.75,-252C378.75,-252 259.25,-252 259.25,-252 253.25,-252 247.25,-246 247.25,-240 247.25,-240 247.25,-228 247.25,-228 247.25,-222 253.25,-216 259.25,-216 259.25,-216 378.75,-216 378.75,-216 384.75,-216 390.75,-222 390.75,-228 390.75,-228 390.75,-240 390.75,-240 390.75,-246 384.75,-252 378.75,-252"/>
<text text-anchor="middle" x="319" y="-230.12" font-family="sans" font-size="10.00">references_deepsomatic_pon</text>
</g>
<!-- 7&#45;&gt;6 -->
<g id="edge8" class="edge">
<title>7&#45;&gt;6</title>
<path fill="none" stroke="grey" stroke-width="2" d="M298.06,-215.34C288.69,-207.44 277.46,-197.96 267.14,-189.26"/>
<polygon fill="grey" stroke="grey" stroke-width="2" points="269.44,-186.62 259.54,-182.85 264.93,-191.98 269.44,-186.62"/>
</g>
<!-- 8 -->
<g id="node9" class="node">
<title>8</title>
<path fill="none" stroke="#d8a456" stroke-width="2" d="M287.88,-324C287.88,-324 184.12,-324 184.12,-324 178.12,-324 172.12,-318 172.12,-312 172.12,-312 172.12,-300 172.12,-300 172.12,-294 178.12,-288 184.12,-288 184.12,-288 287.88,-288 287.88,-288 293.88,-288 299.88,-294 299.88,-300 299.88,-300 299.88,-312 299.88,-312 299.88,-318 293.88,-324 287.88,-324"/>
<text text-anchor="middle" x="236" y="-302.12" font-family="sans" font-size="10.00">alignment_pbmm2_merge</text>
</g>
<!-- 8&#45;&gt;6 -->
<g id="edge9" class="edge">
<title>8&#45;&gt;6</title>
<path fill="none" stroke="grey" stroke-width="2" d="M236,-287.02C236,-263.54 236,-222.11 236,-193.64"/>
<polygon fill="grey" stroke="grey" stroke-width="2" points="239.5,-193.87 236,-183.87 232.5,-193.87 239.5,-193.87"/>
</g>
<!-- 8&#45;&gt;7 -->
<g id="edge10" class="edge">
<title>8&#45;&gt;7</title>
<path fill="none" stroke="grey" stroke-width="2" d="M256.94,-287.34C266.31,-279.44 277.54,-269.96 287.86,-261.26"/>
<polygon fill="grey" stroke="grey" stroke-width="2" points="290.07,-263.98 295.46,-254.85 285.56,-258.62 290.07,-263.98"/>
</g>
<!-- 9 -->
<g id="node10" class="node">
<title>9</title>
<path fill="none" stroke="#56c9d8" stroke-width="2" d="M284.5,-396C284.5,-396 187.5,-396 187.5,-396 181.5,-396 175.5,-390 175.5,-384 175.5,-384 175.5,-372 175.5,-372 175.5,-366 181.5,-360 187.5,-360 187.5,-360 284.5,-360 284.5,-360 290.5,-360 296.5,-366 296.5,-372 296.5,-372 296.5,-384 296.5,-384 296.5,-390 290.5,-396 284.5,-396"/>
<text text-anchor="middle" x="236" y="-374.12" font-family="sans" font-size="10.00">alignment_pbmm2_align</text>
</g>
<!-- 9&#45;&gt;8 -->
<g id="edge11" class="edge">
<title>9&#45;&gt;8</title>
<path fill="none" stroke="grey" stroke-width="2" d="M236,-359.34C236,-352.75 236,-345.08 236,-337.67"/>
<polygon fill="grey" stroke="grey" stroke-width="2" points="239.5,-337.93 236,-327.93 232.5,-337.93 239.5,-337.93"/>
</g>
<!-- 10 -->
<g id="node11" class="node">
<title>10</title>
<path fill="none" stroke="#56a2d8" stroke-width="2" d="M238,-496.25C238,-496.25 48,-496.25 48,-496.25 42,-496.25 36,-490.25 36,-484.25 36,-484.25 36,-444 36,-444 36,-438 42,-432 48,-432 48,-432 238,-432 238,-432 244,-432 250,-438 250,-444 250,-444 250,-484.25 250,-484.25 250,-490.25 244,-496.25 238,-496.25"/>
<text text-anchor="middle" x="143" y="-482.75" font-family="sans" font-size="10.00">prealignment_pbmarkdup</text>
<text text-anchor="middle" x="143" y="-471.5" font-family="sans" font-size="10.00">barcode: NAS</text>
<text text-anchor="middle" x="143" y="-460.25" font-family="sans" font-size="10.00">processing_unit: m84045_231122_151755_s3</text>
<text text-anchor="middle" x="143" y="-449" font-family="sans" font-size="10.00">sample: C259</text>
<text text-anchor="middle" x="143" y="-437.75" font-family="sans" font-size="10.00">type: N</text>
</g>
<!-- 10&#45;&gt;9 -->
<g id="edge12" class="edge">
<title>10&#45;&gt;9</title>
<path fill="none" stroke="grey" stroke-width="2" d="M178.42,-431.08C187.75,-422.65 197.7,-413.64 206.67,-405.53"/>
<polygon fill="grey" stroke="grey" stroke-width="2" points="208.97,-408.17 214.04,-398.87 204.27,-402.98 208.97,-408.17"/>
</g>
<!-- 11 -->
<g id="node12" class="node">
<title>11</title>
<path fill="none" stroke="#c6d856" stroke-width="2" d="M380,-482.12C380,-482.12 280,-482.12 280,-482.12 274,-482.12 268,-476.12 268,-470.12 268,-470.12 268,-458.12 268,-458.12 268,-452.12 274,-446.12 280,-446.12 280,-446.12 380,-446.12 380,-446.12 386,-446.12 392,-452.12 392,-458.12 392,-458.12 392,-470.12 392,-470.12 392,-476.12 386,-482.12 380,-482.12"/>
<text text-anchor="middle" x="330" y="-460.25" font-family="sans" font-size="10.00">alignment_pbmm2_index</text>
</g>
<!-- 11&#45;&gt;9 -->
<g id="edge13" class="edge">
<title>11&#45;&gt;9</title>
<path fill="none" stroke="grey" stroke-width="2" d="M310.07,-445.28C297.1,-433.68 279.98,-418.36 265.46,-405.36"/>
<polygon fill="grey" stroke="grey" stroke-width="2" points="267.95,-402.89 258.16,-398.83 263.28,-408.11 267.95,-402.89"/>
</g>
</g>
</svg>
