<?xml version="1.0" encoding="UTF-8" standalone="no"?>
<!DOCTYPE svg PUBLIC "-//W3C//DTD SVG 1.1//EN"
 "http://www.w3.org/Graphics/SVG/1.1/DTD/svg11.dtd">
<!-- Generated by graphviz version 2.40.1 (0)
 -->
<!-- Title: snakemake_dag Pages: 1 -->
<svg width="1470pt" height="764pt"
 viewBox="0.00 0.00 1469.50 764.00" xmlns="http://www.w3.org/2000/svg" xmlns:xlink="http://www.w3.org/1999/xlink">
<g id="graph0" class="graph" transform="scale(1 1) rotate(0) translate(4 760)">
<title>snakemake_dag</title>
<polygon fill="#ffffff" stroke="transparent" points="-4,4 -4,-760 1465.5,-760 1465.5,4 -4,4"/>
<!-- 0 -->
<g id="node1" class="node">
<title>0</title>
<path fill="none" stroke="#d85656" stroke-width="2" d="M824,-36C824,-36 794,-36 794,-36 788,-36 782,-30 782,-24 782,-24 782,-12 782,-12 782,-6 788,0 794,0 794,0 824,0 824,0 830,0 836,-6 836,-12 836,-12 836,-24 836,-24 836,-30 830,-36 824,-36"/>
<text text-anchor="middle" x="809" y="-15.5" font-family="sans" font-size="10.00" fill="#000000">all</text>
</g>
<!-- 1 -->
<g id="node2" class="node">
<title>1</title>
<path fill="none" stroke="#61d856" stroke-width="2" d="M1159,-108C1159,-108 1079,-108 1079,-108 1073,-108 1067,-102 1067,-96 1067,-96 1067,-84 1067,-84 1067,-78 1073,-72 1079,-72 1079,-72 1159,-72 1159,-72 1165,-72 1171,-78 1171,-84 1171,-84 1171,-96 1171,-96 1171,-102 1165,-108 1159,-108"/>
<text text-anchor="middle" x="1119" y="-87.5" font-family="sans" font-size="10.00" fill="#000000">_copy_cnvkit_pon</text>
</g>
<!-- 1&#45;&gt;0 -->
<g id="edge2" class="edge">
<title>1&#45;&gt;0</title>
<path fill="none" stroke="#c0c0c0" stroke-width="2" d="M1066.7633,-77.8676C1004.1902,-63.3345 900.9509,-39.3563 846.0385,-26.6025"/>
<polygon fill="#c0c0c0" stroke="#c0c0c0" stroke-width="2" points="846.5799,-23.1351 836.0473,-24.282 844.9962,-29.9537 846.5799,-23.1351"/>
</g>
<!-- 2 -->
<g id="node3" class="node">
<title>2</title>
<path fill="none" stroke="#70d856" stroke-width="2" d="M1383,-540C1383,-540 1183,-540 1183,-540 1177,-540 1171,-534 1171,-528 1171,-528 1171,-516 1171,-516 1171,-510 1177,-504 1183,-504 1183,-504 1383,-504 1383,-504 1389,-504 1395,-510 1395,-516 1395,-516 1395,-528 1395,-528 1395,-534 1389,-540 1383,-540"/>
<text text-anchor="middle" x="1283" y="-519.5" font-family="sans" font-size="10.00" fill="#000000">references_cnvkit_build_normal_reference</text>
</g>
<!-- 2&#45;&gt;1 -->
<g id="edge5" class="edge">
<title>2&#45;&gt;1</title>
<path fill="none" stroke="#c0c0c0" stroke-width="2" d="M1281.7568,-503.8247C1279.9994,-476.5213 1277,-423.2893 1277,-378 1277,-378 1277,-378 1277,-234 1277,-176.362 1218.8534,-135.661 1173.1087,-112.5594"/>
<polygon fill="#c0c0c0" stroke="#c0c0c0" stroke-width="2" points="1174.375,-109.2827 1163.8538,-108.0356 1171.3009,-115.5716 1174.375,-109.2827"/>
</g>
<!-- 3 -->
<g id="node4" class="node">
<title>3</title>
<path fill="none" stroke="#d8d356" stroke-width="2" d="M649,-612C649,-612 527,-612 527,-612 521,-612 515,-606 515,-600 515,-600 515,-588 515,-588 515,-582 521,-576 527,-576 527,-576 649,-576 649,-576 655,-576 661,-582 661,-588 661,-588 661,-600 661,-600 661,-606 655,-612 649,-612"/>
<text text-anchor="middle" x="588" y="-591.5" font-family="sans" font-size="10.00" fill="#000000">alignment_pbmm2_merge</text>
</g>
<!-- 3&#45;&gt;2 -->
<g id="edge7" class="edge">
<title>3&#45;&gt;2</title>
<path fill="none" stroke="#c0c0c0" stroke-width="2" d="M661.076,-588.394C768.3485,-579.8826 974.9734,-562.4186 1160.9943,-540.0876"/>
<polygon fill="#c0c0c0" stroke="#c0c0c0" stroke-width="2" points="1161.4508,-543.558 1170.9591,-538.8843 1160.6116,-536.6085 1161.4508,-543.558"/>
</g>
<!-- 11 -->
<g id="node12" class="node">
<title>11</title>
<path fill="none" stroke="#56d0d8" stroke-width="2" d="M932.5,-396C932.5,-396 801.5,-396 801.5,-396 795.5,-396 789.5,-390 789.5,-384 789.5,-384 789.5,-372 789.5,-372 789.5,-366 795.5,-360 801.5,-360 801.5,-360 932.5,-360 932.5,-360 938.5,-360 944.5,-366 944.5,-372 944.5,-372 944.5,-384 944.5,-384 944.5,-390 938.5,-396 932.5,-396"/>
<text text-anchor="middle" x="867" y="-375.5" font-family="sans" font-size="10.00" fill="#000000">snv_indels_whatshap_phase</text>
</g>
<!-- 3&#45;&gt;11 -->
<g id="edge17" class="edge">
<title>3&#45;&gt;11</title>
<path fill="none" stroke="#c0c0c0" stroke-width="2" d="M661.2556,-579.6144C758.8617,-558.7751 923.331,-517.2449 958,-468 967.2106,-454.917 965.917,-445.904 958,-432 950.6881,-419.1588 938.987,-409.0559 926.3768,-401.2384"/>
<polygon fill="#c0c0c0" stroke="#c0c0c0" stroke-width="2" points="927.9622,-398.1132 917.5441,-396.1858 924.4864,-404.1893 927.9622,-398.1132"/>
</g>
<!-- 12 -->
<g id="node13" class="node">
<title>12</title>
<path fill="none" stroke="#d87556" stroke-width="2" d="M937,-468C937,-468 801,-468 801,-468 795,-468 789,-462 789,-456 789,-456 789,-444 789,-444 789,-438 795,-432 801,-432 801,-432 937,-432 937,-432 943,-432 949,-438 949,-444 949,-444 949,-456 949,-456 949,-462 943,-468 937,-468"/>
<text text-anchor="middle" x="869" y="-447.5" font-family="sans" font-size="10.00" fill="#000000">references_deepsomatic_pon</text>
</g>
<!-- 3&#45;&gt;12 -->
<g id="edge20" class="edge">
<title>3&#45;&gt;12</title>
<path fill="none" stroke="#c0c0c0" stroke-width="2" d="M631.01,-575.959C654.3323,-565.8886 683.5176,-552.8186 709,-540 751.1599,-518.792 798.0798,-492.0064 830.147,-473.1915"/>
<polygon fill="#c0c0c0" stroke="#c0c0c0" stroke-width="2" points="831.9402,-476.1973 838.7815,-468.1073 828.3884,-470.1653 831.9402,-476.1973"/>
</g>
<!-- 13 -->
<g id="node14" class="node">
<title>13</title>
<path fill="none" stroke="#56d88a" stroke-width="2" d="M671.5,-540C671.5,-540 504.5,-540 504.5,-540 498.5,-540 492.5,-534 492.5,-528 492.5,-528 492.5,-516 492.5,-516 492.5,-510 498.5,-504 504.5,-504 504.5,-504 671.5,-504 671.5,-504 677.5,-504 683.5,-510 683.5,-516 683.5,-516 683.5,-528 683.5,-528 683.5,-534 677.5,-540 671.5,-540"/>
<text text-anchor="middle" x="588" y="-519.5" font-family="sans" font-size="10.00" fill="#000000">alignment_samtools_index_pbmm2</text>
</g>
<!-- 3&#45;&gt;13 -->
<g id="edge21" class="edge">
<title>3&#45;&gt;13</title>
<path fill="none" stroke="#c0c0c0" stroke-width="2" d="M588,-575.8314C588,-568.131 588,-558.9743 588,-550.4166"/>
<polygon fill="#c0c0c0" stroke="#c0c0c0" stroke-width="2" points="591.5001,-550.4132 588,-540.4133 584.5001,-550.4133 591.5001,-550.4132"/>
</g>
<!-- 19 -->
<g id="node20" class="node">
<title>19</title>
<path fill="none" stroke="#5692d8" stroke-width="2" d="M720.5,-468C720.5,-468 619.5,-468 619.5,-468 613.5,-468 607.5,-462 607.5,-456 607.5,-456 607.5,-444 607.5,-444 607.5,-438 613.5,-432 619.5,-432 619.5,-432 720.5,-432 720.5,-432 726.5,-432 732.5,-438 732.5,-444 732.5,-444 732.5,-456 732.5,-456 732.5,-462 726.5,-468 720.5,-468"/>
<text text-anchor="middle" x="670" y="-447.5" font-family="sans" font-size="10.00" fill="#000000">cnv_sv_pbsv_discover</text>
</g>
<!-- 3&#45;&gt;19 -->
<g id="edge30" class="edge">
<title>3&#45;&gt;19</title>
<path fill="none" stroke="#c0c0c0" stroke-width="2" d="M648.5756,-575.9994C665.5881,-567.8421 682.1233,-556.2569 692,-540 703.6458,-520.8311 696.0776,-495.8424 686.7717,-477.0611"/>
<polygon fill="#c0c0c0" stroke="#c0c0c0" stroke-width="2" points="689.7964,-475.2952 681.9905,-468.1314 683.6252,-478.5994 689.7964,-475.2952"/>
</g>
<!-- 27 -->
<g id="node28" class="node">
<title>27</title>
<path fill="none" stroke="#d8a456" stroke-width="2" d="M209.5,-468C209.5,-468 74.5,-468 74.5,-468 68.5,-468 62.5,-462 62.5,-456 62.5,-456 62.5,-444 62.5,-444 62.5,-438 68.5,-432 74.5,-432 74.5,-432 209.5,-432 209.5,-432 215.5,-432 221.5,-438 221.5,-444 221.5,-444 221.5,-456 221.5,-456 221.5,-462 215.5,-468 209.5,-468"/>
<text text-anchor="middle" x="142" y="-447.5" font-family="sans" font-size="10.00" fill="#000000">qc_picard_collect_hs_metrics</text>
</g>
<!-- 3&#45;&gt;27 -->
<g id="edge42" class="edge">
<title>3&#45;&gt;27</title>
<path fill="none" stroke="#c0c0c0" stroke-width="2" d="M531.9654,-575.9081C449.3181,-549.2238 295.0781,-499.4243 207.3802,-471.1093"/>
<polygon fill="#c0c0c0" stroke="#c0c0c0" stroke-width="2" points="208.3971,-467.7598 197.8054,-468.0179 206.2463,-474.4212 208.3971,-467.7598"/>
</g>
<!-- 31 -->
<g id="node32" class="node">
<title>31</title>
<path fill="none" stroke="#56c1d8" stroke-width="2" d="M577,-468C577,-468 519,-468 519,-468 513,-468 507,-462 507,-456 507,-456 507,-444 507,-444 507,-438 513,-432 519,-432 519,-432 577,-432 577,-432 583,-432 589,-438 589,-444 589,-444 589,-456 589,-456 589,-462 583,-468 577,-468"/>
<text text-anchor="middle" x="548" y="-447.5" font-family="sans" font-size="10.00" fill="#000000">qc_mosdepth</text>
</g>
<!-- 3&#45;&gt;31 -->
<g id="edge47" class="edge">
<title>3&#45;&gt;31</title>
<path fill="none" stroke="#c0c0c0" stroke-width="2" d="M526.5808,-575.9938C509.5025,-567.8495 492.9301,-556.2732 483,-540 474.6658,-526.342 476.2025,-518.4843 483,-504 488.4591,-492.3676 497.7912,-482.3739 507.7073,-474.2592"/>
<polygon fill="#c0c0c0" stroke="#c0c0c0" stroke-width="2" points="509.8846,-477.0005 515.7221,-468.1588 505.645,-471.4304 509.8846,-477.0005"/>
</g>
<!-- 32 -->
<g id="node33" class="node">
<title>32</title>
<path fill="none" stroke="#d8b456" stroke-width="2" d="M476.5,-468C476.5,-468 251.5,-468 251.5,-468 245.5,-468 239.5,-462 239.5,-456 239.5,-456 239.5,-444 239.5,-444 239.5,-438 245.5,-432 251.5,-432 251.5,-432 476.5,-432 476.5,-432 482.5,-432 488.5,-438 488.5,-444 488.5,-444 488.5,-456 488.5,-456 488.5,-462 482.5,-468 476.5,-468"/>
<text text-anchor="middle" x="364" y="-447.5" font-family="sans" font-size="10.00" fill="#000000">qc_picard_collect_alignment_summary_metrics</text>
</g>
<!-- 3&#45;&gt;32 -->
<g id="edge49" class="edge">
<title>3&#45;&gt;32</title>
<path fill="none" stroke="#c0c0c0" stroke-width="2" d="M543.3722,-575.8861C521.7657,-566.3677 495.8388,-553.8154 474,-540 443.5422,-520.7322 412.0314,-494.153 390.5842,-474.8779"/>
<polygon fill="#c0c0c0" stroke="#c0c0c0" stroke-width="2" points="392.9144,-472.2661 383.1586,-468.134 388.2083,-477.4481 392.9144,-472.2661"/>
</g>
<!-- 4 -->
<g id="node5" class="node">
<title>4</title>
<path fill="none" stroke="#56d89a" stroke-width="2" d="M421,-684C421,-684 307,-684 307,-684 301,-684 295,-678 295,-672 295,-672 295,-660 295,-660 295,-654 301,-648 307,-648 307,-648 421,-648 421,-648 427,-648 433,-654 433,-660 433,-660 433,-672 433,-672 433,-678 427,-684 421,-684"/>
<text text-anchor="middle" x="364" y="-663.5" font-family="sans" font-size="10.00" fill="#000000">alignment_pbmm2_align</text>
</g>
<!-- 4&#45;&gt;3 -->
<g id="edge9" class="edge">
<title>4&#45;&gt;3</title>
<path fill="none" stroke="#c0c0c0" stroke-width="2" d="M420.2355,-647.9243C451.1239,-637.9959 489.6096,-625.6255 521.9256,-615.2382"/>
<polygon fill="#c0c0c0" stroke="#c0c0c0" stroke-width="2" points="523.2921,-618.4754 531.7413,-612.0831 521.15,-611.8112 523.2921,-618.4754"/>
</g>
<!-- 30 -->
<g id="node31" class="node">
<title>30</title>
<path fill="none" stroke="#8fd856" stroke-width="2" d="M56,-540C56,-540 12,-540 12,-540 6,-540 0,-534 0,-528 0,-528 0,-516 0,-516 0,-510 6,-504 12,-504 12,-504 56,-504 56,-504 62,-504 68,-510 68,-516 68,-516 68,-528 68,-528 68,-534 62,-540 56,-540"/>
<text text-anchor="middle" x="34" y="-519.5" font-family="sans" font-size="10.00" fill="#000000">qc_sequali</text>
</g>
<!-- 4&#45;&gt;30 -->
<g id="edge45" class="edge">
<title>4&#45;&gt;30</title>
<path fill="none" stroke="#c0c0c0" stroke-width="2" d="M294.8809,-655.4332C233.342,-645.1879 148.6066,-628.7732 119,-612 91.5116,-596.4268 67.5651,-569.063 52.1565,-548.5843"/>
<polygon fill="#c0c0c0" stroke="#c0c0c0" stroke-width="2" points="54.8165,-546.2921 46.0901,-540.2837 49.1649,-550.4225 54.8165,-546.2921"/>
</g>
<!-- 5 -->
<g id="node6" class="node">
<title>5</title>
<path fill="none" stroke="#56d8a9" stroke-width="2" d="M343.5,-756C343.5,-756 224.5,-756 224.5,-756 218.5,-756 212.5,-750 212.5,-744 212.5,-744 212.5,-732 212.5,-732 212.5,-726 218.5,-720 224.5,-720 224.5,-720 343.5,-720 343.5,-720 349.5,-720 355.5,-726 355.5,-732 355.5,-732 355.5,-744 355.5,-744 355.5,-750 349.5,-756 343.5,-756"/>
<text text-anchor="middle" x="284" y="-735.5" font-family="sans" font-size="10.00" fill="#000000">prealignment_pbmarkdup</text>
</g>
<!-- 5&#45;&gt;4 -->
<g id="edge11" class="edge">
<title>5&#45;&gt;4</title>
<path fill="none" stroke="#c0c0c0" stroke-width="2" d="M304.1874,-719.8314C313.8514,-711.1337 325.5796,-700.5783 336.0816,-691.1265"/>
<polygon fill="#c0c0c0" stroke="#c0c0c0" stroke-width="2" points="338.7275,-693.454 343.8191,-684.1628 334.0447,-688.251 338.7275,-693.454"/>
</g>
<!-- 6 -->
<g id="node7" class="node">
<title>6</title>
<path fill="none" stroke="#bed856" stroke-width="2" d="M502.5,-756C502.5,-756 385.5,-756 385.5,-756 379.5,-756 373.5,-750 373.5,-744 373.5,-744 373.5,-732 373.5,-732 373.5,-726 379.5,-720 385.5,-720 385.5,-720 502.5,-720 502.5,-720 508.5,-720 514.5,-726 514.5,-732 514.5,-732 514.5,-744 514.5,-744 514.5,-750 508.5,-756 502.5,-756"/>
<text text-anchor="middle" x="444" y="-735.5" font-family="sans" font-size="10.00" fill="#000000">alignment_pbmm2_index</text>
</g>
<!-- 6&#45;&gt;4 -->
<g id="edge10" class="edge">
<title>6&#45;&gt;4</title>
<path fill="none" stroke="#c0c0c0" stroke-width="2" d="M423.8126,-719.8314C414.1486,-711.1337 402.4204,-700.5783 391.9184,-691.1265"/>
<polygon fill="#c0c0c0" stroke="#c0c0c0" stroke-width="2" points="393.9553,-688.251 384.1809,-684.1628 389.2725,-693.454 393.9553,-688.251"/>
</g>
<!-- 7 -->
<g id="node8" class="node">
<title>7</title>
<path fill="none" stroke="#5682d8" stroke-width="2" d="M1372.5,-684C1372.5,-684 1217.5,-684 1217.5,-684 1211.5,-684 1205.5,-678 1205.5,-672 1205.5,-672 1205.5,-660 1205.5,-660 1205.5,-654 1211.5,-648 1217.5,-648 1217.5,-648 1372.5,-648 1372.5,-648 1378.5,-648 1384.5,-654 1384.5,-660 1384.5,-660 1384.5,-672 1384.5,-672 1384.5,-678 1378.5,-684 1372.5,-684"/>
<text text-anchor="middle" x="1295" y="-663.5" font-family="sans" font-size="10.00" fill="#000000">references_cnvkit_create_targets</text>
</g>
<!-- 7&#45;&gt;2 -->
<g id="edge8" class="edge">
<title>7&#45;&gt;2</title>
<path fill="none" stroke="#c0c0c0" stroke-width="2" d="M1274.1422,-647.6461C1264.846,-638.0709 1254.9022,-625.54 1250,-612 1244.5532,-596.9557 1245.6664,-591.402 1250,-576 1252.6661,-566.5243 1257.5081,-557.067 1262.6762,-548.7759"/>
<polygon fill="#c0c0c0" stroke="#c0c0c0" stroke-width="2" points="1265.6966,-550.5549 1268.3248,-540.2912 1259.8697,-546.6757 1265.6966,-550.5549"/>
</g>
<!-- 8 -->
<g id="node9" class="node">
<title>8</title>
<path fill="none" stroke="#afd856" stroke-width="2" d="M1449.5,-612C1449.5,-612 1270.5,-612 1270.5,-612 1264.5,-612 1258.5,-606 1258.5,-600 1258.5,-600 1258.5,-588 1258.5,-588 1258.5,-582 1264.5,-576 1270.5,-576 1270.5,-576 1449.5,-576 1449.5,-576 1455.5,-576 1461.5,-582 1461.5,-588 1461.5,-588 1461.5,-600 1461.5,-600 1461.5,-606 1455.5,-612 1449.5,-612"/>
<text text-anchor="middle" x="1360" y="-591.5" font-family="sans" font-size="10.00" fill="#000000">references_cnvkit_create_anti_targets</text>
</g>
<!-- 7&#45;&gt;8 -->
<g id="edge12" class="edge">
<title>7&#45;&gt;8</title>
<path fill="none" stroke="#c0c0c0" stroke-width="2" d="M1311.4022,-647.8314C1319.0415,-639.3694 1328.2683,-629.1489 1336.6207,-619.8971"/>
<polygon fill="#c0c0c0" stroke="#c0c0c0" stroke-width="2" points="1339.2738,-622.1813 1343.3769,-612.4133 1334.0779,-617.4906 1339.2738,-622.1813"/>
</g>
<!-- 8&#45;&gt;2 -->
<g id="edge6" class="edge">
<title>8&#45;&gt;2</title>
<path fill="none" stroke="#c0c0c0" stroke-width="2" d="M1340.5696,-575.8314C1331.268,-567.1337 1319.9796,-556.5783 1309.8714,-547.1265"/>
<polygon fill="#c0c0c0" stroke="#c0c0c0" stroke-width="2" points="1312.1189,-544.4363 1302.4241,-540.1628 1307.3379,-549.5493 1312.1189,-544.4363"/>
</g>
<!-- 9 -->
<g id="node10" class="node">
<title>9</title>
<path fill="none" stroke="#5673d8" stroke-width="2" d="M938.5,-180C938.5,-180 871.5,-180 871.5,-180 865.5,-180 859.5,-174 859.5,-168 859.5,-168 859.5,-156 859.5,-156 859.5,-150 865.5,-144 871.5,-144 871.5,-144 938.5,-144 938.5,-144 944.5,-144 950.5,-150 950.5,-156 950.5,-156 950.5,-168 950.5,-168 950.5,-174 944.5,-180 938.5,-180"/>
<text text-anchor="middle" x="905" y="-159.5" font-family="sans" font-size="10.00" fill="#000000">_copy_snv_pon</text>
</g>
<!-- 9&#45;&gt;0 -->
<g id="edge4" class="edge">
<title>9&#45;&gt;0</title>
<path fill="none" stroke="#c0c0c0" stroke-width="2" d="M892.8415,-143.7623C876.1067,-118.66 845.8678,-73.3017 826.6447,-44.4671"/>
<polygon fill="#c0c0c0" stroke="#c0c0c0" stroke-width="2" points="829.519,-42.4687 821.0597,-36.0896 823.6946,-46.3516 829.519,-42.4687"/>
</g>
<!-- 10 -->
<g id="node11" class="node">
<title>10</title>
<path fill="none" stroke="#80d856" stroke-width="2" d="M982,-252C982,-252 834,-252 834,-252 828,-252 822,-246 822,-240 822,-240 822,-228 822,-228 822,-222 828,-216 834,-216 834,-216 982,-216 982,-216 988,-216 994,-222 994,-228 994,-228 994,-240 994,-240 994,-246 988,-252 982,-252"/>
<text text-anchor="middle" x="908" y="-231.5" font-family="sans" font-size="10.00" fill="#000000">references_snv_bcftools_merge</text>
</g>
<!-- 10&#45;&gt;9 -->
<g id="edge13" class="edge">
<title>10&#45;&gt;9</title>
<path fill="none" stroke="#c0c0c0" stroke-width="2" d="M907.243,-215.8314C906.9221,-208.131 906.5406,-198.9743 906.184,-190.4166"/>
<polygon fill="#c0c0c0" stroke="#c0c0c0" stroke-width="2" points="909.6806,-190.2589 905.7672,-180.4133 902.6867,-190.5503 909.6806,-190.2589"/>
</g>
<!-- 11&#45;&gt;10 -->
<g id="edge14" class="edge">
<title>11&#45;&gt;10</title>
<path fill="none" stroke="#c0c0c0" stroke-width="2" d="M879.9048,-359.8972C886.4323,-349.8087 893.8357,-336.7411 898,-324 904.5426,-303.9825 906.9762,-280.2711 907.8096,-262.2126"/>
<polygon fill="#c0c0c0" stroke="#c0c0c0" stroke-width="2" points="911.3133,-262.1521 908.1394,-252.0438 904.317,-261.9251 911.3133,-262.1521"/>
</g>
<!-- 14 -->
<g id="node15" class="node">
<title>14</title>
<path fill="none" stroke="#d89556" stroke-width="2" d="M877,-324C877,-324 821,-324 821,-324 815,-324 809,-318 809,-312 809,-312 809,-300 809,-300 809,-294 815,-288 821,-288 821,-288 877,-288 877,-288 883,-288 889,-294 889,-300 889,-300 889,-312 889,-312 889,-318 883,-324 877,-324"/>
<text text-anchor="middle" x="849" y="-303.5" font-family="sans" font-size="10.00" fill="#000000">cnv_sv_tabix</text>
</g>
<!-- 11&#45;&gt;14 -->
<g id="edge22" class="edge">
<title>11&#45;&gt;14</title>
<path fill="none" stroke="#c0c0c0" stroke-width="2" d="M862.4578,-359.8314C860.5116,-352.0463 858.1932,-342.7729 856.0337,-334.1347"/>
<polygon fill="#c0c0c0" stroke="#c0c0c0" stroke-width="2" points="859.4242,-333.2658 853.6033,-324.4133 852.6332,-334.9636 859.4242,-333.2658"/>
</g>
<!-- 12&#45;&gt;11 -->
<g id="edge18" class="edge">
<title>12&#45;&gt;11</title>
<path fill="none" stroke="#c0c0c0" stroke-width="2" d="M868.4953,-431.8314C868.2814,-424.131 868.0271,-414.9743 867.7894,-406.4166"/>
<polygon fill="#c0c0c0" stroke="#c0c0c0" stroke-width="2" points="871.2879,-406.3122 867.5115,-396.4133 864.2906,-406.5066 871.2879,-406.3122"/>
</g>
<!-- 13&#45;&gt;11 -->
<g id="edge16" class="edge">
<title>13&#45;&gt;11</title>
<path fill="none" stroke="#c0c0c0" stroke-width="2" d="M657.6884,-503.9811C684.7994,-495.3187 715.4264,-483.4116 741,-468 761.2039,-455.8244 761.2276,-446.2844 780,-432 794.2931,-421.124 810.8549,-410.422 825.6685,-401.4505"/>
<polygon fill="#c0c0c0" stroke="#c0c0c0" stroke-width="2" points="827.837,-404.2323 834.6303,-396.1021 824.2496,-398.2214 827.837,-404.2323"/>
</g>
<!-- 13&#45;&gt;12 -->
<g id="edge19" class="edge">
<title>13&#45;&gt;12</title>
<path fill="none" stroke="#c0c0c0" stroke-width="2" d="M658.5455,-503.9243C698.1289,-493.7819 747.6581,-481.0912 788.7221,-470.5694"/>
<polygon fill="#c0c0c0" stroke="#c0c0c0" stroke-width="2" points="789.6072,-473.9558 798.4255,-468.0831 787.8697,-467.1748 789.6072,-473.9558"/>
</g>
<!-- 13&#45;&gt;19 -->
<g id="edge29" class="edge">
<title>13&#45;&gt;19</title>
<path fill="none" stroke="#c0c0c0" stroke-width="2" d="M608.6921,-503.8314C618.6948,-495.0485 630.855,-484.3712 641.6999,-474.8489"/>
<polygon fill="#c0c0c0" stroke="#c0c0c0" stroke-width="2" points="644.1094,-477.3909 649.3146,-468.1628 639.4908,-472.1308 644.1094,-477.3909"/>
</g>
<!-- 13&#45;&gt;27 -->
<g id="edge41" class="edge">
<title>13&#45;&gt;27</title>
<path fill="none" stroke="#c0c0c0" stroke-width="2" d="M492.4289,-508.9633C422.6576,-499.1232 325.5608,-484.7641 231.557,-468.2359"/>
<polygon fill="#c0c0c0" stroke="#c0c0c0" stroke-width="2" points="232.0466,-464.7682 221.5898,-466.4731 230.8274,-471.6612 232.0466,-464.7682"/>
</g>
<!-- 13&#45;&gt;31 -->
<g id="edge46" class="edge">
<title>13&#45;&gt;31</title>
<path fill="none" stroke="#c0c0c0" stroke-width="2" d="M577.9063,-503.8314C573.4403,-495.7925 568.0925,-486.1666 563.1621,-477.2918"/>
<polygon fill="#c0c0c0" stroke="#c0c0c0" stroke-width="2" points="566.1456,-475.4551 558.2296,-468.4133 560.0265,-478.8546 566.1456,-475.4551"/>
</g>
<!-- 13&#45;&gt;32 -->
<g id="edge48" class="edge">
<title>13&#45;&gt;32</title>
<path fill="none" stroke="#c0c0c0" stroke-width="2" d="M531.7645,-503.9243C500.8761,-493.9959 462.3904,-481.6255 430.0744,-471.2382"/>
<polygon fill="#c0c0c0" stroke="#c0c0c0" stroke-width="2" points="430.85,-467.8112 420.2587,-468.0831 428.7079,-474.4754 430.85,-467.8112"/>
</g>
<!-- 14&#45;&gt;10 -->
<g id="edge15" class="edge">
<title>14&#45;&gt;10</title>
<path fill="none" stroke="#c0c0c0" stroke-width="2" d="M863.8882,-287.8314C870.753,-279.454 879.0301,-269.3531 886.5511,-260.1749"/>
<polygon fill="#c0c0c0" stroke="#c0c0c0" stroke-width="2" points="889.2803,-262.3665 892.9114,-252.4133 883.8659,-257.9297 889.2803,-262.3665"/>
</g>
<!-- 15 -->
<g id="node16" class="node">
<title>15</title>
<path fill="none" stroke="#d8c356" stroke-width="2" d="M804.5,-108C804.5,-108 743.5,-108 743.5,-108 737.5,-108 731.5,-102 731.5,-96 731.5,-96 731.5,-84 731.5,-84 731.5,-78 737.5,-72 743.5,-72 743.5,-72 804.5,-72 804.5,-72 810.5,-72 816.5,-78 816.5,-84 816.5,-84 816.5,-96 816.5,-96 816.5,-102 810.5,-108 804.5,-108"/>
<text text-anchor="middle" x="774" y="-87.5" font-family="sans" font-size="10.00" fill="#000000">_copy_sv_pon</text>
</g>
<!-- 15&#45;&gt;0 -->
<g id="edge1" class="edge">
<title>15&#45;&gt;0</title>
<path fill="none" stroke="#c0c0c0" stroke-width="2" d="M782.832,-71.8314C786.6986,-63.8771 791.3206,-54.369 795.5968,-45.5723"/>
<polygon fill="#c0c0c0" stroke="#c0c0c0" stroke-width="2" points="798.8249,-46.9371 800.0491,-36.4133 792.5293,-43.8768 798.8249,-46.9371"/>
</g>
<!-- 16 -->
<g id="node17" class="node">
<title>16</title>
<path fill="none" stroke="#56d85b" stroke-width="2" d="M826,-180C826,-180 684,-180 684,-180 678,-180 672,-174 672,-168 672,-168 672,-156 672,-156 672,-150 678,-144 684,-144 684,-144 826,-144 826,-144 832,-144 838,-150 838,-156 838,-156 838,-168 838,-168 838,-174 832,-180 826,-180"/>
<text text-anchor="middle" x="755" y="-159.5" font-family="sans" font-size="10.00" fill="#000000">references_sv_bcftools_merge</text>
</g>
<!-- 16&#45;&gt;15 -->
<g id="edge23" class="edge">
<title>16&#45;&gt;15</title>
<path fill="none" stroke="#c0c0c0" stroke-width="2" d="M759.7945,-143.8314C761.8489,-136.0463 764.296,-126.7729 766.5756,-118.1347"/>
<polygon fill="#c0c0c0" stroke="#c0c0c0" stroke-width="2" points="769.9735,-118.9753 769.1409,-108.4133 763.2052,-117.1892 769.9735,-118.9753"/>
</g>
<!-- 17 -->
<g id="node18" class="node">
<title>17</title>
<path fill="none" stroke="#9fd856" stroke-width="2" d="M730,-324C730,-324 674,-324 674,-324 668,-324 662,-318 662,-312 662,-312 662,-300 662,-300 662,-294 668,-288 674,-288 674,-288 730,-288 730,-288 736,-288 742,-294 742,-300 742,-300 742,-312 742,-312 742,-318 736,-324 730,-324"/>
<text text-anchor="middle" x="702" y="-303.5" font-family="sans" font-size="10.00" fill="#000000">bgzip_sv_vcf</text>
</g>
<!-- 17&#45;&gt;16 -->
<g id="edge24" class="edge">
<title>17&#45;&gt;16</title>
<path fill="none" stroke="#c0c0c0" stroke-width="2" d="M696.3801,-287.9101C691.5718,-269.1111 686.8819,-239.2449 697,-216 701.8415,-204.8773 710.2283,-195.0106 719.1439,-186.8541"/>
<polygon fill="#c0c0c0" stroke="#c0c0c0" stroke-width="2" points="721.69,-189.2833 727.0391,-180.138 717.1544,-183.9515 721.69,-189.2833"/>
</g>
<!-- 24 -->
<g id="node25" class="node">
<title>24</title>
<path fill="none" stroke="#5663d8" stroke-width="2" d="M791.5,-252C791.5,-252 718.5,-252 718.5,-252 712.5,-252 706.5,-246 706.5,-240 706.5,-240 706.5,-228 706.5,-228 706.5,-222 712.5,-216 718.5,-216 718.5,-216 791.5,-216 791.5,-216 797.5,-216 803.5,-222 803.5,-228 803.5,-228 803.5,-240 803.5,-240 803.5,-246 797.5,-252 791.5,-252"/>
<text text-anchor="middle" x="755" y="-231.5" font-family="sans" font-size="10.00" fill="#000000">cnv_sv_tabix_sv</text>
</g>
<!-- 17&#45;&gt;24 -->
<g id="edge35" class="edge">
<title>17&#45;&gt;24</title>
<path fill="none" stroke="#c0c0c0" stroke-width="2" d="M715.3741,-287.8314C721.4162,-279.6232 728.6763,-269.7606 735.3221,-260.7323"/>
<polygon fill="#c0c0c0" stroke="#c0c0c0" stroke-width="2" points="738.3363,-262.5415 741.4458,-252.4133 732.6989,-258.3918 738.3363,-262.5415"/>
</g>
<!-- 18 -->
<g id="node19" class="node">
<title>18</title>
<path fill="none" stroke="#56d87b" stroke-width="2" d="M735.5,-396C735.5,-396 658.5,-396 658.5,-396 652.5,-396 646.5,-390 646.5,-384 646.5,-384 646.5,-372 646.5,-372 646.5,-366 652.5,-360 658.5,-360 658.5,-360 735.5,-360 735.5,-360 741.5,-360 747.5,-366 747.5,-372 747.5,-372 747.5,-384 747.5,-384 747.5,-390 741.5,-396 735.5,-396"/>
<text text-anchor="middle" x="697" y="-375.5" font-family="sans" font-size="10.00" fill="#000000">cnv_sv_pbsv_call</text>
</g>
<!-- 18&#45;&gt;17 -->
<g id="edge26" class="edge">
<title>18&#45;&gt;17</title>
<path fill="none" stroke="#c0c0c0" stroke-width="2" d="M698.2617,-359.8314C698.7965,-352.131 699.4323,-342.9743 700.0266,-334.4166"/>
<polygon fill="#c0c0c0" stroke="#c0c0c0" stroke-width="2" points="703.52,-334.6317 700.7213,-324.4133 696.5368,-334.1467 703.52,-334.6317"/>
</g>
<!-- 19&#45;&gt;18 -->
<g id="edge28" class="edge">
<title>19&#45;&gt;18</title>
<path fill="none" stroke="#c0c0c0" stroke-width="2" d="M676.8132,-431.8314C679.7644,-423.9617 683.2858,-414.5712 686.555,-405.8533"/>
<polygon fill="#c0c0c0" stroke="#c0c0c0" stroke-width="2" points="689.8609,-407.0055 690.095,-396.4133 683.3066,-404.5476 689.8609,-407.0055"/>
</g>
<!-- 20 -->
<g id="node21" class="node">
<title>20</title>
<path fill="none" stroke="#ced856" stroke-width="2" d="M1069.5,-396C1069.5,-396 974.5,-396 974.5,-396 968.5,-396 962.5,-390 962.5,-384 962.5,-384 962.5,-372 962.5,-372 962.5,-366 968.5,-360 974.5,-360 974.5,-360 1069.5,-360 1069.5,-360 1075.5,-360 1081.5,-366 1081.5,-372 1081.5,-372 1081.5,-384 1081.5,-384 1081.5,-390 1075.5,-396 1069.5,-396"/>
<text text-anchor="middle" x="1022" y="-375.5" font-family="sans" font-size="10.00" fill="#000000">cnv_sv_sniffles2_call</text>
</g>
<!-- 20&#45;&gt;17 -->
<g id="edge27" class="edge">
<title>20&#45;&gt;17</title>
<path fill="none" stroke="#c0c0c0" stroke-width="2" d="M962.3366,-362.0346C959.5213,-361.3355 956.7316,-360.6538 954,-360 884.3868,-343.3379 803.3673,-326.4126 752.3829,-316.0599"/>
<polygon fill="#c0c0c0" stroke="#c0c0c0" stroke-width="2" points="752.7823,-312.5698 742.2866,-314.016 751.3933,-319.4306 752.7823,-312.5698"/>
</g>
<!-- 21 -->
<g id="node22" class="node">
<title>21</title>
<path fill="none" stroke="#56d8c9" stroke-width="2" d="M1140.5,-540C1140.5,-540 1017.5,-540 1017.5,-540 1011.5,-540 1005.5,-534 1005.5,-528 1005.5,-528 1005.5,-516 1005.5,-516 1005.5,-510 1011.5,-504 1017.5,-504 1017.5,-504 1140.5,-504 1140.5,-504 1146.5,-504 1152.5,-510 1152.5,-516 1152.5,-516 1152.5,-528 1152.5,-528 1152.5,-534 1146.5,-540 1140.5,-540"/>
<text text-anchor="middle" x="1079" y="-519.5" font-family="sans" font-size="10.00" fill="#000000">alignment_vacmap_merge</text>
</g>
<!-- 21&#45;&gt;20 -->
<g id="edge31" class="edge">
<title>21&#45;&gt;20</title>
<path fill="none" stroke="#c0c0c0" stroke-width="2" d="M1061.7937,-503.916C1053.341,-494.0358 1043.7594,-481.1551 1038,-468 1029.4339,-448.4342 1025.4525,-424.566 1023.6027,-406.3269"/>
<polygon fill="#c0c0c0" stroke="#c0c0c0" stroke-width="2" points="1027.0856,-405.9768 1022.7413,-396.3135 1020.1113,-406.5767 1027.0856,-405.9768"/>
</g>
<!-- 23 -->
<g id="node24" class="node">
<title>23</title>
<path fill="none" stroke="#56a2d8" stroke-width="2" d="M1227.5,-468C1227.5,-468 1058.5,-468 1058.5,-468 1052.5,-468 1046.5,-462 1046.5,-456 1046.5,-456 1046.5,-444 1046.5,-444 1046.5,-438 1052.5,-432 1058.5,-432 1058.5,-432 1227.5,-432 1227.5,-432 1233.5,-432 1239.5,-438 1239.5,-444 1239.5,-444 1239.5,-456 1239.5,-456 1239.5,-462 1233.5,-468 1227.5,-468"/>
<text text-anchor="middle" x="1143" y="-447.5" font-family="sans" font-size="10.00" fill="#000000">alignment_samtools_index_vacmap</text>
</g>
<!-- 21&#45;&gt;23 -->
<g id="edge34" class="edge">
<title>21&#45;&gt;23</title>
<path fill="none" stroke="#c0c0c0" stroke-width="2" d="M1095.1499,-503.8314C1102.6717,-495.3694 1111.7565,-485.1489 1119.9804,-475.8971"/>
<polygon fill="#c0c0c0" stroke="#c0c0c0" stroke-width="2" points="1122.6049,-478.2127 1126.6327,-468.4133 1117.373,-473.5621 1122.6049,-478.2127"/>
</g>
<!-- 22 -->
<g id="node23" class="node">
<title>22</title>
<path fill="none" stroke="#56d86b" stroke-width="2" d="M1137,-612C1137,-612 1021,-612 1021,-612 1015,-612 1009,-606 1009,-600 1009,-600 1009,-588 1009,-588 1009,-582 1015,-576 1021,-576 1021,-576 1137,-576 1137,-576 1143,-576 1149,-582 1149,-588 1149,-588 1149,-600 1149,-600 1149,-606 1143,-612 1137,-612"/>
<text text-anchor="middle" x="1079" y="-591.5" font-family="sans" font-size="10.00" fill="#000000">alignment_vacmap_align</text>
</g>
<!-- 22&#45;&gt;21 -->
<g id="edge33" class="edge">
<title>22&#45;&gt;21</title>
<path fill="none" stroke="#c0c0c0" stroke-width="2" d="M1079,-575.8314C1079,-568.131 1079,-558.9743 1079,-550.4166"/>
<polygon fill="#c0c0c0" stroke="#c0c0c0" stroke-width="2" points="1082.5001,-550.4132 1079,-540.4133 1075.5001,-550.4133 1082.5001,-550.4132"/>
</g>
<!-- 23&#45;&gt;20 -->
<g id="edge32" class="edge">
<title>23&#45;&gt;20</title>
<path fill="none" stroke="#c0c0c0" stroke-width="2" d="M1112.4666,-431.8314C1096.9899,-422.6221 1078.0131,-411.3301 1061.4437,-401.4706"/>
<polygon fill="#c0c0c0" stroke="#c0c0c0" stroke-width="2" points="1062.9071,-398.2687 1052.5236,-396.1628 1059.3276,-404.2843 1062.9071,-398.2687"/>
</g>
<!-- 24&#45;&gt;16 -->
<g id="edge25" class="edge">
<title>24&#45;&gt;16</title>
<path fill="none" stroke="#c0c0c0" stroke-width="2" d="M755,-215.8314C755,-208.131 755,-198.9743 755,-190.4166"/>
<polygon fill="#c0c0c0" stroke="#c0c0c0" stroke-width="2" points="758.5001,-190.4132 755,-180.4133 751.5001,-190.4133 758.5001,-190.4132"/>
</g>
<!-- 25 -->
<g id="node26" class="node">
<title>25</title>
<path fill="none" stroke="#56b1d8" stroke-width="2" d="M577.5,-252C577.5,-252 452.5,-252 452.5,-252 446.5,-252 440.5,-246 440.5,-240 440.5,-240 440.5,-228 440.5,-228 440.5,-222 446.5,-216 452.5,-216 452.5,-216 577.5,-216 577.5,-216 583.5,-216 589.5,-222 589.5,-228 589.5,-228 589.5,-240 589.5,-240 589.5,-246 583.5,-252 577.5,-252"/>
<text text-anchor="middle" x="515" y="-231.5" font-family="sans" font-size="10.00" fill="#000000">_copy_multiqc_html_report</text>
</g>
<!-- 25&#45;&gt;0 -->
<g id="edge3" class="edge">
<title>25&#45;&gt;0</title>
<path fill="none" stroke="#c0c0c0" stroke-width="2" d="M536.4643,-215.9357C573.4183,-185.1269 651.8556,-121.0012 722,-72 738.3244,-60.5961 757.02,-48.8332 772.8861,-39.2089"/>
<polygon fill="#c0c0c0" stroke="#c0c0c0" stroke-width="2" points="775.0977,-41.9629 781.8617,-33.8082 771.4887,-35.965 775.0977,-41.9629"/>
</g>
<!-- 26 -->
<g id="node27" class="node">
<title>26</title>
<path fill="none" stroke="#d88556" stroke-width="2" d="M411,-396C411,-396 317,-396 317,-396 311,-396 305,-390 305,-384 305,-384 305,-372 305,-372 305,-366 311,-360 317,-360 317,-360 411,-360 411,-360 417,-360 423,-366 423,-372 423,-372 423,-384 423,-384 423,-390 417,-396 411,-396"/>
<text text-anchor="middle" x="364" y="-375.5" font-family="sans" font-size="10.00" fill="#000000">qc_multiqc_longread</text>
</g>
<!-- 26&#45;&gt;25 -->
<g id="edge36" class="edge">
<title>26&#45;&gt;25</title>
<path fill="none" stroke="#c0c0c0" stroke-width="2" d="M383.1243,-359.7623C409.7871,-334.3354 458.2436,-288.1253 488.4105,-259.3569"/>
<polygon fill="#c0c0c0" stroke="#c0c0c0" stroke-width="2" points="491.2097,-261.5239 496.031,-252.0896 486.3787,-256.4581 491.2097,-261.5239"/>
</g>
<!-- 27&#45;&gt;26 -->
<g id="edge38" class="edge">
<title>27&#45;&gt;26</title>
<path fill="none" stroke="#c0c0c0" stroke-width="2" d="M197.7334,-431.9243C228.346,-421.9959 266.4881,-409.6255 298.5155,-399.2382"/>
<polygon fill="#c0c0c0" stroke="#c0c0c0" stroke-width="2" points="299.8112,-402.4975 308.2436,-396.0831 297.6516,-395.839 299.8112,-402.4975"/>
</g>
<!-- 28 -->
<g id="node29" class="node">
<title>28</title>
<path fill="none" stroke="#d86656" stroke-width="2" d="M244,-540C244,-540 98,-540 98,-540 92,-540 86,-534 86,-528 86,-528 86,-516 86,-516 86,-510 92,-504 98,-504 98,-504 244,-504 244,-504 250,-504 256,-510 256,-516 256,-516 256,-528 256,-528 256,-534 250,-540 244,-540"/>
<text text-anchor="middle" x="171" y="-519.5" font-family="sans" font-size="10.00" fill="#000000">references_bed_to_interval_list</text>
</g>
<!-- 28&#45;&gt;27 -->
<g id="edge43" class="edge">
<title>28&#45;&gt;27</title>
<path fill="none" stroke="#c0c0c0" stroke-width="2" d="M163.6821,-503.8314C160.5124,-495.9617 156.73,-486.5712 153.2187,-477.8533"/>
<polygon fill="#c0c0c0" stroke="#c0c0c0" stroke-width="2" points="156.3992,-476.3815 149.4165,-468.4133 149.9061,-478.9968 156.3992,-476.3815"/>
</g>
<!-- 29 -->
<g id="node30" class="node">
<title>29</title>
<path fill="none" stroke="#56d8b9" stroke-width="2" d="M201.5,-612C201.5,-612 140.5,-612 140.5,-612 134.5,-612 128.5,-606 128.5,-600 128.5,-600 128.5,-588 128.5,-588 128.5,-582 134.5,-576 140.5,-576 140.5,-576 201.5,-576 201.5,-576 207.5,-576 213.5,-582 213.5,-588 213.5,-588 213.5,-600 213.5,-600 213.5,-606 207.5,-612 201.5,-612"/>
<text text-anchor="middle" x="171" y="-591.5" font-family="sans" font-size="10.00" fill="#000000">samtools_dict</text>
</g>
<!-- 29&#45;&gt;28 -->
<g id="edge44" class="edge">
<title>29&#45;&gt;28</title>
<path fill="none" stroke="#c0c0c0" stroke-width="2" d="M171,-575.8314C171,-568.131 171,-558.9743 171,-550.4166"/>
<polygon fill="#c0c0c0" stroke="#c0c0c0" stroke-width="2" points="174.5001,-550.4132 171,-540.4133 167.5001,-550.4133 174.5001,-550.4132"/>
</g>
<!-- 30&#45;&gt;26 -->
<g id="edge40" class="edge">
<title>30&#45;&gt;26</title>
<path fill="none" stroke="#c0c0c0" stroke-width="2" d="M32.3324,-503.643C31.5677,-483.1727 33.8046,-450.514 53,-432 86.6652,-399.5299 213.7099,-386.3524 294.6363,-381.1757"/>
<polygon fill="#c0c0c0" stroke="#c0c0c0" stroke-width="2" points="294.9892,-384.6607 304.7559,-380.5545 294.5602,-377.6739 294.9892,-384.6607"/>
</g>
<!-- 31&#45;&gt;26 -->
<g id="edge37" class="edge">
<title>31&#45;&gt;26</title>
<path fill="none" stroke="#c0c0c0" stroke-width="2" d="M506.7068,-433.8418C481.0212,-423.7909 447.667,-410.7393 419.664,-399.7816"/>
<polygon fill="#c0c0c0" stroke="#c0c0c0" stroke-width="2" points="420.5914,-396.3861 410.0035,-396.0014 418.0406,-402.9048 420.5914,-396.3861"/>
</g>
<!-- 32&#45;&gt;26 -->
<g id="edge39" class="edge">
<title>32&#45;&gt;26</title>
<path fill="none" stroke="#c0c0c0" stroke-width="2" d="M364,-431.8314C364,-424.131 364,-414.9743 364,-406.4166"/>
<polygon fill="#c0c0c0" stroke="#c0c0c0" stroke-width="2" points="367.5001,-406.4132 364,-396.4133 360.5001,-406.4133 367.5001,-406.4132"/>
</g>
</g>
</svg>
